#N canvas 0 25 1440 847 12;
#X text 50 15 Ambient patch;
#X obj 431 329 noise~;
#X obj 437 562 bob~;
#X floatatom 465 536 5 0 0 0 - - - 0;
#X obj 445 297 tgl 15 0 empty empty empty 0 -6 0 8 #dcdcdc #000000
#000000 0 1;
#X obj 531 49 loadbang;
#X obj 448 421 line;
#X floatatom 448 445 5 0 0 0 - - - 0;
#X obj 448 373 metro 10000;
#X obj 131 412 t b b;
#X obj 117 513 readsf~;
#X msg 114 455 1;
#X obj 131 390 bng 15 250 50 0 empty empty empty 17 7 0 10 #fcfcfc
#000000 #000000;
#X msg 466 510 1;
#X msg 443 399 400 \, 600 10000;
#X text 11 65 Everything in this patch should be banged immediately
by the first threshold. The sound files last a bit more than 2min.
;
#X msg 153 449 open Rustling.wav;
#X obj 562 506 line;
#X floatatom 409 711 5 0 0 0 - - - 0;
#X obj 540 445 bng 15 250 50 0 empty empty empty 17 7 0 10 #fcfcfc
#000000 #000000;
#X text 567 446 Gradual start;
#X obj 363 731 *~;
#X msg 563 476 0 \, 10 30000;
#X obj 847 395 env~;
#X msg 959 358 70;
#X obj 849 460 One_time_threshold;
#X obj 941 261 time;
#X obj 941 235 bng 15 250 50 0 empty empty empty 17 7 0 10 #fcfcfc
#000000 #000000;
#X floatatom 941 291 5 0 0 0 - - - 0;
#X floatatom 990 355 5 0 0 0 - - - 0;
#X obj 990 387 sel 1;
#X obj 849 492 bng 15 250 50 0 empty empty empty 17 7 0 10 #fcfcfc
#000000 #000000;
#X floatatom 734 381 5 0 0 0 - - - 0;
#X obj 1026 464 spigot;
#X obj 1086 435 tgl 15 0 empty empty empty 17 7 0 10 #fcfcfc #000000
#000000 0 1;
#X msg 1085 386 1;
#X obj 1026 496 bng 15 250 50 0 empty empty empty 17 7 0 10 #fcfcfc
#000000 #000000;
#X msg 1119 457 0;
#X obj 849 525 Noise_transition;
#X obj 990 324 > 20;
#X obj 147 183 line;
#X floatatom 147 207 4 0 0 0 - - - 0;
#X obj 1414 830 4ch_output_section;
#X obj 1195 714 rev3~ 100 90 3000 20;
#X obj 1332 750 throw~ speaker3;
#X obj 1286 777 throw~ speaker2;
#X obj 1240 804 throw~ speaker1;
#X obj 1195 831 throw~ speaker0;
#X obj 1195 580 catch~ to_reverb;
#X obj 1195 678 *~ 0.3;
#X msg 1241 168 open birds.wav;
#X obj 1193 129 t b b;
#X msg 1192 166 1;
#X obj 1192 204 readsf~, f 8;
#X obj 1192 100 bng 15 250 50 0 empty empty empty 17 7 0 10 #fcfcfc
#000000 #000000;
#X floatatom 1358 280 5 0 0 0 - - - 0;
#X obj 1442 453 throw~ speaker3;
#X obj 1359 480 throw~ speaker2;
#X obj 1276 507 throw~ speaker1;
#X obj 1193 534 throw~ speaker0;
#X obj 1205 370 throw~ to_reverb;
#X obj 1193 427 pan4_with_center_and_distance_polar~;
#X obj 1358 307 sig~;
#X obj 1394 373 *~ 360;
#X obj 1394 343 phasor~ 1;
#X floatatom 1414 308 5 0 0 0 - - - 0;
#X msg 1492 236 2;
#X obj 1193 274 *~ 1;
#X text 1428 268 Speed of circle;
#X text 1344 201 Distance from center;
#X obj 324 798 dac~ 1 2 3 4;
#X msg 1358 233 4;
#X obj 1193 326 *~ 0.3;
#X obj 434 610 *~ 0.03;
#X obj 129 600 *~ 0.02;
#X obj 846 343 adc~ 3;
#X msg 145 125 0.02 \, 0 3000;
#X connect 1 0 2 0;
#X connect 2 0 73 0;
#X connect 3 0 2 2;
#X connect 4 0 8 0;
#X connect 5 0 4 0;
#X connect 5 0 13 0;
#X connect 5 0 12 0;
#X connect 5 0 19 0;
#X connect 5 0 35 0;
#X connect 5 0 24 0;
#X connect 5 0 27 0;
#X connect 5 0 54 0;
#X connect 5 0 71 0;
#X connect 5 0 66 0;
#X connect 6 0 7 0;
#X connect 7 0 2 1;
#X connect 8 0 14 0;
#X connect 9 0 11 0;
#X connect 9 1 16 0;
#X connect 10 0 74 0;
#X connect 11 0 10 0;
#X connect 12 0 9 0;
#X connect 13 0 3 0;
#X connect 14 0 6 0;
#X connect 16 0 10 0;
#X connect 17 0 18 0;
#X connect 18 0 21 1;
#X connect 19 0 22 0;
#X connect 21 0 70 0;
#X connect 21 0 70 1;
#X connect 21 0 70 2;
#X connect 21 0 70 3;
#X connect 22 0 17 0;
#X connect 23 0 25 0;
#X connect 23 0 32 0;
#X connect 24 0 25 2;
#X connect 25 0 31 0;
#X connect 26 0 28 0;
#X connect 27 0 26 0;
#X connect 28 0 39 0;
#X connect 29 0 30 0;
#X connect 30 0 33 0;
#X connect 31 0 76 0;
#X connect 31 0 38 0;
#X connect 33 0 36 0;
#X connect 34 0 33 1;
#X connect 35 0 34 0;
#X connect 36 0 37 0;
#X connect 36 0 25 1;
#X connect 37 0 34 0;
#X connect 39 0 29 0;
#X connect 40 0 41 0;
#X connect 41 0 67 1;
#X connect 41 0 73 1;
#X connect 41 0 74 1;
#X connect 43 0 47 0;
#X connect 43 1 46 0;
#X connect 43 2 45 0;
#X connect 43 3 44 0;
#X connect 48 0 49 0;
#X connect 49 0 43 0;
#X connect 50 0 53 0;
#X connect 51 0 52 0;
#X connect 51 1 50 0;
#X connect 52 0 53 0;
#X connect 53 0 67 0;
#X connect 54 0 51 0;
#X connect 55 0 62 0;
#X connect 61 0 59 0;
#X connect 61 1 58 0;
#X connect 61 2 57 0;
#X connect 61 3 56 0;
#X connect 62 0 61 2;
#X connect 63 0 61 1;
#X connect 64 0 63 0;
#X connect 65 0 64 0;
#X connect 66 0 65 0;
#X connect 67 0 72 0;
#X connect 71 0 55 0;
#X connect 72 0 60 0;
#X connect 72 0 61 0;
#X connect 73 0 21 0;
#X connect 74 0 21 0;
#X connect 75 0 23 0;
#X connect 76 0 40 0;
