#N canvas 0 25 1440 847 12;
#X text 44 34 Ambient patch;
#X obj 260 388 noise~;
#X obj 259 591 bob~;
#X floatatom 326 544 5 0 0 0 - - - 0;
#X obj 277 420 tgl 15 0 empty empty empty 0 -6 0 8 #dcdcdc #000000
#000000 0 1;
#X obj 652 19 loadbang;
#X obj 277 493 line;
#X floatatom 277 517 5 0 0 0 - - - 0;
#X obj 277 445 metro 10000;
#X obj 63 452 t b b;
#X obj 103 569 readsf~;
#X msg 62 503 1;
#X obj 65 424 bng 15 250 50 0 empty empty empty 17 7 0 10 #fcfcfc #000000
#000000;
#X msg 1056 141 open birds.wav;
#X obj 1008 102 t b b;
#X msg 1007 139 1;
#X obj 1007 177 readsf~, f 8;
#X obj 1009 75 bng 15 250 50 0 empty empty empty 17 7 0 10 #fcfcfc
#000000 #000000;
#X obj 260 630 *~ 0.1;
#X msg 327 511 1;
#X msg 272 471 400 \, 600 10000;
#X text 41 66 Everything in this patch should be banged immediately
by the first threshold. The sound files last a bit more than 2min.
;
#X msg 109 531 open Rustling.wav;
#X obj 317 667 line;
#X floatatom 292 694 5 0 0 0 - - - 0;
#X obj 651 151 bng 15 250 50 0 empty empty empty 17 7 0 10 #fcfcfc
#000000 #000000;
#X text 779 185 Gradual start;
#X obj 259 722 *~;
#X msg 674 182 0 \, 10 30000;
#X obj 642 423 adc~ 1 2;
#X obj 642 464 env~;
#X msg 767 504 70;
#X obj 644 540 One_time_threshold;
#X obj 775 361 time;
#X obj 774 331 bng 15 250 50 0 empty empty empty 17 7 0 10 #fcfcfc
#000000 #000000;
#X floatatom 775 391 5 0 0 0 - - - 0;
#X floatatom 801 453 5 0 0 0 - - - 0;
#X obj 801 485 sel 1;
#X obj 654 587 bng 15 250 50 0 empty empty empty 17 7 0 10 #fcfcfc
#000000 #000000;
#X floatatom 529 461 5 0 0 0 - - - 0;
#X obj 802 583 spigot;
#X obj 870 550 tgl 15 0 empty empty empty 17 7 0 10 #fcfcfc #000000
#000000 0 1;
#X msg 868 517 1;
#X obj 838 618 bng 15 250 50 0 empty empty empty 17 7 0 10 #fcfcfc
#000000 #000000;
#X msg 910 532 0;
#X obj 644 633 Noise_transition;
#X obj 800 421 > 20;
#X obj 98 170 line;
#X floatatom 98 194 5 0 0 0 - - - 0;
#X msg 99 133 0.1 \, 0 3000;
#X obj 104 611 *~ 0.2;
#X obj 220 790 dac~ 1 2 3 4;
#X floatatom 1173 243 5 0 0 0 - - - 0;
#X obj 1257 426 throw~ speaker3;
#X obj 1174 453 throw~ speaker2;
#X obj 1091 480 throw~ speaker1;
#X obj 1008 507 throw~ speaker0;
#X obj 1020 343 throw~ to_reverb;
#X obj 1008 400 pan4_with_center_and_distance_polar~;
#X obj 1174 372 sig~;
#X obj 1209 346 *~ 360;
#X obj 1209 316 phasor~ 1;
#X obj 1251 209 cyclone/pink~;
#X obj 1251 233 *~ 0.2;
#X floatatom 1229 281 5 0 0 0 - - - 0;
#X msg 1324 250 10;
#X obj 1008 299 *~ 0.8;
#X msg 1173 206 2;
#X obj 1227 795 4ch_output_section;
#X floatatom 1062 577 0 0 120 0 - - - 0;
#X text 1090 579 level \, dB;
#X floatatom 1089 602 0 0 100 0 - - - 0;
#X text 1115 602 liveness \, 0-100;
#X floatatom 1116 628 4 0 5000 0 - - - 0;
#X floatatom 1145 651 0 0 100 0 - - - 0;
#X text 1149 626 crossover frequency \, Hz.;
#X text 1173 653 HF damping \, percent;
#X obj 1008 679 rev3~ 100 90 3000 20;
#X text 1239 681 4 channel reverb;
#X obj 1145 715 throw~ speaker3;
#X obj 1099 742 throw~ speaker2;
#X obj 1053 769 throw~ speaker1;
#X obj 1008 796 throw~ speaker0;
#X obj 1008 545 catch~ to_reverb;
#X obj 1008 643 *~ 0.3;
#X obj 1008 258 *~ 1;
#X connect 1 0 2 0;
#X connect 2 0 18 0;
#X connect 3 0 2 2;
#X connect 4 0 8 0;
#X connect 5 0 4 0;
#X connect 5 0 19 0;
#X connect 5 0 17 0;
#X connect 5 0 12 0;
#X connect 5 0 25 0;
#X connect 5 0 42 0;
#X connect 5 0 31 0;
#X connect 5 0 34 0;
#X connect 6 0 7 0;
#X connect 7 0 2 1;
#X connect 8 0 20 0;
#X connect 9 0 11 0;
#X connect 9 1 22 0;
#X connect 10 0 50 0;
#X connect 11 0 10 0;
#X connect 12 0 9 0;
#X connect 13 0 16 0;
#X connect 14 0 15 0;
#X connect 14 1 13 0;
#X connect 15 0 16 0;
#X connect 16 0 85 0;
#X connect 17 0 14 0;
#X connect 18 0 27 0;
#X connect 19 0 3 0;
#X connect 20 0 6 0;
#X connect 22 0 10 0;
#X connect 23 0 24 0;
#X connect 24 0 27 1;
#X connect 25 0 28 0;
#X connect 27 0 51 0;
#X connect 27 0 51 1;
#X connect 27 0 51 2;
#X connect 27 0 51 3;
#X connect 28 0 23 0;
#X connect 29 0 30 0;
#X connect 30 0 32 0;
#X connect 30 0 39 0;
#X connect 31 0 32 2;
#X connect 32 0 38 0;
#X connect 33 0 35 0;
#X connect 34 0 33 0;
#X connect 35 0 46 0;
#X connect 36 0 37 0;
#X connect 37 0 40 0;
#X connect 38 0 49 0;
#X connect 38 0 45 0;
#X connect 40 0 43 0;
#X connect 41 0 40 1;
#X connect 42 0 41 0;
#X connect 43 0 44 0;
#X connect 43 0 32 1;
#X connect 44 0 41 0;
#X connect 46 0 36 0;
#X connect 47 0 48 0;
#X connect 48 0 18 1;
#X connect 48 0 50 1;
#X connect 48 0 85 1;
#X connect 49 0 47 0;
#X connect 50 0 27 0;
#X connect 52 0 59 0;
#X connect 58 0 56 0;
#X connect 58 1 55 0;
#X connect 58 2 54 0;
#X connect 58 3 53 0;
#X connect 59 0 58 2;
#X connect 60 0 58 1;
#X connect 61 0 60 0;
#X connect 62 0 63 0;
#X connect 64 0 61 0;
#X connect 65 0 64 0;
#X connect 66 0 57 0;
#X connect 66 0 58 0;
#X connect 67 0 52 0;
#X connect 69 0 77 2;
#X connect 71 0 77 3;
#X connect 73 0 77 4;
#X connect 74 0 77 5;
#X connect 77 0 82 0;
#X connect 77 1 81 0;
#X connect 77 2 80 0;
#X connect 77 3 79 0;
#X connect 83 0 84 0;
#X connect 84 0 77 0;
#X connect 85 0 66 0;
