#N canvas -294 86 1920 976 12;
#X text 80 54 Ambient patch;
#X obj 621 335 noise~;
#X obj 726 402 bob~;
#X floatatom 930 299 5 0 0 0 - - - 0;
#X obj 736 147 tgl 15 0 empty empty empty 0 -6 0 8 #dcdcdc #000000
#000000 0 1;
#X obj 722 77 loadbang;
#X obj 739 271 line;
#X floatatom 739 295 5 0 0 0 - - - 0;
#X obj 739 223 metro 10000;
#X obj 682 799 dac~ 1 2;
#X obj 463 423 t b b;
#X obj 561 576 readsf~;
#X msg 412 479 1;
#X obj 465 371 bng 15 250 50 0 empty empty empty 17 7 0 10 #fcfcfc
#000000 #000000;
#X msg 962 504 open birds.wav;
#X obj 917 466 t b b;
#X msg 868 504 1;
#X obj 826 576 readsf~, f 8;
#X obj 914 426 bng 15 250 50 0 empty empty empty 17 7 0 10 #fcfcfc
#000000 #000000;
#X obj 707 495 *~ 0.1;
#X msg 931 266 1;
#X msg 734 249 400 \, 600 10000;
#X text 41 104 Everything in this patch should be banged immediately
by the first threshold. The sound files last a bit more than 2min.
;
#X msg 487 477 open Rustling.wav;
#X obj 736 607 line;
#X floatatom 711 634 5 0 0 0 - - - 0;
#X obj 863 144 bng 15 250 50 0 empty empty empty 17 7 0 10 #fcfcfc
#000000 #000000;
#X text 991 178 Gradual start;
#X obj 684 711 *~;
#X obj 826 600 *~ 0.2;
#X obj 561 600 *~ 0.5;
#X msg 886 175 0 \, 10 30000;
#X obj 1240 334 adc~ 1 2;
#X obj 1240 375 env~;
#X msg 1342 395 70;
#X obj 1242 451 One_time_threshold;
#X obj 1334 252 time;
#X obj 1334 226 bng 15 250 50 0 empty empty empty 17 7 0 10 #fcfcfc
#000000 #000000;
#X floatatom 1334 282 5 0 0 0 - - - 0;
#X floatatom 1383 346 5 0 0 0 - - - 0;
#X obj 1383 378 sel 1;
#X obj 1252 498 bng 15 250 50 0 empty empty empty 17 7 0 10 #fcfcfc
#000000 #000000;
#X floatatom 1127 372 5 0 0 0 - - - 0;
#X obj 1446 533 spigot;
#X obj 1495 491 tgl 15 0 empty empty empty 17 7 0 10 #fcfcfc #000000
#000000 0 1;
#X msg 1488 436 1;
#X obj 1429 570 bng 15 250 50 0 empty empty empty 17 7 0 10 #fcfcfc
#000000 #000000;
#X msg 1669 530 0;
#X obj 1383 315 > 30;
#X obj 1209 597 Noise_transition;
#X msg 279 308 0;
#X connect 1 0 2 0;
#X connect 2 0 19 0;
#X connect 3 0 2 2;
#X connect 4 0 8 0;
#X connect 5 0 4 0;
#X connect 5 0 20 0;
#X connect 5 0 18 0;
#X connect 5 0 13 0;
#X connect 5 0 26 0;
#X connect 5 0 45 0;
#X connect 5 0 34 0;
#X connect 5 0 37 0;
#X connect 6 0 7 0;
#X connect 7 0 2 1;
#X connect 8 0 21 0;
#X connect 10 0 12 0;
#X connect 10 1 23 0;
#X connect 11 0 30 0;
#X connect 12 0 11 0;
#X connect 13 0 10 0;
#X connect 14 0 17 0;
#X connect 15 0 16 0;
#X connect 15 1 14 0;
#X connect 16 0 17 0;
#X connect 17 0 29 0;
#X connect 18 0 15 0;
#X connect 19 0 28 0;
#X connect 20 0 3 0;
#X connect 21 0 6 0;
#X connect 23 0 11 0;
#X connect 24 0 25 0;
#X connect 25 0 28 1;
#X connect 26 0 31 0;
#X connect 28 0 9 0;
#X connect 28 0 9 1;
#X connect 29 0 28 0;
#X connect 30 0 28 0;
#X connect 31 0 24 0;
#X connect 32 0 33 0;
#X connect 33 0 35 0;
#X connect 33 0 42 0;
#X connect 34 0 35 2;
#X connect 35 0 41 0;
#X connect 36 0 38 0;
#X connect 37 0 36 0;
#X connect 38 0 48 0;
#X connect 39 0 40 0;
#X connect 40 0 43 0;
#X connect 41 0 49 0;
#X connect 41 0 50 0;
#X connect 43 0 46 0;
#X connect 44 0 43 1;
#X connect 45 0 44 0;
#X connect 46 0 47 0;
#X connect 46 0 35 1;
#X connect 47 0 44 0;
#X connect 48 0 39 0;
#X connect 50 0 11 0;
#X connect 50 0 17 0;
#X connect 50 0 19 1;
