#N canvas -8 0 1920 976 12;
#X obj 1124 220 osc~ 100;
#X obj 1198 224 osc~ 50;
#X obj 1051 220 osc~ 150;
#X obj 1280 221 osc~ 30;
#X obj 981 298 *~ 0.05;
#X obj 1072 299 *~ 0.05;
#X obj 677 116 tgl 15 0 empty empty empty 17 7 0 10 #fcfcfc #000000
#000000 0 1;
#X obj 669 57 inlet;
#X obj 674 86 bng 15 250 50 0 empty empty empty 17 7 0 10 #fcfcfc #000000
#000000;
#X obj 675 239 line;
#X obj 677 173 bng 15 250 50 0 empty empty empty 17 7 0 10 #fcfcfc
#000000 #000000;
#X obj 942 224 osc~ 200;
#X obj 676 142 metro 5000, f 11;
#X floatatom 823 306 5 0 0 0 - - - 0;
#X obj 675 263 sin;
#X msg 681 204 0 \, 6.28319 5000;
#X obj 664 338 / 20;
#X obj 1021 362 outlet~;
#X obj 831 146 inlet;
#X msg 980 123 0;
#X obj 979 73 loadbang;
#X obj 664 314 + 1.5;
#X connect 0 0 5 0;
#X connect 1 0 5 0;
#X connect 2 0 4 0;
#X connect 3 0 5 0;
#X connect 4 0 17 0;
#X connect 5 0 17 0;
#X connect 6 0 12 0;
#X connect 7 0 8 0;
#X connect 8 0 6 0;
#X connect 9 0 14 0;
#X connect 10 0 15 0;
#X connect 11 0 4 0;
#X connect 12 0 10 0;
#X connect 13 0 4 1;
#X connect 14 0 21 0;
#X connect 15 0 9 0;
#X connect 16 0 13 0;
#X connect 18 0 5 0;
#X connect 18 0 4 0;
#X connect 19 0 4 1;
#X connect 19 0 5 1;
#X connect 20 0 19 0;
#X connect 21 0 16 0;
