#N canvas 0 25 1440 847 12;
#X obj 962 229 osc~ 100;
#X obj 1036 233 osc~ 50;
#X obj 830 229 osc~ 150;
#X obj 1118 230 osc~ 30;
#X obj 268 120 tgl 15 0 empty empty empty 17 7 0 10 #fcfcfc #000000
#000000 0 1;
#X obj 260 61 inlet;
#X obj 265 90 bng 15 250 50 0 empty empty empty 17 7 0 10 #fcfcfc #000000
#000000;
#X obj 266 243 line;
#X obj 268 177 bng 15 250 50 0 empty empty empty 17 7 0 10 #fcfcfc
#000000 #000000;
#X obj 735 231 osc~ 200;
#X obj 267 146 metro 5000, f 11;
#X floatatom 363 423 5 0 0 0 - - - 0;
#X obj 266 267 sin;
#X msg 272 208 0 \, 6.28319 5000;
#X obj 255 342 / 20;
#X obj 956 655 outlet~;
#X msg 436 128 0;
#X obj 435 78 loadbang;
#X obj 255 318 + 1.5;
#X obj 1118 69 inlet;
#X obj 1124 107 bng 15 250 50 0 empty empty empty 17 7 0 10 #fcfcfc
#000000 #000000;
#X obj 921 65 inlet;
#X obj 923 112 bng 15 250 50 0 empty empty empty 17 7 0 10 #fcfcfc
#000000 #000000;
#X obj 918 174 line;
#X msg 918 140 0 \, 0.1 3000;
#X obj 1118 163 line;
#X msg 1130 133 0.1 \, 0 3000;
#X msg 485 408 0;
#X obj 418 469 spigot;
#X obj 520 458 tgl 15 0 empty empty empty 17 7 0 10 #fcfcfc #000000
#000000 0 1;
#X msg 543 409 1;
#X obj 875 507 *~ 0.01;
#X obj 1075 508 *~ 0.01;
#X obj 957 603 *~ 0.05;
#X connect 0 0 32 0;
#X connect 1 0 32 0;
#X connect 2 0 31 0;
#X connect 3 0 32 0;
#X connect 4 0 10 0;
#X connect 5 0 6 0;
#X connect 6 0 4 0;
#X connect 7 0 12 0;
#X connect 8 0 13 0;
#X connect 9 0 31 0;
#X connect 10 0 8 0;
#X connect 11 0 28 0;
#X connect 12 0 18 0;
#X connect 13 0 7 0;
#X connect 14 0 11 0;
#X connect 16 0 30 0;
#X connect 16 0 31 1;
#X connect 16 0 32 1;
#X connect 17 0 16 0;
#X connect 18 0 14 0;
#X connect 19 0 20 0;
#X connect 20 0 26 0;
#X connect 20 0 27 0;
#X connect 21 0 22 0;
#X connect 22 0 24 0;
#X connect 23 0 31 1;
#X connect 23 0 32 1;
#X connect 24 0 23 0;
#X connect 25 0 31 1;
#X connect 25 0 32 1;
#X connect 26 0 25 0;
#X connect 27 0 29 0;
#X connect 28 0 31 0;
#X connect 29 0 28 1;
#X connect 30 0 29 0;
#X connect 31 0 33 0;
#X connect 32 0 33 0;
#X connect 33 0 15 0;
