#N canvas 85 220 963 591 12;
#X obj 710 193 noise~;
#X obj 361 504 dac~ 1 2;
#X obj 764 250 *~ 0.2;
#X obj 309 56 bng 15 250 50 0 empty empty empty 17 7 0 10 #fcfcfc #000000
#000000;
#X msg 309 87 0;
#X msg 361 87 1;
#X obj 324 135 hsl 128 15 0 1 0 0 empty empty empty -2 -8 0 10 #faff00
#000000 #000000 0 1;
#X obj 316 252 swap 1;
#X obj 319 299 -;
#X floatatom 318 337 5 0 0 0 - - - 0;
#X obj 299 385 *~;
#X obj 403 384 *~;
#X floatatom 420 337 5 0 0 0 - - - 0;
#X obj 402 245 osc~ 600;
#X obj 297 226 osc~ 200;
#X msg 101 255 open;
#X obj 361 457 *~ 0;
#X obj 544 239 DarkAmbience1;
#X connect 0 0 2 0;
#X connect 3 0 4 0;
#X connect 3 0 5 0;
#X connect 4 0 6 0;
#X connect 5 0 6 0;
#X connect 6 0 7 0;
#X connect 6 0 12 0;
#X connect 7 0 8 0;
#X connect 7 1 8 1;
#X connect 8 0 9 0;
#X connect 9 0 10 1;
#X connect 10 0 16 0;
#X connect 11 0 16 0;
#X connect 12 0 11 1;
#X connect 13 0 11 0;
#X connect 14 0 10 0;
#X connect 16 0 1 0;
#X connect 16 0 1 1;
#X coords 0 591 1 590 0 0 0;
