#N canvas -1096 -42 963 767 12;
#X obj 393 73 bng 15 250 50 0 empty empty empty 17 7 0 10 #fcfcfc #000000
#000000;
#X obj 397 162 hsl 128 15 0 1 0 0 empty empty empty -2 -8 0 10 #faff00
#000000 #000000 0 1;
#X obj 353 291 swap 1;
#X obj 356 338 -;
#X floatatom 355 376 5 0 0 0 - - - 0;
#X obj 336 424 *~;
#X obj 491 406 *~;
#X floatatom 508 359 5 0 0 0 - - - 0;
#X obj 405 523 *~ 0.2;
#X obj 648 339 f;
#X floatatom 648 380 5 0 0 0 - - - 0;
#X obj 695 339 + 1;
#X obj 732 337 mod 10;
#X obj 627 276 metro 1000;
#X obj 627 246 bng 15 250 50 0 empty empty empty 17 7 0 10 #fcfcfc
#000000 #000000;
#X obj 673 308 bng 15 250 50 0 empty empty empty 17 7 0 10 #fcfcfc
#000000 #000000;
#X obj 393 134 line, f 13;
#X msg 392 103 0 \, 1 5000;
#X obj 393 32 inlet;
#X obj 241 267 ambience;
#X obj 405 553 outlet~;
#X obj 474 217 Noise_transition;
#X connect 0 0 17 0;
#X connect 1 0 2 0;
#X connect 1 0 7 0;
#X connect 2 0 3 0;
#X connect 2 1 3 1;
#X connect 3 0 4 0;
#X connect 4 0 5 1;
#X connect 5 0 8 0;
#X connect 6 0 8 0;
#X connect 7 0 6 1;
#X connect 8 0 20 0;
#X connect 9 0 10 0;
#X connect 9 0 11 0;
#X connect 11 0 12 0;
#X connect 12 0 9 1;
#X connect 13 0 9 0;
#X connect 13 0 15 0;
#X connect 14 0 13 0;
#X connect 16 0 1 0;
#X connect 17 0 16 0;
#X connect 18 0 0 0;
#X connect 19 0 5 0;
#X coords 0 767 1 766 0 0 0;
