#N canvas 0 25 1920 976 12;
#X obj 713 307 noise~;
#X obj 583 592 readsf~;
#X msg 257 421 1;
#X obj 863 372 bob~;
#X floatatom 1077 275 5 0 0 0 - - - 0;
#X obj 1082 175 metro 300;
#X obj 873 117 tgl 15 0 empty empty empty 0 -6 0 8 #dcdcdc #000000
#000000 0 1;
#X obj 1090 222 Cyclone/drunk 4 0, f 24;
#X obj 876 241 line;
#X floatatom 876 265 5 0 0 0 - - - 0;
#X msg 634 486 open crow_caw2.wav;
#X obj 1093 589 readsf~;
#X msg 1074 510 1;
#X obj 321 220 select 0 1 2;
#X obj 287 254 bng 15 250 50 0 empty empty empty 17 7 0 10 #fcfcfc
#000000 #000000;
#X obj 374 253 bng 15 250 50 0 empty empty empty 17 7 0 10 #fcfcfc
#000000 #000000;
#X obj 338 252 bng 15 250 50 0 empty empty empty 17 7 0 10 #fcfcfc
#000000 #000000;
#X obj 412 99 tgl 15 0 empty empty empty 17 7 0 10 #fcfcfc #000000
#000000 0 1;
#X obj 384 342 t b b;
#X obj 1173 469 t b b;
#X obj 751 875 dac~ 1 2 2 1;
#X obj 1057 797 *~ 5;
#X obj 876 193 metro 10000;
#X msg 871 219 1000 \, 1200 10000;
#X obj 1166 400 bng 15 250 50 0 empty empty empty 17 7 0 10 #fcfcfc
#000000 #000000;
#X text 886 868 Still need to add the surround sound part;
#X obj 486 438 bng 15 250 50 0 empty empty empty 17 7 0 10 #fcfcfc
#000000 #000000;
#X obj 451 440 bng 15 250 50 0 empty empty empty 17 7 0 10 #fcfcfc
#000000 #000000;
#X obj 387 150 metro 10000;
#X obj 470 593 readsf~;
#X floatatom 613 380 5 0 0 0 - - - 0;
#X obj 360 188 random 3;
#X obj 342 282 delay 1000;
#X obj 447 281 delay 3000;
#X msg 479 487 open crow_caw4.wav;
#X msg 1462 572 0;
#X msg 333 486 open crow_caw3.wav;
#X obj 384 596 readsf~;
#X obj 449 368 random 3;
#X obj 449 404 select 0 1 2;
#X obj 517 437 bng 15 250 50 0 empty empty empty 17 7 0 10 #fcfcfc
#000000 #000000;
#X obj 527 729 *~ 5;
#X text 107 835 Construction above: to kind of randomize when the crow
craws. We have one that craws a lot \, one that craws twice loudly
and one that craws twice a bit softer.;
#X text 29 172 Trying to make the timing feel random;
#X msg 1177 506 open Rustling.wav;
#X obj 877 67 bng 15 250 50 0 empty empty empty 17 7 0 10 #fcfcfc #000000
#000000;
#X obj 875 24 inlet;
#X obj 867 470 *~ 0.2;
#X obj 694 620 *~ 0.3;
#X obj 610 655 *~ 0.8;
#X obj 1028 643 *~ 0.8;
#X obj 1484 192 adc~ 1 2;
#X obj 1484 233 env~;
#X msg 1586 253 70;
#X obj 1486 309 One_time_threshold;
#X obj 1578 110 time;
#X obj 1578 84 bng 15 250 50 0 empty empty empty 17 7 0 10 #fcfcfc
#000000 #000000;
#X floatatom 1578 140 5 0 0 0 - - - 0;
#X floatatom 1627 204 5 0 0 0 - - - 0;
#X obj 1627 236 sel 1;
#X obj 1496 356 bng 15 250 50 0 empty empty empty 17 7 0 10 #fcfcfc
#000000 #000000;
#X floatatom 1371 230 5 0 0 0 - - - 0;
#X obj 1690 391 spigot;
#X obj 1739 349 tgl 15 0 empty empty empty 17 7 0 10 #fcfcfc #000000
#000000 0 1;
#X msg 1732 294 1;
#X obj 1673 428 bng 15 250 50 0 empty empty empty 17 7 0 10 #fcfcfc
#000000 #000000;
#X msg 1783 418 0;
#X obj 1627 173 > 20;
#X obj 1536 522 laughing_girl;
#X connect 0 0 3 0;
#X connect 1 0 48 0;
#X connect 2 0 1 0;
#X connect 2 0 29 0;
#X connect 2 0 37 0;
#X connect 3 0 47 0;
#X connect 4 0 3 2;
#X connect 5 0 7 0;
#X connect 6 0 5 0;
#X connect 6 0 22 0;
#X connect 7 0 4 0;
#X connect 8 0 9 0;
#X connect 9 0 3 1;
#X connect 10 0 1 0;
#X connect 11 0 50 0;
#X connect 12 0 11 0;
#X connect 13 0 14 0;
#X connect 13 1 16 0;
#X connect 13 2 15 0;
#X connect 14 0 18 0;
#X connect 15 0 33 0;
#X connect 16 0 32 0;
#X connect 17 0 28 0;
#X connect 18 0 2 0;
#X connect 18 1 38 0;
#X connect 19 0 12 0;
#X connect 19 1 44 0;
#X connect 21 0 20 0;
#X connect 21 0 20 1;
#X connect 22 0 23 0;
#X connect 23 0 8 0;
#X connect 24 0 19 0;
#X connect 26 0 34 0;
#X connect 27 0 36 0;
#X connect 28 0 31 0;
#X connect 29 0 49 0;
#X connect 31 0 13 0;
#X connect 32 0 18 0;
#X connect 33 0 18 0;
#X connect 34 0 29 0;
#X connect 35 0 37 0;
#X connect 35 0 29 0;
#X connect 35 0 1 0;
#X connect 35 0 11 0;
#X connect 35 0 47 1;
#X connect 35 0 17 0;
#X connect 36 0 37 0;
#X connect 37 0 41 0;
#X connect 38 0 30 0;
#X connect 38 0 39 0;
#X connect 39 0 27 0;
#X connect 39 1 26 0;
#X connect 39 2 40 0;
#X connect 40 0 10 0;
#X connect 41 0 20 0;
#X connect 41 0 20 1;
#X connect 44 0 11 0;
#X connect 45 0 6 0;
#X connect 45 0 17 0;
#X connect 45 0 24 0;
#X connect 45 0 53 0;
#X connect 45 0 64 0;
#X connect 45 0 56 0;
#X connect 46 0 45 0;
#X connect 47 0 20 0;
#X connect 47 0 20 1;
#X connect 48 0 20 0;
#X connect 48 0 20 1;
#X connect 49 0 20 1;
#X connect 49 0 20 0;
#X connect 50 0 20 0;
#X connect 50 0 20 1;
#X connect 51 0 52 0;
#X connect 52 0 54 0;
#X connect 52 0 61 0;
#X connect 53 0 54 2;
#X connect 54 0 60 0;
#X connect 55 0 57 0;
#X connect 56 0 55 0;
#X connect 57 0 67 0;
#X connect 58 0 59 0;
#X connect 59 0 62 0;
#X connect 60 0 35 0;
#X connect 60 0 68 0;
#X connect 62 0 65 0;
#X connect 63 0 62 1;
#X connect 64 0 63 0;
#X connect 65 0 66 0;
#X connect 65 0 54 1;
#X connect 66 0 63 0;
#X connect 67 0 58 0;
