#N canvas -1857 -83 1857 971 12;
#X obj 396 560 readsf~;
#X msg 99 322 1;
#X msg 354 465 open crow_caw2.wav;
#X obj 1164 515 readsf~;
#X msg 1163 475 1;
#X obj 133 157 select 0 1 2;
#X obj 99 191 bng 15 250 50 0 empty empty empty 17 7 0 10 #fcfcfc #000000
#000000;
#X obj 186 190 bng 15 250 50 0 empty empty empty 17 7 0 10 #fcfcfc
#000000 #000000;
#X obj 150 189 bng 15 250 50 0 empty empty empty 17 7 0 10 #fcfcfc
#000000 #000000;
#X obj 131 64 tgl 15 0 empty empty empty 17 7 0 10 #fcfcfc #000000
#000000 0 1;
#X obj 102 286 t b b;
#X obj 1168 430 t b b;
#X obj 1166 400 bng 15 250 50 0 empty empty empty 17 7 0 10 #fcfcfc
#000000 #000000;
#X text 886 868 Still need to add the surround sound part;
#X obj 292 375 bng 15 250 50 0 empty empty empty 17 7 0 10 #fcfcfc
#000000 #000000;
#X obj 257 377 bng 15 250 50 0 empty empty empty 17 7 0 10 #fcfcfc
#000000 #000000;
#X obj 132 87 metro 10000;
#X obj 299 562 readsf~;
#X floatatom 419 317 5 0 0 0 - - - 0;
#X obj 132 125 random 3;
#X obj 154 219 delay 1000;
#X obj 259 218 delay 3000;
#X msg 300 436 open crow_caw4.wav;
#X msg 1588 483 0;
#X msg 234 411 open crow_caw3.wav;
#X obj 224 559 readsf~;
#X obj 255 305 random 3;
#X obj 255 341 select 0 1 2;
#X obj 323 374 bng 15 250 50 0 empty empty empty 17 7 0 10 #fcfcfc
#000000 #000000;
#X text 59 872 Construction above: to kind of randomize when the crow
craws. We have one that craws a lot \, one that craws twice loudly
and one that craws twice a bit softer.;
#X msg 1212 472 open Rustling.wav;
#X obj 872 60 bng 15 250 50 0 empty empty empty 17 7 0 10 #fcfcfc #000000
#000000;
#X obj 875 29 inlet;
#X obj 1484 233 env~;
#X msg 1604 283 70, f 7;
#X obj 1481 317 One_time_threshold;
#X obj 1410 359 bng 15 250 50 0 empty empty empty 17 7 0 10 #fcfcfc
#000000 #000000;
#X floatatom 1497 262 5 0 0 0 - - - 0;
#X obj 1664 379 spigot;
#X obj 1739 349 tgl 15 0 empty empty empty 17 7 0 10 #fcfcfc #000000
#000000 0 1;
#X msg 1725 298 1;
#X obj 1686 425 bng 15 250 50 0 empty empty empty 17 7 0 10 #fcfcfc
#000000 #000000;
#X msg 1775 288 0;
#X obj 1479 376 laughing_girl;
#X obj 1163 659 *~ 0.2;
#X text 84 736 Normal voice - 60-70;
#X text 84 764 Louder 75-80;
#X text 86 795 Screaming 90;
#X text 84 698 Heavy breathing 50;
#X text 44 661 No mic - 20-30-35;
#X obj 1504 565 line;
#X floatatom 1504 589 5 0 0 0 - - - 0;
#X text 1522 653 Stop the metro so we get no new crows;
#X obj 1007 38 line;
#X floatatom 1007 62 5 0 0 0 - - - 0;
#X msg 996 4 0 \, 0.1 3000;
#X msg 1504 541 0.1 \, 0 3000;
#X text 1044 44 Fade-in of wind+rustling + a cawing craw;
#X text 1584 620 Fade out of wind+rustling + a cawing craw;
#X obj 1484 192 adc~ 1 2;
#X obj 1193 294 Creepy;
#X obj 1632 138 delay 10000;
#X obj 1640 219 bng 15 250 50 0 empty empty empty 17 7 0 10 #fcfcfc
#000000 #000000;
#X floatatom 377 753 0 0 0 0 - - - 0;
#X obj 274 781 else/pan2~;
#X obj 377 774 else/float2sig~ 100;
#X obj 279 821 dac~ 1 2;
#X obj 379 729 hsl 128 15 -1 1 0 0 empty empty empty -2 -8 0 10 #dcdcdc
#000000 #000000 0 1;
#X obj 377 698 line, f 11;
#X obj 380 645 bng 15 250 50 0 empty empty empty 17 7 0 10 #fcfcfc
#000000 #000000;
#X msg 377 669 -1 \, 1 6000;
#X obj 274 719 *~ 0.8;
#X msg 79 589 -1 \, 1 1000;
#X obj 79 619 line, f 9;
#X obj 79 557 bng 15 250 50 0 empty empty empty 17 7 0 10 #fcfcfc #000000
#000000;
#X obj 504 582 bng 15 250 50 0 empty empty empty 17 7 0 10 #fcfcfc
#000000 #000000;
#X obj 503 642 line, f 10;
#X msg 504 607 1 \, -1 8000;
#X obj 1248 773 dac~ 1 2 3 4;
#X obj 723 270 noise~;
#X obj 729 431 bob~, f 17;
#X floatatom 845 393 5 0 0 0 - - - 0;
#X obj 827 321 metro 300;
#X obj 823 135 tgl 15 0 empty empty empty 0 -6 0 8 #dcdcdc #000000
#000000 0 1;
#X obj 827 354 Cyclone/drunk 4 0, f 24;
#X obj 782 321 ramp;
#X obj 778 258 metro 5000;
#X obj 718 167 noise~;
#X obj 716 215 cyclone/scale~ -1 1 900 2000;
#X obj 787 396 *~;
#X msg 781 290 5000 3500 0.5 5000;
#X obj 822 169 t b b;
#X obj 732 494 else/pan2~;
#X obj 844 539 hsl 128 15 -1 1 0 0 empty empty empty -2 -8 0 10 #dcdcdc
#000000 #000000 0 1;
#X floatatom 841 560 0 0 0 0 - - - 0;
#X obj 841 581 else/float2sig~ 100;
#X obj 874 472 line, f 11;
#X obj 737 619 dac~ 1 2;
#X obj 731 463 *~ 0.1;
#X obj 874 508 sin;
#X msg 874 443 0 \, 6.28319 10000;
#X obj 898 413 metro 10000;
#X obj 898 391 tgl 15 0 empty empty empty 17 7 0 10 #fcfcfc #000000
#000000 0 1;
#X text 360 360 Change the Caw Caw rythm;
#X connect 0 0 71 0;
#X connect 1 0 0 0;
#X connect 1 0 17 0;
#X connect 1 0 25 0;
#X connect 2 0 0 0;
#X connect 3 0 44 0;
#X connect 4 0 3 0;
#X connect 5 0 6 0;
#X connect 5 1 8 0;
#X connect 5 2 7 0;
#X connect 6 0 10 0;
#X connect 7 0 21 0;
#X connect 8 0 20 0;
#X connect 9 0 16 0;
#X connect 10 0 1 0;
#X connect 10 1 26 0;
#X connect 11 0 4 0;
#X connect 11 1 30 0;
#X connect 12 0 11 0;
#X connect 14 0 22 0;
#X connect 14 0 69 0;
#X connect 15 0 24 0;
#X connect 15 0 74 0;
#X connect 16 0 19 0;
#X connect 17 0 71 0;
#X connect 19 0 5 0;
#X connect 20 0 10 0;
#X connect 21 0 10 0;
#X connect 22 0 17 0;
#X connect 23 0 9 0;
#X connect 24 0 25 0;
#X connect 25 0 71 0;
#X connect 26 0 18 0;
#X connect 26 0 27 0;
#X connect 27 0 15 0;
#X connect 27 1 14 0;
#X connect 27 2 28 0;
#X connect 28 0 2 0;
#X connect 28 0 75 0;
#X connect 30 0 3 0;
#X connect 31 0 9 0;
#X connect 31 0 12 0;
#X connect 31 0 34 0;
#X connect 31 0 55 0;
#X connect 31 0 61 0;
#X connect 31 0 40 0;
#X connect 31 0 60 0;
#X connect 31 0 60 1;
#X connect 31 0 83 0;
#X connect 31 0 102 0;
#X connect 32 0 31 0;
#X connect 33 0 35 0;
#X connect 33 0 37 0;
#X connect 34 0 35 2;
#X connect 35 0 36 0;
#X connect 36 0 43 0;
#X connect 36 0 23 0;
#X connect 36 0 56 0;
#X connect 36 0 60 2;
#X connect 38 0 41 0;
#X connect 39 0 38 1;
#X connect 40 0 39 0;
#X connect 41 0 42 0;
#X connect 41 0 35 1;
#X connect 42 0 39 0;
#X connect 44 0 78 0;
#X connect 44 0 78 1;
#X connect 44 0 78 2;
#X connect 44 0 78 3;
#X connect 50 0 51 0;
#X connect 51 0 44 1;
#X connect 51 0 71 1;
#X connect 51 0 98 1;
#X connect 53 0 54 0;
#X connect 54 0 44 1;
#X connect 54 0 71 1;
#X connect 54 0 98 1;
#X connect 55 0 53 0;
#X connect 56 0 50 0;
#X connect 59 0 33 0;
#X connect 60 0 78 0;
#X connect 60 0 78 1;
#X connect 60 0 78 2;
#X connect 60 0 78 3;
#X connect 61 0 62 0;
#X connect 62 0 38 0;
#X connect 63 0 65 0;
#X connect 64 0 66 0;
#X connect 64 1 66 1;
#X connect 65 0 64 1;
#X connect 67 0 63 0;
#X connect 68 0 67 0;
#X connect 69 0 70 0;
#X connect 70 0 68 0;
#X connect 71 0 64 0;
#X connect 72 0 73 0;
#X connect 73 0 67 0;
#X connect 74 0 72 0;
#X connect 75 0 77 0;
#X connect 76 0 67 0;
#X connect 77 0 76 0;
#X connect 79 0 80 0;
#X connect 80 0 98 0;
#X connect 81 0 80 2;
#X connect 82 0 84 0;
#X connect 83 0 91 0;
#X connect 84 0 81 0;
#X connect 85 0 89 1;
#X connect 86 0 90 0;
#X connect 87 0 88 0;
#X connect 88 0 89 0;
#X connect 89 0 80 1;
#X connect 90 0 85 0;
#X connect 91 0 82 0;
#X connect 91 1 86 0;
#X connect 92 0 97 0;
#X connect 92 1 97 1;
#X connect 93 0 94 0;
#X connect 94 0 95 0;
#X connect 95 0 92 1;
#X connect 96 0 99 0;
#X connect 98 0 92 0;
#X connect 99 0 93 0;
#X connect 100 0 96 0;
#X connect 101 0 100 0;
#X connect 102 0 101 0;
