#N canvas 0 25 1440 847 12;
#X obj 713 307 noise~;
#X obj 583 592 readsf~;
#X msg 257 421 1;
#X obj 863 372 bob~;
#X floatatom 1077 275 5 0 0 0 - - - 0;
#X obj 1082 175 metro 300;
#X obj 873 117 tgl 15 0 empty empty empty 0 -6 0 8 #dcdcdc #000000
#000000 0 1;
#X obj 1090 222 Cyclone/drunk 4 0, f 24;
#X obj 876 241 line;
#X floatatom 876 265 5 0 0 0 - - - 0;
#X obj 867 470 *~ 0.5;
#X msg 634 486 open crow_caw2.wav;
#X obj 1093 589 readsf~;
#X msg 1074 510 1;
#X obj 321 220 select 0 1 2;
#X obj 287 254 bng 15 250 50 0 empty empty empty 17 7 0 10 #fcfcfc
#000000 #000000;
#X obj 374 253 bng 15 250 50 0 empty empty empty 17 7 0 10 #fcfcfc
#000000 #000000;
#X obj 338 252 bng 15 250 50 0 empty empty empty 17 7 0 10 #fcfcfc
#000000 #000000;
#X obj 412 99 tgl 15 0 empty empty empty 17 7 0 10 #fcfcfc #000000
#000000 0 1;
#X obj 384 342 t b b;
#X obj 1188 782 readsf~;
#X msg 1210 719 1;
#X obj 1386 700 t b b;
#X obj 1173 469 t b b;
#X msg 1362 779 open girl_laughing_50sec.wav;
#X obj 1382 633 bng 15 250 50 0 empty empty empty 17 7 0 10 #fcfcfc
#000000 #000000;
#X obj 751 875 dac~ 1 2 2 1;
#X obj 1057 797 *~ 5;
#X obj 876 193 metro 10000;
#X msg 871 219 1000 \, 1200 10000;
#X obj 694 620 *~ 0.5;
#X obj 1166 400 bng 15 250 50 0 empty empty empty 17 7 0 10 #fcfcfc
#000000 #000000;
#X text 1196 394 Gets banged in beginning because sounds lasts 2min
;
#X obj 1028 643 *~ 1.5;
#X text 886 868 Still need to add the surround sound part;
#X obj 486 438 bng 15 250 50 0 empty empty empty 17 7 0 10 #fcfcfc
#000000 #000000;
#X obj 451 440 bng 15 250 50 0 empty empty empty 17 7 0 10 #fcfcfc
#000000 #000000;
#X obj 387 150 metro 10000;
#X obj 470 593 readsf~;
#X floatatom 613 380 5 0 0 0 - - - 0;
#X obj 360 188 random 3;
#X obj 342 282 delay 1000;
#X obj 447 281 delay 3000;
#X msg 479 487 open crow_caw4.wav;
#X obj 610 655 *~ 2;
#X msg 1350 610 0;
#X text 1419 646 This one could be added by a treshold and made like
surrounded (maybe the crow can surround too). If the girl starts \,
the crows stop.;
#X msg 333 486 open crow_caw3.wav;
#X obj 384 596 readsf~;
#X obj 449 368 random 3;
#X obj 449 404 select 0 1 2;
#X obj 517 437 bng 15 250 50 0 empty empty empty 17 7 0 10 #fcfcfc
#000000 #000000;
#X obj 527 729 *~ 5;
#X text 107 835 Construction above: to kind of randomize when the crow
craws. We have one that craws a lot \, one that craws twice loudly
and one that craws twice a bit softer.;
#X text 132 253 Trying to make the timing feel random;
#X msg 1177 506 open Rustling.wav;
#X obj 877 67 bng 15 250 50 0 empty empty empty 17 7 0 10 #fcfcfc #000000
#000000;
#X obj 875 24 inlet;
#X text 32 93 Celine's comment : - One of the crows is I believe too
loud for the rest - The wind is also too loud and maybe to present
\, something more lowkey would probably work better. - The wind sounds
like i"m on the highway ahaha;
#X connect 0 0 3 0;
#X connect 1 0 30 0;
#X connect 2 0 1 0;
#X connect 2 0 38 0;
#X connect 2 0 48 0;
#X connect 3 0 10 0;
#X connect 4 0 3 2;
#X connect 5 0 7 0;
#X connect 6 0 5 0;
#X connect 6 0 28 0;
#X connect 7 0 4 0;
#X connect 8 0 9 0;
#X connect 9 0 3 1;
#X connect 10 0 26 0;
#X connect 10 0 26 1;
#X connect 11 0 1 0;
#X connect 12 0 33 0;
#X connect 13 0 12 0;
#X connect 14 0 15 0;
#X connect 14 1 17 0;
#X connect 14 2 16 0;
#X connect 15 0 19 0;
#X connect 16 0 42 0;
#X connect 17 0 41 0;
#X connect 18 0 37 0;
#X connect 19 0 2 0;
#X connect 19 1 49 0;
#X connect 20 0 27 0;
#X connect 21 0 20 0;
#X connect 22 0 21 0;
#X connect 22 1 24 0;
#X connect 23 0 13 0;
#X connect 23 1 55 0;
#X connect 24 0 20 0;
#X connect 24 0 45 0;
#X connect 25 0 22 0;
#X connect 27 0 26 0;
#X connect 27 0 26 1;
#X connect 28 0 29 0;
#X connect 29 0 8 0;
#X connect 30 0 26 0;
#X connect 30 0 26 1;
#X connect 31 0 23 0;
#X connect 33 0 26 0;
#X connect 33 0 26 1;
#X connect 35 0 43 0;
#X connect 36 0 47 0;
#X connect 37 0 40 0;
#X connect 38 0 44 0;
#X connect 40 0 14 0;
#X connect 41 0 19 0;
#X connect 42 0 19 0;
#X connect 43 0 38 0;
#X connect 44 0 26 1;
#X connect 44 0 26 0;
#X connect 45 0 18 0;
#X connect 47 0 48 0;
#X connect 48 0 52 0;
#X connect 49 0 39 0;
#X connect 49 0 50 0;
#X connect 50 0 36 0;
#X connect 50 1 35 0;
#X connect 50 2 51 0;
#X connect 51 0 11 0;
#X connect 52 0 26 0;
#X connect 52 0 26 1;
#X connect 55 0 12 0;
#X connect 56 0 6 0;
#X connect 56 0 18 0;
#X connect 56 0 31 0;
#X connect 57 0 56 0;
