#N canvas 0 25 1440 847 12;
#X obj 406 191 noise~;
#X obj 355 595 readsf~;
#X msg 29 424 1;
#X obj 494 306 bob~;
#X floatatom 608 238 5 0 0 0 - - - 0;
#X obj 613 138 metro 300;
#X obj 481 119 tgl 15 0 empty empty empty 0 -6 0 8 #dcdcdc #000000
#000000 0 1;
#X obj 621 185 Cyclone/drunk 4 0, f 24;
#X obj 483 206 line;
#X floatatom 483 230 5 0 0 0 - - - 0;
#X msg 402 477 open crow_caw2.wav;
#X obj 588 452 readsf~;
#X msg 587 398 1;
#X obj 93 223 select 0 1 2;
#X obj 59 257 bng 15 250 50 0 empty empty empty 17 7 0 10 #fcfcfc #000000
#000000;
#X obj 146 256 bng 15 250 50 0 empty empty empty 17 7 0 10 #fcfcfc
#000000 #000000;
#X obj 110 255 bng 15 250 50 0 empty empty empty 17 7 0 10 #fcfcfc
#000000 #000000;
#X obj 184 102 tgl 15 0 empty empty empty 17 7 0 10 #fcfcfc #000000
#000000 0 1;
#X obj 156 345 t b b;
#X obj 655 319 t b b;
#X obj 483 158 metro 10000;
#X msg 481 184 1000 \, 1200 10000;
#X obj 644 287 bng 15 250 50 0 empty empty empty 17 7 0 10 #fcfcfc
#000000 #000000;
#X obj 258 441 bng 15 250 50 0 empty empty empty 17 7 0 10 #fcfcfc
#000000 #000000;
#X obj 223 443 bng 15 250 50 0 empty empty empty 17 7 0 10 #fcfcfc
#000000 #000000;
#X obj 159 153 metro 10000;
#X obj 242 596 readsf~;
#X floatatom 385 383 5 0 0 0 - - - 0;
#X obj 132 191 random 3;
#X obj 114 285 delay 1000;
#X obj 219 284 delay 3000;
#X msg 251 490 open crow_caw4.wav;
#X msg 105 489 open crow_caw3.wav;
#X obj 156 599 readsf~;
#X obj 221 371 random 3;
#X obj 221 407 select 0 1 2;
#X obj 289 440 bng 15 250 50 0 empty empty empty 17 7 0 10 #fcfcfc
#000000 #000000;
#X msg 661 394 open Rustling.wav;
#X obj 485 69 bng 15 250 50 0 empty empty empty 17 7 0 10 #fcfcfc #000000
#000000;
#X obj 483 26 inlet;
#X obj 1019 300 hsl 128 15 0 1 0 0 empty empty empty -2 -8 0 10 #fcfcfc
#000000 #000000 0 1;
#X floatatom 1110 239 5 0 0 0 - - - 0;
#X obj 943 152 readsf~;
#X msg 943 126 1;
#X obj 943 101 t b b;
#X obj 943 81 bng 15 250 50 0 empty empty empty 17 7 0 10 #fcfcfc #000000
#000000;
#X obj 998 176 bng 15 250 50 0 empty empty empty 17 7 0 10 #fcfcfc
#000000 #000000;
#X obj 1194 489 throw~ speaker3;
#X obj 1111 516 throw~ speaker2;
#X obj 1028 543 throw~ speaker1;
#X obj 945 570 throw~ speaker0;
#X obj 957 406 throw~ to_reverb;
#X text 1067 186 angle in degrees;
#X text 1150 215 distance from center 0.1 .. 10;
#X obj 945 463 pan4_with_center_and_distance_polar~;
#X text 964 79 play;
#X obj 998 198 spigot;
#X obj 1037 174 tgl 15 0 empty empty empty 17 7 0 10 #fcfcfc #000000
#000000 0 1;
#X text 1057 173 loop;
#X obj 1111 435 sig~;
#X obj 1146 409 *~ 360;
#X obj 1146 379 phasor~ 1;
#X obj 1188 272 cyclone/pink~;
#X obj 1188 296 *~ 0.2;
#X floatatom 1168 333 5 0 0 0 - - - 0;
#X obj 944 962 4ch_output_section;
#X floatatom 999 671 0 0 120 0 - - - 0;
#X text 1027 673 level \, dB;
#X floatatom 1026 696 0 0 100 0 - - - 0;
#X text 1052 696 liveness \, 0-100;
#X floatatom 1053 722 4 0 5000 0 - - - 0;
#X floatatom 1082 745 0 0 100 0 - - - 0;
#X text 1086 720 crossover frequency \, Hz.;
#X text 1110 747 HF damping \, percent;
#X obj 945 773 rev3~ 100 90 3000 20;
#X text 1176 775 4 channel reverb;
#X obj 1082 809 throw~ speaker3;
#X obj 1036 836 throw~ speaker2;
#X obj 990 863 throw~ speaker1;
#X obj 945 890 throw~ speaker0;
#X obj 945 639 catch~ to_reverb;
#X text 940 926 the [throw~ speaker 0..3] objects are catched by the
[4ch_output_section] abstraction;
#X msg 975 126 open girl_laughing_50sec.wav;
#X obj 945 362 *~ 0.3;
#X obj 154 640 *~ 0.2;
#X obj 383 650 *~ 0.2;
#X obj 462 620 *~ 0.2;
#X obj 946 289 *~ 0.5;
#X obj 629 840 throw~ speaker3;
#X obj 547 862 throw~ speaker2;
#X obj 461 893 throw~ speaker1;
#X obj 381 926 throw~ speaker0;
#X obj 380 815 pan4_with_center_and_distance_polar~;
#X obj 549 668 *~ 360;
#X obj 549 638 phasor~ 1;
#X floatatom 571 592 5 0 0 0 - - - 0;
#X obj 546 767 sig~;
#X obj 391 728 throw~ to_reverb;
#X obj 945 737 *~ 0.3;
#X obj 778 657 f;
#X floatatom 778 698 5 0 0 0 - - - 0;
#X obj 825 657 + 1;
#X obj 862 655 mod 10;
#X obj 778 589 metro 1000;
#X obj 778 559 bng 15 250 50 0 empty empty empty 17 7 0 10 #fcfcfc
#000000 #000000;
#X obj 803 626 bng 15 250 50 0 empty empty empty 17 7 0 10 #fcfcfc
#000000 #000000;
#X obj 384 702 *~ 0.1;
#X msg 1268 345 10;
#X msg 1011 250 2;
#X obj 494 336 *~ 0.1;
#X obj 588 492 *~ 0.2;
#X connect 0 0 3 0;
#X connect 1 0 86 0;
#X connect 2 0 1 0;
#X connect 2 0 26 0;
#X connect 2 0 33 0;
#X connect 3 0 109 0;
#X connect 4 0 3 2;
#X connect 5 0 7 0;
#X connect 6 0 5 0;
#X connect 6 0 20 0;
#X connect 7 0 4 0;
#X connect 8 0 9 0;
#X connect 9 0 3 1;
#X connect 10 0 1 0;
#X connect 11 0 110 0;
#X connect 12 0 11 0;
#X connect 13 0 14 0;
#X connect 13 1 16 0;
#X connect 13 2 15 0;
#X connect 14 0 18 0;
#X connect 15 0 30 0;
#X connect 16 0 29 0;
#X connect 17 0 25 0;
#X connect 18 0 2 0;
#X connect 18 1 34 0;
#X connect 19 0 12 0;
#X connect 19 1 37 0;
#X connect 20 0 21 0;
#X connect 21 0 8 0;
#X connect 22 0 19 0;
#X connect 23 0 31 0;
#X connect 24 0 32 0;
#X connect 25 0 28 0;
#X connect 26 0 85 0;
#X connect 28 0 13 0;
#X connect 29 0 18 0;
#X connect 30 0 18 0;
#X connect 31 0 26 0;
#X connect 32 0 33 0;
#X connect 33 0 84 0;
#X connect 34 0 27 0;
#X connect 34 0 35 0;
#X connect 35 0 24 0;
#X connect 35 1 23 0;
#X connect 35 2 36 0;
#X connect 36 0 10 0;
#X connect 37 0 11 0;
#X connect 38 0 6 0;
#X connect 38 0 17 0;
#X connect 38 0 22 0;
#X connect 39 0 38 0;
#X connect 40 0 87 1;
#X connect 41 0 59 0;
#X connect 42 1 46 0;
#X connect 43 0 42 0;
#X connect 44 0 43 0;
#X connect 44 1 82 0;
#X connect 45 0 44 0;
#X connect 46 0 56 0;
#X connect 54 0 50 0;
#X connect 54 1 49 0;
#X connect 54 2 48 0;
#X connect 54 3 47 0;
#X connect 56 0 45 0;
#X connect 57 0 56 1;
#X connect 59 0 54 2;
#X connect 60 0 54 1;
#X connect 61 0 60 0;
#X connect 62 0 63 0;
#X connect 64 0 61 0;
#X connect 66 0 74 2;
#X connect 68 0 74 3;
#X connect 70 0 74 4;
#X connect 71 0 74 5;
#X connect 74 0 79 0;
#X connect 74 1 78 0;
#X connect 74 2 77 0;
#X connect 74 3 76 0;
#X connect 80 0 98 0;
#X connect 82 0 42 0;
#X connect 83 0 51 0;
#X connect 83 0 54 0;
#X connect 84 0 106 0;
#X connect 85 0 106 0;
#X connect 86 0 106 0;
#X connect 87 0 83 0;
#X connect 92 0 91 0;
#X connect 92 1 90 0;
#X connect 92 2 89 0;
#X connect 92 3 88 0;
#X connect 93 0 92 1;
#X connect 94 0 93 0;
#X connect 95 0 94 0;
#X connect 96 0 92 2;
#X connect 98 0 74 0;
#X connect 99 0 100 0;
#X connect 99 0 101 0;
#X connect 100 0 96 0;
#X connect 101 0 102 0;
#X connect 102 0 99 1;
#X connect 103 0 99 0;
#X connect 103 0 105 0;
#X connect 104 0 103 0;
#X connect 106 0 97 0;
#X connect 107 0 64 0;
#X connect 108 0 41 0;
#X connect 110 0 92 0;
