#N canvas 0 25 1920 976 12;
#X obj 344 530 readsf~;
#X msg 54 428 1;
#X obj 1082 687 readsf~;
#X msg 1081 647 1;
#X obj 135 176 select 0 1 2;
#X obj 103 213 bng 15 250 50 0 empty empty empty 17 7 0 10 #fcfcfc
#000000 #000000;
#X obj 262 207 bng 15 250 50 0 empty empty empty 17 7 0 10 #fcfcfc
#000000 #000000;
#X obj 158 212 bng 15 250 50 0 empty empty empty 17 7 0 10 #fcfcfc
#000000 #000000;
#X obj 134 95 tgl 15 0 empty empty empty 17 7 0 10 #fcfcfc #000000
#000000 0 1;
#X obj 1085 607 t b b;
#X obj 241 528 readsf~;
#X obj 135 147 random 3;
#X obj 158 241 delay 1000;
#X msg 1593 657 0;
#X obj 124 529 readsf~;
#X obj 210 321 random 3;
#X obj 210 354 select 0 1 2;
#X msg 1115 648 open Rustling.wav;
#X obj 751 42 bng 15 250 50 0 empty empty empty 17 7 0 10 #fcfcfc #000000
#000000;
#X obj 751 15 inlet;
#X obj 1598 312 env~;
#X msg 1716 374 70, f 7;
#X obj 1623 632 bng 15 250 50 0 empty empty empty 17 7 0 10 #fcfcfc
#000000 #000000;
#X floatatom 1541 329 5 0 0 0 - - - 0;
#X obj 1624 675 laughing_girl;
#X obj 1453 677 line;
#X floatatom 1453 701 5 0 0 0 - - - 0;
#X msg 1453 653 0.1 \, 0 3000;
#X obj 1661 253 bng 15 250 50 0 empty empty empty 17 7 0 10 #fcfcfc
#000000 #000000;
#X floatatom 292 770 0 0 0 0 - - - 0;
#X obj 185 754 else/pan2~;
#X obj 292 791 else/float2sig~ 100;
#X obj 294 746 hsl 128 15 -1 1 0 0 empty empty empty -2 -8 0 10 #dcdcdc
#000000 #000000 0 1;
#X obj 361 713 line, f 11;
#X msg 361 684 -1 \, 1 6000;
#X msg 18 530 -1 \, 1 1000;
#X obj 18 560 line, f 9;
#X obj 414 563 line, f 10;
#X msg 414 531 1 \, -1 8000;
#X obj 1063 826 dac~ 1 2 3 4;
#X obj 661 349 noise~;
#X obj 667 510 bob~, f 17;
#X floatatom 783 472 5 0 0 0 - - - 0;
#X obj 765 400 metro 300;
#X obj 761 214 tgl 15 0 empty empty empty 0 -6 0 8 #dcdcdc #000000
#000000 0 1;
#X obj 765 433 Cyclone/drunk 4 0, f 24;
#X obj 720 400 ramp;
#X obj 716 337 metro 5000;
#X obj 656 246 noise~;
#X obj 654 294 cyclone/scale~ -1 1 900 2000;
#X obj 725 475 *~;
#X msg 719 369 5000 3500 0.5 5000;
#X obj 760 248 t b b;
#X obj 670 573 else/pan2~;
#X obj 782 646 hsl 128 15 -1 1 0 0 empty empty empty -2 -8 0 10 #dcdcdc
#000000 #000000 0 1;
#X floatatom 779 667 0 0 0 0 - - - 0;
#X obj 779 688 else/float2sig~ 100;
#X obj 812 579 line, f 11;
#X obj 671 669 dac~ 1 2;
#X obj 812 615 sin;
#X msg 812 550 0 \, 6.28319 10000;
#X obj 836 520 metro 10000;
#X obj 836 498 tgl 15 0 empty empty empty 17 7 0 10 #fcfcfc #000000
#000000 0 1;
#X text 102 26 Change the Caw Caw rythm;
#X obj 247 648 FadeIn;
#X obj 263 240 delay 3000;
#X obj 135 118 metro 8000;
#X obj 1084 722 *~ 0.1;
#X obj 185 676 *~ 1;
#X msg 836 472 1;
#X obj 1086 766 *~ 0.2;
#X obj 669 542 *~ 0.07;
#X obj 164 385 t b b b;
#X obj 237 386 t b b b;
#X obj 301 386 t b b b;
#X msg 55 458 1;
#X msg 56 488 1;
#X msg 1562 116 open Hello_kid.wav;
#X msg 1510 115 1;
#X obj 1550 156 readsf~;
#X obj 1614 220 delay 1000;
#X obj 1526 72 t b b b;
#X obj 1467 208 *~ 1;
#X obj 241 565 *~ 0.7;
#X obj 343 559 *~ 0.5;
#X obj 1613 421 delay_threshold;
#X obj 1524 37 delay 20000;
#X obj 1467 252 throw~ to_reverb;
#X obj 1229 372 *~ 1;
#X obj 1199 410 dac~ 1 2 3 4;
#X obj 125 563 *~ 1.2;
#X obj 1196 338 *~ 0.03;
#X obj 1251 338 *~ 0.03;
#X msg 1279 125 1;
#X obj 1301 153 readsf~;
#X obj 1305 92 t b b;
#X obj 1299 220 dac~ 1 2 3 4;
#X obj 1304 62 delay 8000;
#X msg 1331 126 open Ghost.wav;
#X obj 1301 177 *~ 0.05;
#X obj 690 710 dac~ 3 4;
#X obj 190 794 dac~ 1 3;
#X obj 583 400 FadeIn;
#X obj 1022 760 FadeIn;
#X obj 1195 310 Osc1;
#X obj 1251 311 Osc2;
#X msg 246 449 open crow_caw3.wav;
#X msg 123 477 open crow_caw2.wav;
#X msg 348 479 open crow_caw1.wav;
#X obj 1719 343 loadbang;
#X obj 869 472 loadbang;
#X text 36 294 This is the part where crow caws are randomly selected.
;
#X text 633 733 Wind goes back and forth between speakers;
#X text 1597 68 After 20 seconds you hear "hello" and after another
second the threshold is activated;
#X obj 1598 271 adc~ 1 2;
#X connect 0 0 84 0;
#X connect 1 0 14 0;
#X connect 2 0 67 0;
#X connect 3 0 2 0;
#X connect 4 0 5 0;
#X connect 4 1 7 0;
#X connect 4 2 6 0;
#X connect 5 0 15 0;
#X connect 6 0 65 0;
#X connect 7 0 12 0;
#X connect 8 0 66 0;
#X connect 9 0 3 0;
#X connect 9 1 17 0;
#X connect 10 0 83 0;
#X connect 11 0 4 0;
#X connect 12 0 15 0;
#X connect 13 0 8 0;
#X connect 14 0 90 0;
#X connect 15 0 16 0;
#X connect 16 0 72 0;
#X connect 16 1 73 0;
#X connect 16 2 74 0;
#X connect 17 0 2 0;
#X connect 18 0 8 0;
#X connect 18 0 44 0;
#X connect 18 0 86 0;
#X connect 18 0 97 0;
#X connect 18 0 64 0;
#X connect 18 0 102 0;
#X connect 18 0 103 0;
#X connect 18 0 104 0;
#X connect 18 0 104 1;
#X connect 18 0 105 0;
#X connect 18 0 9 0;
#X connect 19 0 18 0;
#X connect 20 0 23 0;
#X connect 20 0 85 0;
#X connect 21 0 85 2;
#X connect 22 0 24 0;
#X connect 22 0 13 0;
#X connect 22 0 27 0;
#X connect 22 0 104 2;
#X connect 22 0 105 1;
#X connect 25 0 26 0;
#X connect 26 0 68 1;
#X connect 26 0 70 1;
#X connect 26 0 71 1;
#X connect 27 0 25 0;
#X connect 28 0 85 1;
#X connect 29 0 31 0;
#X connect 30 0 101 0;
#X connect 30 1 101 1;
#X connect 31 0 30 1;
#X connect 32 0 29 0;
#X connect 33 0 32 0;
#X connect 34 0 33 0;
#X connect 35 0 36 0;
#X connect 36 0 32 0;
#X connect 37 0 32 0;
#X connect 38 0 37 0;
#X connect 40 0 41 0;
#X connect 41 0 71 0;
#X connect 42 0 41 2;
#X connect 43 0 45 0;
#X connect 44 0 52 0;
#X connect 45 0 42 0;
#X connect 46 0 50 1;
#X connect 47 0 51 0;
#X connect 48 0 49 0;
#X connect 49 0 50 0;
#X connect 50 0 41 1;
#X connect 51 0 46 0;
#X connect 52 0 43 0;
#X connect 52 1 47 0;
#X connect 53 0 58 0;
#X connect 53 0 58 1;
#X connect 53 1 100 0;
#X connect 53 1 100 1;
#X connect 54 0 55 0;
#X connect 55 0 56 0;
#X connect 56 0 53 1;
#X connect 57 0 59 0;
#X connect 59 0 54 0;
#X connect 60 0 57 0;
#X connect 61 0 60 0;
#X connect 62 0 61 0;
#X connect 64 0 68 1;
#X connect 65 0 15 0;
#X connect 66 0 11 0;
#X connect 67 0 70 0;
#X connect 68 0 30 0;
#X connect 69 0 62 0;
#X connect 70 0 39 0;
#X connect 70 0 39 1;
#X connect 70 0 39 2;
#X connect 70 0 39 3;
#X connect 71 0 53 0;
#X connect 72 0 1 0;
#X connect 72 1 35 0;
#X connect 72 2 107 0;
#X connect 73 0 75 0;
#X connect 73 1 34 0;
#X connect 73 2 106 0;
#X connect 74 0 76 0;
#X connect 74 1 38 0;
#X connect 74 2 108 0;
#X connect 75 0 10 0;
#X connect 76 0 0 0;
#X connect 77 0 79 0;
#X connect 78 0 79 0;
#X connect 79 0 82 0;
#X connect 80 0 28 0;
#X connect 81 0 80 0;
#X connect 81 1 78 0;
#X connect 81 2 77 0;
#X connect 82 0 70 0;
#X connect 82 0 87 0;
#X connect 83 0 68 0;
#X connect 84 0 68 0;
#X connect 85 0 22 0;
#X connect 86 0 81 0;
#X connect 88 0 89 0;
#X connect 88 0 89 1;
#X connect 88 0 89 2;
#X connect 88 0 89 3;
#X connect 90 0 68 0;
#X connect 91 0 88 0;
#X connect 92 0 88 0;
#X connect 93 0 94 0;
#X connect 94 0 99 0;
#X connect 95 0 93 0;
#X connect 95 1 98 0;
#X connect 97 0 95 0;
#X connect 98 0 94 0;
#X connect 99 0 96 0;
#X connect 99 0 96 1;
#X connect 99 0 96 2;
#X connect 99 0 96 3;
#X connect 102 0 41 0;
#X connect 103 0 70 0;
#X connect 104 0 91 0;
#X connect 105 0 92 0;
#X connect 106 0 10 0;
#X connect 107 0 14 0;
#X connect 108 0 0 0;
#X connect 109 0 21 0;
#X connect 110 0 69 0;
#X connect 114 0 20 0;
#X connect 114 1 20 0;
