#N canvas 0 25 1440 847 12;
#X obj 373 591 readsf~;
#X msg 44 428 1;
#X msg 338 479 open crow_caw2.wav;
#X obj 1082 514 readsf~;
#X msg 1081 474 1;
#X obj 135 176 select 0 1 2;
#X obj 103 213 bng 15 250 50 0 empty empty empty 17 7 0 10 #fcfcfc
#000000 #000000;
#X obj 262 207 bng 15 250 50 0 empty empty empty 17 7 0 10 #fcfcfc
#000000 #000000;
#X obj 158 212 bng 15 250 50 0 empty empty empty 17 7 0 10 #fcfcfc
#000000 #000000;
#X obj 134 95 tgl 15 0 empty empty empty 17 7 0 10 #fcfcfc #000000
#000000 0 1;
#X obj 1085 434 t b b;
#X obj 1084 404 bng 15 250 50 0 empty empty empty 17 7 0 10 #fcfcfc
#000000 #000000;
#X text 886 868 Still need to add the surround sound part;
#X obj 284 584 readsf~;
#X obj 135 147 random 3;
#X obj 158 241 delay 1000;
#X msg 236 449 open crow_caw4.wav;
#X msg 1591 514 0;
#X msg 113 477 open crow_caw3.wav;
#X obj 171 584 readsf~;
#X obj 200 321 random 3;
#X obj 200 354 select 0 1 2;
#X msg 1127 475 open Rustling.wav;
#X obj 751 42 bng 15 250 50 0 empty empty empty 17 7 0 10 #fcfcfc #000000
#000000;
#X obj 751 15 inlet;
#X obj 1665 328 env~;
#X msg 1771 394 70, f 7;
#X obj 1678 576 bng 15 250 50 0 empty empty empty 17 7 0 10 #fcfcfc
#000000 #000000;
#X floatatom 1598 345 5 0 0 0 - - - 0;
#X obj 1679 619 laughing_girl;
#X text 657 870 Normal voice - 60-70;
#X text 657 898 Louder 75-80;
#X text 659 929 Screaming 90;
#X text 657 832 Heavy breathing 50;
#X text 617 795 No mic - 20-30-35;
#X obj 1507 596 line;
#X floatatom 1507 620 5 0 0 0 - - - 0;
#X text 1525 684 Stop the metro so we get no new crows;
#X obj 571 140 line;
#X floatatom 451 194 6 0 0 0 - - - 0;
#X msg 437 105 0 \, 0.1 3000;
#X msg 1507 572 0.1 \, 0 3000;
#X text 1483 765 Fade-in of wind+rustling + a cawing craw;
#X text 1587 651 Fade out of wind+rustling + a cawing craw;
#X obj 1175 318 Creepy;
#X obj 1718 269 bng 15 250 50 0 empty empty empty 17 7 0 10 #fcfcfc
#000000 #000000;
#X floatatom 305 876 0 0 0 0 - - - 0;
#X obj 198 860 else/pan2~;
#X obj 305 897 else/float2sig~ 100;
#X obj 307 852 hsl 128 15 -1 1 0 0 empty empty empty -2 -8 0 10 #dcdcdc
#000000 #000000 0 1;
#X obj 302 821 line, f 11;
#X obj 302 768 bng 15 250 50 0 empty empty empty 17 7 0 10 #fcfcfc
#000000 #000000;
#X msg 302 792 -1 \, 1 6000;
#X msg 82 620 -1 \, 1 1000;
#X obj 82 650 line, f 9;
#X obj 82 593 bng 15 250 50 0 empty empty empty 17 7 0 10 #fcfcfc #000000
#000000;
#X obj 448 617 bng 15 250 50 0 empty empty empty 17 7 0 10 #fcfcfc
#000000 #000000;
#X obj 448 674 line, f 10;
#X msg 448 642 1 \, -1 8000;
#X obj 1126 752 dac~ 1 2 3 4;
#X obj 603 300 noise~;
#X obj 609 461 bob~, f 17;
#X floatatom 725 423 5 0 0 0 - - - 0;
#X obj 707 351 metro 300;
#X obj 703 165 tgl 15 0 empty empty empty 0 -6 0 8 #dcdcdc #000000
#000000 0 1;
#X obj 707 384 Cyclone/drunk 4 0, f 24;
#X obj 662 351 ramp;
#X obj 658 288 metro 5000;
#X obj 598 197 noise~;
#X obj 596 245 cyclone/scale~ -1 1 900 2000;
#X obj 667 426 *~;
#X msg 661 320 5000 3500 0.5 5000;
#X obj 702 199 t b b;
#X obj 612 524 else/pan2~;
#X obj 724 569 hsl 128 15 -1 1 0 0 empty empty empty -2 -8 0 10 #dcdcdc
#000000 #000000 0 1;
#X floatatom 721 590 0 0 0 0 - - - 0;
#X obj 721 611 else/float2sig~ 100;
#X obj 754 502 line, f 11;
#X obj 617 649 dac~ 1 2;
#X obj 754 538 sin;
#X msg 754 473 0 \, 6.28319 10000;
#X obj 778 443 metro 10000;
#X obj 778 421 tgl 15 0 empty empty empty 17 7 0 10 #fcfcfc #000000
#000000 0 1;
#X text 102 26 Change the Caw Caw rythm;
#X obj 311 730 FadeIn;
#X obj 263 240 delay 3000;
#X obj 135 118 metro 8000;
#X obj 1084 549 *~ 0.1;
#X obj 198 782 *~ 1;
#X msg 799 357 1;
#X obj 1149 692 *~ 0.2;
#X obj 611 493 *~ 0.07;
#X obj 154 385 t b b b;
#X obj 227 386 t b b b;
#X obj 291 386 t b b b;
#X msg 45 458 1;
#X msg 46 488 1;
#X msg 1619 132 open Hello_kid.wav;
#X msg 1567 131 1;
#X obj 1607 172 readsf~;
#X obj 1671 236 delay 1000;
#X obj 1583 88 t b b b;
#X obj 1532 224 *~ 1;
#X obj 284 621 *~ 0.7;
#X obj 363 622 *~ 0.5;
#X obj 1670 437 delay_threshold;
#X obj 1665 287 adc~ 3;
#X obj 1160 114 time;
#X floatatom 1208 141 5 0 0 0 - - - 0;
#X obj 1514 50 delay 20000;
#X obj 1524 268 throw~ to_reverb;
#X obj 1277 316 creepy2;
#X obj 1241 380 *~ 1;
#X obj 1224 421 dac~ 1 2 3 4;
#X text 1126 345 0.03;
#X text 1213 289 needs to be lower for speakers probably;
#X obj 172 618 *~ 1.2;
#X obj 203 900 dac~ 3 4;
#X obj 1175 346 *~ 0.03;
#X obj 1277 340 *~ 0.03;
#X msg 1279 125 1;
#X obj 1301 153 readsf~;
#X obj 1305 92 t b b;
#X obj 1282 213 dac~ 1 2 3 4;
#X obj 1215 59 delay 8000;
#X msg 1331 126 open Ghost.wav;
#X obj 1301 177 *~ 0.05;
#X connect 0 0 104 0;
#X connect 1 0 19 0;
#X connect 2 0 0 0;
#X connect 3 0 87 0;
#X connect 4 0 3 0;
#X connect 5 0 6 0;
#X connect 5 1 8 0;
#X connect 5 2 7 0;
#X connect 6 0 20 0;
#X connect 7 0 85 0;
#X connect 8 0 15 0;
#X connect 9 0 86 0;
#X connect 10 0 4 0;
#X connect 10 1 22 0;
#X connect 11 0 10 0;
#X connect 13 0 103 0;
#X connect 14 0 5 0;
#X connect 15 0 20 0;
#X connect 16 0 13 0;
#X connect 17 0 9 0;
#X connect 18 0 19 0;
#X connect 19 0 116 0;
#X connect 20 0 21 0;
#X connect 21 0 92 0;
#X connect 21 1 93 0;
#X connect 21 2 94 0;
#X connect 22 0 3 0;
#X connect 23 0 9 0;
#X connect 23 0 11 0;
#X connect 23 0 26 0;
#X connect 23 0 40 0;
#X connect 23 0 64 0;
#X connect 23 0 89 0;
#X connect 23 0 107 0;
#X connect 23 0 44 0;
#X connect 23 0 109 0;
#X connect 23 0 44 1;
#X connect 23 0 111 0;
#X connect 23 0 124 0;
#X connect 24 0 23 0;
#X connect 25 0 28 0;
#X connect 25 0 105 0;
#X connect 26 0 105 2;
#X connect 27 0 29 0;
#X connect 27 0 17 0;
#X connect 27 0 41 0;
#X connect 27 0 44 2;
#X connect 27 0 111 1;
#X connect 35 0 36 0;
#X connect 36 0 88 1;
#X connect 36 0 90 1;
#X connect 36 0 91 1;
#X connect 38 0 39 0;
#X connect 39 0 90 0;
#X connect 39 0 91 0;
#X connect 40 0 38 0;
#X connect 41 0 35 0;
#X connect 44 0 118 0;
#X connect 45 0 105 1;
#X connect 46 0 48 0;
#X connect 47 0 117 0;
#X connect 47 1 117 1;
#X connect 48 0 47 1;
#X connect 49 0 46 0;
#X connect 50 0 49 0;
#X connect 51 0 52 0;
#X connect 52 0 50 0;
#X connect 53 0 54 0;
#X connect 54 0 49 0;
#X connect 55 0 53 0;
#X connect 56 0 58 0;
#X connect 57 0 49 0;
#X connect 58 0 57 0;
#X connect 60 0 61 0;
#X connect 61 0 91 0;
#X connect 62 0 61 2;
#X connect 63 0 65 0;
#X connect 64 0 72 0;
#X connect 65 0 62 0;
#X connect 66 0 70 1;
#X connect 67 0 71 0;
#X connect 68 0 69 0;
#X connect 69 0 70 0;
#X connect 70 0 61 1;
#X connect 71 0 66 0;
#X connect 72 0 63 0;
#X connect 72 1 67 0;
#X connect 73 0 78 0;
#X connect 73 1 78 1;
#X connect 74 0 75 0;
#X connect 75 0 76 0;
#X connect 76 0 73 1;
#X connect 77 0 79 0;
#X connect 79 0 74 0;
#X connect 80 0 77 0;
#X connect 81 0 80 0;
#X connect 82 0 81 0;
#X connect 84 0 88 1;
#X connect 85 0 20 0;
#X connect 86 0 14 0;
#X connect 87 0 90 0;
#X connect 88 0 47 0;
#X connect 89 0 82 0;
#X connect 90 0 59 0;
#X connect 90 0 59 1;
#X connect 90 0 59 2;
#X connect 90 0 59 3;
#X connect 91 0 73 0;
#X connect 92 0 1 0;
#X connect 92 1 55 0;
#X connect 92 2 18 0;
#X connect 93 0 95 0;
#X connect 93 1 51 0;
#X connect 93 2 16 0;
#X connect 94 0 96 0;
#X connect 94 1 56 0;
#X connect 94 2 2 0;
#X connect 95 0 13 0;
#X connect 96 0 0 0;
#X connect 97 0 99 0;
#X connect 98 0 99 0;
#X connect 99 0 102 0;
#X connect 100 0 45 0;
#X connect 101 0 100 0;
#X connect 101 1 98 0;
#X connect 101 2 97 0;
#X connect 102 0 90 0;
#X connect 102 0 110 0;
#X connect 103 0 88 0;
#X connect 104 0 88 0;
#X connect 105 0 27 0;
#X connect 106 0 25 0;
#X connect 107 0 108 0;
#X connect 109 0 101 0;
#X connect 111 0 119 0;
#X connect 112 0 113 0;
#X connect 112 0 113 1;
#X connect 112 0 113 2;
#X connect 112 0 113 3;
#X connect 116 0 88 0;
#X connect 118 0 112 0;
#X connect 119 0 112 0;
#X connect 120 0 121 0;
#X connect 121 0 126 0;
#X connect 122 0 120 0;
#X connect 122 1 125 0;
#X connect 124 0 122 0;
#X connect 125 0 121 0;
#X connect 126 0 123 0;
#X connect 126 0 123 1;
#X connect 126 0 123 2;
#X connect 126 0 123 3;
