#N canvas -1407 64 1372 847 12;
#X obj 418 215 noise~;
#X obj 355 595 readsf~;
#X msg 55 394 1;
#X obj 424 376 bob~, f 17;
#X floatatom 540 338 5 0 0 0 - - - 0;
#X obj 522 266 metro 300;
#X obj 522 120 tgl 15 0 empty empty empty 0 -6 0 8 #dcdcdc #000000
#000000 0 1;
#X obj 522 299 Cyclone/drunk 4 0, f 24;
#X msg 262 473 open crow_caw2.wav;
#X obj 732 337 readsf~;
#X msg 731 268 1;
#X obj 184 192 select 0 1 2;
#X obj 158 231 bng 15 250 50 0 empty empty empty 17 7 0 10 #fcfcfc
#000000 #000000;
#X obj 286 228 bng 15 250 50 0 empty empty empty 17 7 0 10 #fcfcfc
#000000 #000000;
#X obj 197 229 bng 15 250 50 0 empty empty empty 17 7 0 10 #fcfcfc
#000000 #000000;
#X obj 184 102 tgl 15 0 empty empty empty 17 7 0 10 #fcfcfc #000000
#000000 0 1;
#X obj 156 345 t b b;
#X obj 732 230 t b b;
#X obj 734 188 bng 15 250 50 0 empty empty empty 17 7 0 10 #fcfcfc
#000000 #000000;
#X obj 184 129 metro 10000;
#X obj 264 599 readsf~;
#X floatatom 326 399 5 0 0 0 - - - 0;
#X obj 184 160 random 3;
#X obj 197 263 delay 1000;
#X obj 287 259 delay 3000;
#X msg 261 503 open crow_caw4.wav;
#X msg 165 565 open crow_caw3.wav;
#X obj 162 601 readsf~;
#X obj 221 368 random 3;
#X obj 221 400 select 0 1 2;
#X msg 779 298 open Rustling.wav;
#X obj 461 56 bng 15 250 50 0 empty empty empty 17 7 0 10 #fcfcfc #000000
#000000;
#X obj 461 11 inlet;
#X obj 1019 300 hsl 128 15 0 1 0 0 empty empty empty -2 -8 0 10 #fcfcfc
#000000 #000000 0 1;
#X floatatom 1110 239 5 0 0 0 - - - 0;
#X obj 943 152 readsf~;
#X msg 943 126 1;
#X obj 943 101 t b b;
#X obj 943 81 bng 15 250 50 0 empty empty empty 17 7 0 10 #fcfcfc #000000
#000000;
#X obj 998 176 bng 15 250 50 0 empty empty empty 17 7 0 10 #fcfcfc
#000000 #000000;
#X obj 1194 489 throw~ speaker3;
#X obj 1111 516 throw~ speaker2;
#X obj 1028 543 throw~ speaker1;
#X obj 945 570 throw~ speaker0;
#X obj 957 406 throw~ to_reverb;
#X text 1067 186 angle in degrees;
#X text 1150 215 distance from center 0.1 .. 10;
#X obj 945 463 pan4_with_center_and_distance_polar~;
#X text 964 79 play;
#X obj 998 198 spigot;
#X obj 1037 174 tgl 15 0 empty empty empty 17 7 0 10 #fcfcfc #000000
#000000 0 1;
#X text 1057 173 loop;
#X obj 1111 435 sig~;
#X obj 1146 409 *~ 360;
#X obj 1146 379 phasor~ 1;
#X obj 1188 272 cyclone/pink~;
#X obj 1188 296 *~ 0.2;
#X floatatom 1168 333 5 0 0 0 - - - 0;
#X obj 944 962 4ch_output_section;
#X floatatom 999 671 0 0 120 0 - - - 0;
#X text 1027 673 level \, dB;
#X floatatom 1026 696 0 0 100 0 - - - 0;
#X text 1052 696 liveness \, 0-100;
#X floatatom 1053 722 4 0 5000 0 - - - 0;
#X floatatom 1082 745 0 0 100 0 - - - 0;
#X text 1086 720 crossover frequency \, Hz.;
#X text 1110 747 HF damping \, percent;
#X obj 945 773 rev3~ 100 90 3000 20;
#X text 1176 775 4 channel reverb;
#X obj 1082 809 throw~ speaker3;
#X obj 1036 836 throw~ speaker2;
#X obj 990 863 throw~ speaker1;
#X obj 945 890 throw~ speaker0;
#X obj 945 639 catch~ to_reverb;
#X text 940 926 the [throw~ speaker 0..3] objects are catched by the
[4ch_output_section] abstraction;
#X msg 975 126 open girl_laughing_50sec.wav;
#X obj 945 737 *~ 0.3;
#X msg 1268 345 10;
#X text 946 46 Girl should turn all around : in circle;
#X text 504 52 wind blowing from one side to the other - 1 to 2 for
example;
#X obj 357 637 *~ 0.8;
#X obj 265 642 *~ 0.8;
#X obj 162 642 *~ 0.9;
#X obj 269 839 hsl 128 15 -1 1 0 0 empty empty empty -2 -8 0 10 #dcdcdc
#000000 #000000 0 1;
#X floatatom 266 860 0 0 0 0 - - - 0;
#X obj 163 888 else/pan2~;
#X text 241 833 L;
#X text 401 834 R;
#X obj 266 881 else/float2sig~ 100;
#X obj 168 928 dac~ 1 2;
#X obj 267 808 line, f 11;
#X obj 270 755 bng 15 250 50 0 empty empty empty 17 7 0 10 #fcfcfc
#000000 #000000;
#X msg 267 779 -1 \, 1 6000;
#X msg 71 695 -1 \, 1 1000;
#X obj 383 673 bng 15 250 50 0 empty empty empty 17 7 0 10 #fcfcfc
#000000 #000000;
#X obj 382 733 line, f 10;
#X obj 71 725 line, f 9;
#X obj 71 663 bng 15 250 50 0 empty empty empty 17 7 0 10 #fcfcfc #000000
#000000;
#X obj 171 438 t b b;
#X obj 231 454 t b b;
#X obj 297 440 t b b;
#X msg 383 698 1 \, -1 8000;
#X obj 477 266 ramp;
#X obj 473 203 metro 5000;
#X obj 397 125 noise~;
#X obj 395 173 cyclone/scale~ -1 1 900 2000;
#X obj 482 341 *~;
#X msg 476 235 5000 3500 0.5 5000;
#X obj 521 154 t b b;
#X obj 427 439 else/pan2~;
#X obj 539 484 hsl 128 15 -1 1 0 0 empty empty empty -2 -8 0 10 #dcdcdc
#000000 #000000 0 1;
#X floatatom 536 505 0 0 0 0 - - - 0;
#X obj 536 526 else/float2sig~ 100;
#X obj 537 453 line, f 11;
#X msg 515 412 -1 \, 1 6000;
#X obj 423 478 dac~ 1 2;
#X msg 606 412 1 \, -1 6000;
#X obj 425 407 *~ 0.1;
#X obj 946 289 *~ 0.9;
#X obj 945 362 *~ 0.8;
#X msg 1011 250 2;
#X obj 728 446 dac~ 1 2 3 4;
#X obj 733 375 *~ 0.1;
#X obj 1230 126 laughing_girl;
#X obj 768 124 laughing_girl;
#X connect 0 0 3 0;
#X connect 1 0 80 0;
#X connect 2 0 1 0;
#X connect 2 0 20 0;
#X connect 2 0 27 0;
#X connect 3 0 117 0;
#X connect 4 0 3 2;
#X connect 5 0 7 0;
#X connect 6 0 108 0;
#X connect 7 0 4 0;
#X connect 8 0 1 0;
#X connect 9 0 122 0;
#X connect 10 0 9 0;
#X connect 11 0 12 0;
#X connect 11 1 14 0;
#X connect 11 2 13 0;
#X connect 12 0 16 0;
#X connect 13 0 24 0;
#X connect 14 0 23 0;
#X connect 15 0 19 0;
#X connect 16 0 2 0;
#X connect 16 1 28 0;
#X connect 17 0 10 0;
#X connect 17 1 30 0;
#X connect 18 0 17 0;
#X connect 19 0 22 0;
#X connect 20 0 81 0;
#X connect 22 0 11 0;
#X connect 23 0 16 0;
#X connect 24 0 16 0;
#X connect 25 0 20 0;
#X connect 26 0 27 0;
#X connect 27 0 82 0;
#X connect 28 0 21 0;
#X connect 28 0 29 0;
#X connect 29 0 98 0;
#X connect 29 1 99 0;
#X connect 29 2 100 0;
#X connect 30 0 9 0;
#X connect 31 0 6 0;
#X connect 31 0 15 0;
#X connect 31 0 18 0;
#X connect 31 0 124 0;
#X connect 32 0 31 0;
#X connect 33 0 118 1;
#X connect 34 0 52 0;
#X connect 35 0 118 0;
#X connect 35 1 39 0;
#X connect 36 0 35 0;
#X connect 37 0 36 0;
#X connect 37 1 75 0;
#X connect 38 0 37 0;
#X connect 39 0 49 0;
#X connect 47 0 43 0;
#X connect 47 1 42 0;
#X connect 47 2 41 0;
#X connect 47 3 40 0;
#X connect 49 0 38 0;
#X connect 50 0 49 1;
#X connect 52 0 47 2;
#X connect 53 0 47 1;
#X connect 54 0 53 0;
#X connect 55 0 56 0;
#X connect 57 0 54 0;
#X connect 59 0 67 2;
#X connect 61 0 67 3;
#X connect 63 0 67 4;
#X connect 64 0 67 5;
#X connect 67 0 72 0;
#X connect 67 1 71 0;
#X connect 67 2 70 0;
#X connect 67 3 69 0;
#X connect 73 0 76 0;
#X connect 75 0 35 0;
#X connect 76 0 67 0;
#X connect 77 0 57 0;
#X connect 80 0 85 0;
#X connect 81 0 85 0;
#X connect 82 0 85 0;
#X connect 83 0 84 0;
#X connect 84 0 88 0;
#X connect 85 0 89 0;
#X connect 85 1 89 1;
#X connect 88 0 85 1;
#X connect 90 0 83 0;
#X connect 91 0 92 0;
#X connect 92 0 90 0;
#X connect 93 0 96 0;
#X connect 94 0 101 0;
#X connect 95 0 83 0;
#X connect 96 0 83 0;
#X connect 97 0 93 0;
#X connect 98 0 97 0;
#X connect 98 1 26 0;
#X connect 99 0 91 0;
#X connect 99 1 25 0;
#X connect 100 0 94 0;
#X connect 100 1 8 0;
#X connect 101 0 95 0;
#X connect 102 0 106 1;
#X connect 103 0 107 0;
#X connect 104 0 105 0;
#X connect 105 0 106 0;
#X connect 106 0 3 1;
#X connect 107 0 102 0;
#X connect 108 0 5 0;
#X connect 108 1 103 0;
#X connect 109 0 115 0;
#X connect 109 1 115 1;
#X connect 110 0 111 0;
#X connect 111 0 112 0;
#X connect 112 0 109 1;
#X connect 113 0 110 0;
#X connect 114 0 113 0;
#X connect 116 0 113 0;
#X connect 117 0 109 0;
#X connect 118 0 119 0;
#X connect 119 0 44 0;
#X connect 119 0 47 0;
#X connect 120 0 34 0;
#X connect 122 0 121 0;
#X connect 122 0 121 1;
