#N canvas 589 41 793 695 12;
#X obj 172 87 inlet;
#X obj 237 564 outlet;
#X obj 316 338 inlet;
#X text 171 59 Adc~;
#X text 297 303 Value threshold;
#X floatatom 172 124 5 0 0 0 - - - 0;
#X obj 177 358 spigot;
#X obj 256 324 tgl 15 0 empty empty empty 17 7 0 10 #fcfcfc #000000
#000000 0 1;
#X obj 237 449 sel 1;
#X obj 236 407 >;
#X msg 227 270 1;
#X obj 238 527 bng 15 250 50 0 empty empty empty 17 7 0 10 #fcfcfc
#000000 #000000;
#X floatatom 314 374 5 0 0 0 - - - 0;
#X obj 280 93 inlet;
#X text 286 61 bang;
#X obj 281 133 bng 15 250 50 0 empty empty empty 17 7 0 10 #fcfcfc
#000000 #000000;
#X msg 288 273 0;
#X obj 236 490 t b b;
#X connect 0 0 5 0;
#X connect 2 0 12 0;
#X connect 5 0 6 0;
#X connect 6 0 9 0;
#X connect 7 0 6 1;
#X connect 8 0 17 0;
#X connect 9 0 8 0;
#X connect 10 0 7 0;
#X connect 11 0 1 0;
#X connect 12 0 9 1;
#X connect 13 0 15 0;
#X connect 15 0 10 0;
#X connect 16 0 7 0;
#X connect 17 0 11 0;
#X connect 17 1 16 0;
