#N canvas 0 25 1440 847 12;
#X obj 602 223 t b b;
#X msg 628 276 open scream3.wav;
#X msg 570 273 1;
#X obj 575 309 readsf~;
#X obj 597 174 bng 15 250 50 0 empty empty empty 17 7 0 10 #fcfcfc
#000000 #000000;
#X obj 689 113 bng 15 250 50 0 empty empty empty 17 7 0 10 #fcfcfc
#000000 #000000;
#X obj 784 323 ramp2;
#X obj 571 396 *~;
#X obj 748 487 ramp2;
#X obj 680 518 *~;
#X obj 830 395 delay 4000;
#X msg 829 447 3000 400 0.2 100;
#X obj 819 612 *~;
#X obj 828 552 ramp2;
#X obj 740 548 osc~ 100;
#X obj 668 397 osc~ 190;
#X obj 738 397 osc~ 170;
#X obj 986 393 delay 6900;
#X msg 996 452 500 300 0.2 200;
#X obj 689 67 inlet;
#X obj 581 728 outlet~;
#X obj 623 552 *~ 0.08;
#X obj 725 646 *~ 0.06;
#X obj 576 344 *~ 0.5;
#X msg 797 261 7000 500 0.2 100;
#X obj 580 691 *~ 1;
#X connect 0 0 2 0;
#X connect 0 1 1 0;
#X connect 1 0 3 0;
#X connect 2 0 3 0;
#X connect 3 0 23 0;
#X connect 4 0 0 0;
#X connect 5 0 4 0;
#X connect 5 0 24 0;
#X connect 5 0 10 0;
#X connect 5 0 17 0;
#X connect 6 0 7 1;
#X connect 7 0 25 0;
#X connect 8 0 9 1;
#X connect 9 0 21 0;
#X connect 10 0 11 0;
#X connect 11 0 8 0;
#X connect 12 0 22 0;
#X connect 13 0 12 1;
#X connect 14 0 12 0;
#X connect 15 0 9 0;
#X connect 16 0 9 0;
#X connect 17 0 18 0;
#X connect 18 0 13 0;
#X connect 19 0 5 0;
#X connect 21 0 25 0;
#X connect 22 0 25 0;
#X connect 23 0 7 0;
#X connect 24 0 6 0;
#X connect 25 0 20 0;
