#N canvas 223 66 706 567 12;
#X obj 201 68 bng 15 250 50 0 empty empty empty 17 7 0 10 #fcfcfc #000000
#000000;
#X obj 201 36 inlet;
#X obj 210 177 bng 15 250 50 0 empty empty empty 17 7 0 10 #fcfcfc
#000000 #000000;
#X obj 210 197 outlet;
#X obj 202 120 line;
#X floatatom 202 144 5 0 0 0 - - - 0;
#X msg 202 96 0.1 \, 0 3000;
#X connect 0 0 6 0;
#X connect 1 0 0 0;
#X connect 2 0 3 0;
#X connect 4 0 5 0;
#X connect 5 0 2 0;
#X connect 6 0 4 0;
