#N canvas 425 75 897 730 12;
#X obj 236 94 inlet;
#X obj 357 342 inlet;
#X obj 571 302 inlet;
#X floatatom 239 128 5 0 0 0 - - - 0;
#X obj 314 511 outlet;
#X obj 555 468 outlet;
#X obj 236 356 spigot;
#X obj 554 272 spigot;
#X obj 594 243 tgl 15 0 empty empty empty 17 7 0 10 #fcfcfc #000000
#000000 0 1;
#X obj 276 332 tgl 15 0 empty empty empty 17 7 0 10 #fcfcfc #000000
#000000 0 1;
#X msg 637 201 1;
#X msg 354 288 1;
#X floatatom 357 370 5 0 0 0 - - - 0;
#X msg 584 202 0;
#X msg 306 292 0;
#X obj 313 393 >;
#X obj 313 440 sel 1;
#X obj 354 247 loadbang;
#X obj 554 362 <;
#X obj 555 390 sel 1;
#X obj 240 162 trigger f f;
#X obj 313 476 trigger b b b;
#X obj 556 430 trigger b b b;
#X floatatom 572 334 5 0 0 0 - - - 0;
#X connect 0 0 3 0;
#X connect 1 0 12 0;
#X connect 2 0 23 0;
#X connect 3 0 20 0;
#X connect 6 0 15 0;
#X connect 7 0 18 0;
#X connect 8 0 7 1;
#X connect 9 0 6 1;
#X connect 10 0 8 0;
#X connect 11 0 9 0;
#X connect 12 0 15 1;
#X connect 13 0 8 0;
#X connect 14 0 9 0;
#X connect 15 0 16 0;
#X connect 16 0 21 0;
#X connect 17 0 11 0;
#X connect 18 0 19 0;
#X connect 19 0 22 0;
#X connect 20 0 6 0;
#X connect 20 1 7 0;
#X connect 21 0 4 0;
#X connect 21 1 10 0;
#X connect 21 2 14 0;
#X connect 22 0 5 0;
#X connect 22 1 11 0;
#X connect 22 2 13 0;
#X connect 23 0 18 1;
