#N canvas 45 25 1440 847 12;
#X obj 133 208 tgl 15 0 empty empty empty 17 7 0 10 #fcfcfc #000000
#000000 0 1;
#X obj 120 382 vline~;
#X msg 121 339 1 1 \, 0 10 50;
#X obj 413 447 vline~;
#X msg 414 404 1 1 \, 0 10 50;
#X obj 310 263 t b b;
#X text 123 70 I know this was not a priority lol but I made a heartbeat
sound. The number of the metro is what can change with serial communication
;
#X obj 128 248 metro;
#X floatatom 173 213 5 0 0 0 - - - 0;
#X obj 322 363 delay 70;
#X obj 247 359 osc~ 30;
#X obj 540 424 osc~ 30;
#X obj 461 496 *~ 0.1;
#X obj 168 431 *~ 0.1;
#X obj 294 625 dac~ 4;
#X connect 0 0 7 0;
#X connect 1 0 13 0;
#X connect 2 0 1 0;
#X connect 3 0 12 0;
#X connect 4 0 3 0;
#X connect 5 0 9 0;
#X connect 5 1 2 0;
#X connect 7 0 5 0;
#X connect 8 0 7 1;
#X connect 9 0 4 0;
#X connect 10 0 13 1;
#X connect 11 0 12 1;
#X connect 12 0 14 0;
#X connect 13 0 14 0;
