#N canvas 60 52 969 614 12;
#X obj 65 74 inlet;
#X obj 130 551 outlet;
#X obj 145 75 inlet;
#X obj 209 325 inlet;
#X text 64 46 Adc~;
#X text 190 290 Value threshold;
#X text 143 45 TImer;
#X floatatom 65 111 5 0 0 0 - - - 0;
#X obj 70 345 spigot;
#X obj 149 311 tgl 15 0 empty empty empty 17 7 0 10 #fcfcfc #000000
#000000 0 1;
#X obj 130 436 sel 1;
#X obj 129 394 >;
#X obj 226 74 inlet;
#X text 216 44 Value of timer needed;
#X floatatom 145 113 5 0 0 0 - - - 0;
#X obj 187 156 >;
#X obj 187 209 sel 1;
#X msg 135 264 1;
#X msg 215 262 0;
#X obj 131 514 bng 15 250 50 0 empty empty empty 17 7 0 10 #fcfcfc
#000000 #000000;
#X floatatom 225 112 5 0 0 0 - - - 0;
#X floatatom 207 361 5 0 0 0 - - - 0;
#X obj 187 183 spigot;
#X obj 301 158 tgl 15 0 empty empty empty 17 7 0 10 #fcfcfc #000000
#000000 0 1;
#X msg 305 123 1;
#X msg 355 151 0;
#X obj 305 82 loadbang;
#X obj 186 233 t b b;
#X obj 129 477 t b b b;
#X connect 0 0 7 0;
#X connect 2 0 14 0;
#X connect 3 0 21 0;
#X connect 7 0 8 0;
#X connect 8 0 11 0;
#X connect 9 0 8 1;
#X connect 10 0 28 0;
#X connect 11 0 10 0;
#X connect 12 0 20 0;
#X connect 14 0 15 0;
#X connect 15 0 22 0;
#X connect 16 0 27 0;
#X connect 17 0 9 0;
#X connect 18 0 9 0;
#X connect 19 0 1 0;
#X connect 20 0 15 1;
#X connect 21 0 11 1;
#X connect 22 0 16 0;
#X connect 23 0 22 1;
#X connect 24 0 23 0;
#X connect 25 0 23 0;
#X connect 26 0 24 0;
#X connect 27 0 17 0;
#X connect 27 1 18 0;
#X connect 28 0 19 0;
#X connect 28 1 18 0;
#X connect 28 2 25 0;
