#N canvas 418 183 653 518 12;
#X obj 198 389 bng 15 250 50 0 empty empty empty 17 7 0 10 #fcfcfc
#000000 #000000;
#X obj 199 13 inlet;
#X obj 198 417 outlet;
#X floatatom 200 39 5 0 0 0 - - - 0;
#X obj 199 252 > 90;
#X obj 198 212 spigot;
#X obj 237 183 tgl 15 0 empty empty empty 17 7 0 10 #fcfcfc #000000
#000000 0 1;
#X msg 254 138 1;
#X msg 288 162 0;
#X obj 199 291 sel 1;
#X obj 377 223 > 120;
#X obj 378 260 sel 1;
#X obj 376 173 spigot;
#X obj 428 145 tgl 15 0 empty empty empty 17 7 0 10 #fcfcfc #000000
#000000 0 1;
#X msg 428 103 1;
#X msg 482 103 0;
#X obj 379 299 t b b;
#X obj 380 336 bng 15 250 50 0 empty empty empty 17 7 0 10 #fcfcfc
#000000 #000000;
#X obj 200 69 t f f;
#X obj 198 331 t b b b;
#X obj 253 70 loadbang;
#X connect 0 0 2 0;
#X connect 1 0 3 0;
#X connect 3 0 18 0;
#X connect 4 0 9 0;
#X connect 5 0 4 0;
#X connect 6 0 5 1;
#X connect 7 0 6 0;
#X connect 8 0 6 0;
#X connect 9 0 19 0;
#X connect 10 0 11 0;
#X connect 11 0 16 0;
#X connect 12 0 10 0;
#X connect 13 0 12 1;
#X connect 14 0 13 0;
#X connect 15 0 13 0;
#X connect 16 0 17 0;
#X connect 17 0 15 0;
#X connect 17 0 7 0;
#X connect 18 0 5 0;
#X connect 18 1 12 0;
#X connect 19 0 0 0;
#X connect 19 1 8 0;
#X connect 19 2 14 0;
#X connect 20 0 7 0;
