#N canvas -20 0 1920 976 12;
#X text 41 56 Ilse;
#X obj 621 335 noise~;
#X obj 449 408 readsf~;
#X msg 377 401 1;
#X obj 726 402 bob~;
#X floatatom 940 305 5 0 0 0 - - - 0;
#X obj 945 205 metro 300;
#X obj 736 147 tgl 15 0 empty empty empty 0 -6 0 8 #dcdcdc #000000
#000000 0 1;
#X obj 953 252 Cyclone/drunk 4 0, f 24;
#X obj 740 100 loadbang;
#X obj 739 271 line;
#X floatatom 739 295 5 0 0 0 - - - 0;
#X obj 730 500 *~ 0.5;
#X text 111 332 Crow needs a different sample size;
#X obj 440 657 readsf~;
#X msg 291 672 1;
#X msg 379 626 open wolf_howl.wav;
#X msg 448 366 open crow_caw2.wav;
#X obj 574 504 *~ 2;
#X obj 978 637 readsf~;
#X msg 937 540 1;
#X obj 1187 135 tgl 15 0 empty empty empty 17 7 0 10 #fcfcfc #000000
#000000 0 1;
#X msg 1040 536 open rustling.wav;
#X obj 1135 367 select 0 1 2;
#X obj 1101 401 bng 15 250 50 0 empty empty empty 17 7 0 10 #fcfcfc
#000000 #000000;
#X obj 1188 400 bng 15 250 50 0 empty empty empty 17 7 0 10 #fcfcfc
#000000 #000000;
#X obj 1152 399 bng 15 250 50 0 empty empty empty 17 7 0 10 #fcfcfc
#000000 #000000;
#X obj 1151 217 random 2;
#X obj 1021 438 delay 1000;
#X obj 1121 437 delay 3000;
#X obj 1201 435 delay 5000;
#X obj 1178 179 metro 10000;
#X obj 278 149 select 0 1 2;
#X obj 244 183 bng 15 250 50 0 empty empty empty 17 7 0 10 #fcfcfc
#000000 #000000;
#X obj 331 182 bng 15 250 50 0 empty empty empty 17 7 0 10 #fcfcfc
#000000 #000000;
#X obj 295 181 bng 15 250 50 0 empty empty empty 17 7 0 10 #fcfcfc
#000000 #000000;
#X obj 317 117 random 2;
#X obj 164 220 delay 1000;
#X obj 264 219 delay 3000;
#X obj 344 217 delay 5000;
#X obj 369 28 tgl 15 0 empty empty empty 17 7 0 10 #fcfcfc #000000
#000000 0 1;
#X obj 422 318 t b b;
#X obj 192 478 select 0 1 2;
#X obj 275 525 bng 15 250 50 0 empty empty empty 17 7 0 10 #fcfcfc
#000000 #000000;
#X obj 362 524 bng 15 250 50 0 empty empty empty 17 7 0 10 #fcfcfc
#000000 #000000;
#X obj 326 523 bng 15 250 50 0 empty empty empty 17 7 0 10 #fcfcfc
#000000 #000000;
#X obj 231 446 random 2;
#X obj 195 562 delay 1000;
#X obj 295 561 delay 3000;
#X obj 375 559 delay 5000;
#X obj 263 376 tgl 15 0 empty empty empty 17 7 0 10 #fcfcfc #000000
#000000 0 1;
#X obj 222 607 t b b;
#X obj 1319 715 readsf~;
#X msg 1341 652 1;
#X obj 1468 595 t b b;
#X obj 1036 499 t b b;
#X msg 1444 674 open girl_laughing_50sec.wav;
#X obj 1464 528 bng 15 250 50 0 empty empty empty 17 7 0 10 #fcfcfc
#000000 #000000;
#X text 1525 547 Do the giggle from different areas??;
#X obj 258 408 metro 30000;
#X obj 918 877 pan4_with_center_and_distance_polar~;
#X obj 1326 249 tgl 15 0 empty empty empty 17 7 0 10 #fcfcfc #000000
#000000 0 1;
#X obj 1328 202 loadbang;
#X obj 1459 432 line;
#X floatatom 1478 469 5 0 0 0 - - - 0;
#X obj 1678 311 bng 15 250 50 0 empty empty empty 17 7 0 10 #fcfcfc
#000000 #000000;
#X obj 1679 397 line;
#X floatatom 1700 434 5 0 0 0 - - - 0;
#X obj 1291 333 bng 15 250 50 0 empty empty empty 17 7 0 10 #fcfcfc
#000000 #000000;
#X msg 1436 379 stop;
#X obj 1459 331 t b b;
#X obj 1791 314 t b b;
#X msg 1748 394 stop;
#X obj 1259 296 metro 4999, f 11;
#X obj 1483 290 metro 10000;
#X obj 1677 279 metro 9999, f 14;
#X obj 1795 274 metro 20000, f 14;
#X text 1305 161 Angle in degrees;
#X text 1742 228 Distance;
#X text 1363 242 Toggle to turn on metro's;
#X obj 635 910 dac~ 1 2 2 1;
#X obj 941 824 *~ 5;
#X msg 1335 364 0 \, 200 5000;
#X msg 1498 365 200 \, 0 5000;
#X obj 739 223 metro 10000;
#X msg 734 249 1000 \, 1200 10000;
#X obj 344 79 metro 15000;
#X msg 1683 350 0 \, 3 10000;
#X msg 1807 358 3 \, 0 10000;
#X connect 1 0 4 0;
#X connect 2 0 18 0;
#X connect 3 0 2 0;
#X connect 4 0 12 0;
#X connect 5 0 4 2;
#X connect 6 0 8 0;
#X connect 7 0 6 0;
#X connect 7 0 84 0;
#X connect 8 0 5 0;
#X connect 9 0 7 0;
#X connect 9 0 21 0;
#X connect 9 0 40 0;
#X connect 9 0 50 0;
#X connect 10 0 11 0;
#X connect 11 0 4 1;
#X connect 12 0 60 0;
#X connect 14 0 80 0;
#X connect 14 0 80 1;
#X connect 15 0 14 0;
#X connect 16 0 14 0;
#X connect 17 0 2 0;
#X connect 18 0 80 0;
#X connect 18 0 80 1;
#X connect 19 0 60 0;
#X connect 20 0 19 0;
#X connect 21 0 31 0;
#X connect 22 0 19 0;
#X connect 23 0 24 0;
#X connect 23 1 26 0;
#X connect 23 2 25 0;
#X connect 24 0 28 0;
#X connect 25 0 30 0;
#X connect 26 0 29 0;
#X connect 27 0 23 0;
#X connect 28 0 55 0;
#X connect 29 0 55 0;
#X connect 30 0 55 0;
#X connect 31 0 27 0;
#X connect 32 0 33 0;
#X connect 32 1 35 0;
#X connect 32 2 34 0;
#X connect 33 0 37 0;
#X connect 34 0 39 0;
#X connect 35 0 38 0;
#X connect 36 0 32 0;
#X connect 37 0 41 0;
#X connect 38 0 41 0;
#X connect 39 0 41 0;
#X connect 40 0 86 0;
#X connect 41 0 3 0;
#X connect 41 1 17 0;
#X connect 42 0 43 0;
#X connect 42 1 45 0;
#X connect 42 2 44 0;
#X connect 43 0 47 0;
#X connect 44 0 49 0;
#X connect 45 0 48 0;
#X connect 46 0 42 0;
#X connect 47 0 51 0;
#X connect 48 0 51 0;
#X connect 49 0 51 0;
#X connect 50 0 59 0;
#X connect 51 0 15 0;
#X connect 51 1 16 0;
#X connect 52 0 81 0;
#X connect 53 0 52 0;
#X connect 54 0 53 0;
#X connect 54 1 56 0;
#X connect 55 0 20 0;
#X connect 55 1 22 0;
#X connect 56 0 52 0;
#X connect 57 0 54 0;
#X connect 59 0 46 0;
#X connect 60 0 80 0;
#X connect 60 0 80 1;
#X connect 60 0 80 2;
#X connect 60 0 80 3;
#X connect 61 0 73 0;
#X connect 61 0 74 0;
#X connect 61 0 75 0;
#X connect 61 0 76 0;
#X connect 62 0 61 0;
#X connect 63 0 64 0;
#X connect 64 0 60 1;
#X connect 65 0 87 0;
#X connect 66 0 67 0;
#X connect 67 0 60 2;
#X connect 68 0 82 0;
#X connect 69 0 63 0;
#X connect 70 0 83 0;
#X connect 70 1 69 0;
#X connect 71 0 88 0;
#X connect 71 1 72 0;
#X connect 72 0 66 0;
#X connect 73 0 68 0;
#X connect 74 0 70 0;
#X connect 75 0 65 0;
#X connect 76 0 71 0;
#X connect 81 0 60 0;
#X connect 82 0 63 0;
#X connect 83 0 63 0;
#X connect 84 0 85 0;
#X connect 85 0 10 0;
#X connect 86 0 36 0;
#X connect 87 0 66 0;
#X connect 88 0 66 0;
