#N canvas 0 25 1920 976 12;
#X obj 77 19 inlet;
#X obj 78 54 bng 15 250 50 0 empty empty empty 17 7 0 10 #fcfcfc #000000
#000000;
#X obj 581 135 env~;
#X msg 684 311 70;
#X floatatom 681 132 5 0 0 0 - - - 0;
#X obj 582 639 readsf~;
#X obj 585 443 tgl 15 0 empty empty empty 17 7 0 10 #fcfcfc #000000
#000000 0 1;
#X obj 588 520 bng 15 250 50 0 empty empty empty 17 7 0 10 #fcfcfc
#000000 #000000;
#X obj 921 304 spigot;
#X obj 1005 307 tgl 15 0 empty empty empty 17 7 0 10 #fcfcfc #000000
#000000 0 1;
#X msg 952 264 1;
#X obj 923 352 bng 15 250 50 0 empty empty empty 17 7 0 10 #fcfcfc
#000000 #000000;
#X msg 997 263 0;
#X msg 952 366 70;
#X obj 926 699 readsf~;
#X msg 924 602 1;
#X msg 957 638 open who_are_you.wav;
#X msg 874 597 0;
#X msg 584 416 1;
#X obj 1348 416 spigot;
#X obj 1391 390 tgl 15 0 empty empty empty 17 7 0 10 #fcfcfc #000000
#000000 0 1;
#X msg 1369 351 1;
#X obj 1360 447 bng 15 250 50 0 empty empty empty 17 7 0 10 #fcfcfc
#000000 #000000;
#X msg 1417 350 0;
#X msg 1411 474 70;
#X text 1210 105 A spigot is opened after the previous threshold was
reached;
#X obj 1016 507 tgl 15 0 empty empty empty 17 7 0 10 #fcfcfc #000000
#000000 0 1;
#X obj 1013 566 bng 15 250 50 0 empty empty empty 17 7 0 10 #fcfcfc
#000000 #000000;
#X msg 1016 476 1;
#X obj 1016 532 metro 10000;
#X obj 908 569 t b b b;
#X msg 1249 622 open whispering.aiff;
#X obj 1222 548 t b b;
#X msg 1212 588 1;
#X obj 1217 682 readsf~;
#X msg 1356 686 0;
#X obj 1222 514 delay 3000;
#X obj 85 318 readsf~;
#X msg 85 292 1;
#X obj 85 267 t b b;
#X obj 334 634 throw~ speaker3;
#X obj 251 661 throw~ speaker2;
#X obj 168 688 throw~ speaker1;
#X obj 85 715 throw~ speaker0;
#X obj 97 551 throw~ to_reverb;
#X obj 85 608 pan4_with_center_and_distance_polar~;
#X text 106 245 play;
#X obj 250 581 sig~;
#X obj 286 554 *~ 360;
#X msg 117 292 open girl_laughing_50sec.wav;
#X obj 586 801 pan4_with_center_and_distance_polar~;
#X obj 752 749 sig~;
#X obj 667 749 *~ 360;
#X obj 836 841 throw~ speaker3;
#X obj 753 868 throw~ speaker2;
#X obj 670 895 throw~ speaker1;
#X obj 587 922 throw~ speaker0;
#X obj 667 718 phasor~ 10;
#X msg 752 718 5;
#X obj 286 524 phasor~ 1;
#X msg 251 504 3;
#X obj 453 744 throw~ to_reverb;
#X obj 964 754 throw~ to_reverb;
#X obj 86 434 *~ 0.5;
#X obj 584 347 delay_threshold;
#X obj 605 313 delay 5000;
#X obj 567 566 t b b;
#X msg 553 600 1;
#X msg 612 599 open hello_kid.wav;
#X msg 1009 594 0;
#X obj 919 192 delay 3000;
#X obj 920 227 t b b;
#X obj 1335 322 t b b;
#X obj 85 507 *~ 0.5;
#X obj 583 662 *~ 0.4;
#X obj 925 727 *~ 0.3;
#X obj 1171 719 *~ 4;
#X obj 586 478 metro 10000;
#X obj 1305 296 delay 15000;
#X obj 1437 548 end;
#X obj 1439 645 dac~ 1 2 3 4;
#X obj 1438 590 *~ 0.5;
#X obj 133 474 FadeIn;
#X obj 1189 786 throw~ to_reverb;
#X obj 1331 503 t b b;
#X obj 1172 748 *~ 0.8;
#X obj 918 475 delay 1500;
#X obj 898 396 threshold;
#X obj 1331 474 threshold;
#X obj 1412 443 loadbang;
#X obj 661 276 loadbang;
#X obj 952 336 loadbang;
#X obj 894 426 t b b b b;
#X obj 584 384 t b b;
#X obj 581 81 adc~ 1 2;
#X connect 0 0 1 0;
#X connect 1 0 60 0;
#X connect 1 0 58 0;
#X connect 1 0 65 0;
#X connect 1 0 82 0;
#X connect 1 0 39 0;
#X connect 2 0 4 0;
#X connect 2 0 64 0;
#X connect 2 0 87 0;
#X connect 2 0 88 0;
#X connect 3 0 64 2;
#X connect 5 0 74 0;
#X connect 6 0 77 0;
#X connect 7 0 66 0;
#X connect 8 0 11 0;
#X connect 9 0 8 1;
#X connect 10 0 9 0;
#X connect 11 0 12 0;
#X connect 11 0 87 1;
#X connect 12 0 9 0;
#X connect 13 0 87 2;
#X connect 14 0 75 0;
#X connect 15 0 14 0;
#X connect 16 0 14 0;
#X connect 17 0 63 1;
#X connect 18 0 6 0;
#X connect 19 0 22 0;
#X connect 20 0 19 1;
#X connect 21 0 20 0;
#X connect 22 0 23 0;
#X connect 22 0 88 1;
#X connect 23 0 20 0;
#X connect 23 0 26 0;
#X connect 24 0 88 2;
#X connect 26 0 29 0;
#X connect 27 0 30 0;
#X connect 27 0 69 0;
#X connect 28 0 26 0;
#X connect 29 0 27 0;
#X connect 30 0 17 0;
#X connect 30 1 15 0;
#X connect 30 2 16 0;
#X connect 31 0 34 0;
#X connect 32 0 33 0;
#X connect 32 1 31 0;
#X connect 33 0 34 0;
#X connect 34 0 76 0;
#X connect 35 0 34 0;
#X connect 36 0 32 0;
#X connect 37 0 63 0;
#X connect 38 0 37 0;
#X connect 39 0 38 0;
#X connect 39 1 49 0;
#X connect 45 0 43 0;
#X connect 45 1 42 0;
#X connect 45 2 41 0;
#X connect 45 3 40 0;
#X connect 47 0 45 2;
#X connect 48 0 45 1;
#X connect 49 0 37 0;
#X connect 50 0 56 0;
#X connect 50 1 55 0;
#X connect 50 2 54 0;
#X connect 50 3 53 0;
#X connect 51 0 50 2;
#X connect 52 0 50 1;
#X connect 57 0 52 0;
#X connect 58 0 51 0;
#X connect 59 0 48 0;
#X connect 60 0 47 0;
#X connect 63 0 73 0;
#X connect 64 0 93 0;
#X connect 65 0 64 1;
#X connect 66 0 67 0;
#X connect 66 1 68 0;
#X connect 67 0 5 0;
#X connect 68 0 5 0;
#X connect 69 0 6 0;
#X connect 69 0 5 0;
#X connect 70 0 71 0;
#X connect 71 0 8 0;
#X connect 71 1 10 0;
#X connect 72 0 19 0;
#X connect 72 1 21 0;
#X connect 73 0 45 0;
#X connect 73 0 44 0;
#X connect 74 0 50 0;
#X connect 74 0 61 0;
#X connect 75 0 50 0;
#X connect 75 0 62 0;
#X connect 76 0 85 0;
#X connect 77 0 7 0;
#X connect 78 0 72 0;
#X connect 79 0 81 0;
#X connect 81 0 80 0;
#X connect 81 0 80 3;
#X connect 81 0 80 1;
#X connect 81 0 80 2;
#X connect 82 0 73 0;
#X connect 84 0 79 0;
#X connect 84 1 35 0;
#X connect 85 0 50 0;
#X connect 85 0 83 0;
#X connect 86 0 28 0;
#X connect 86 0 30 0;
#X connect 87 0 92 0;
#X connect 88 0 84 0;
#X connect 89 0 24 0;
#X connect 90 0 3 0;
#X connect 91 0 13 0;
#X connect 92 0 78 0;
#X connect 92 1 36 0;
#X connect 92 2 86 0;
#X connect 92 3 12 0;
#X connect 93 0 70 0;
#X connect 93 1 18 0;
#X connect 94 0 2 0;
#X connect 94 1 2 0;
