#N canvas 0 25 1920 976 12;
#X obj 77 19 inlet;
#X obj 78 54 bng 15 250 50 0 empty empty empty 17 7 0 10 #fcfcfc #000000
#000000;
#X obj 589 135 env~;
#X msg 684 311 70;
#X obj 995 57 time;
#X floatatom 995 87 5 0 0 0 - - - 0;
#X floatatom 689 132 5 0 0 0 - - - 0;
#X obj 582 639 readsf~;
#X obj 585 443 tgl 15 0 empty empty empty 17 7 0 10 #fcfcfc #000000
#000000 0 1;
#X obj 588 520 bng 15 250 50 0 empty empty empty 17 7 0 10 #fcfcfc
#000000 #000000;
#X obj 962 274 spigot;
#X obj 1122 243 tgl 15 0 empty empty empty 17 7 0 10 #fcfcfc #000000
#000000 0 1;
#X msg 1033 241 1;
#X obj 949 332 bng 15 250 50 0 empty empty empty 17 7 0 10 #fcfcfc
#000000 #000000;
#X msg 1099 286 0;
#X msg 1024 343 70;
#X obj 901 375 One_time_threshold;
#X obj 926 699 readsf~;
#X msg 924 602 1;
#X obj 900 425 bng 15 250 50 0 empty empty empty 17 7 0 10 #fcfcfc
#000000 #000000;
#X msg 957 638 open who_are_you.wav;
#X msg 164 415 0;
#X msg 584 416 1;
#X obj 1328 476 One_time_threshold;
#X obj 1379 511 bng 15 250 50 0 empty empty empty 17 7 0 10 #fcfcfc
#000000 #000000;
#X obj 1715 736 t b b;
#X obj 1623 797 readsf~;
#X msg 1717 772 1;
#X obj 1388 273 spigot;
#X obj 1496 258 tgl 15 0 empty empty empty 17 7 0 10 #fcfcfc #000000
#000000 0 1;
#X msg 1445 238 1;
#X obj 1388 306 bng 15 250 50 0 empty empty empty 17 7 0 10 #fcfcfc
#000000 #000000;
#X msg 1480 291 0;
#X msg 1686 778 open scream3.wav;
#X obj 219 207 line;
#X floatatom 219 231 5 0 0 0 - - - 0;
#X text 263 211 Fade in of girl laughing;
#X msg 231 168 0 \, 0.1 3000;
#X msg 1449 413 70;
#X text 1210 105 A spigot is opened after the previous threshold was
reached;
#X obj 1016 507 tgl 15 0 empty empty empty 17 7 0 10 #fcfcfc #000000
#000000 0 1;
#X obj 1013 566 bng 15 250 50 0 empty empty empty 17 7 0 10 #fcfcfc
#000000 #000000;
#X msg 1016 476 1;
#X obj 1016 532 metro 10000;
#X obj 896 459 delay 2000;
#X obj 908 569 t b b b;
#X msg 1258 622 open whispering.aiff;
#X obj 1222 572 t b b;
#X msg 1218 613 1;
#X obj 1217 682 readsf~;
#X obj 1222 546 bng 15 250 50 0 empty empty empty 17 7 0 10 #fcfcfc
#000000 #000000;
#X msg 1356 686 0;
#X obj 1222 514 delay 3000;
#X obj 152 444 hsl 128 15 0 1 0 0 empty empty empty -2 -8 0 10 #fcfcfc
#000000 #000000 0 1;
#X obj 83 318 readsf~;
#X msg 83 292 1;
#X obj 83 267 t b b;
#X obj 83 247 bng 15 250 50 0 empty empty empty 17 7 0 10 #fcfcfc #000000
#000000;
#X obj 138 342 bng 15 250 50 0 empty empty empty 17 7 0 10 #fcfcfc
#000000 #000000;
#X obj 334 655 throw~ speaker3;
#X obj 251 682 throw~ speaker2;
#X obj 168 709 throw~ speaker1;
#X obj 85 736 throw~ speaker0;
#X obj 97 572 throw~ to_reverb;
#X obj 85 629 pan4_with_center_and_distance_polar~;
#X text 104 245 play;
#X obj 138 364 spigot;
#X obj 177 340 tgl 15 0 empty empty empty 17 7 0 10 #fcfcfc #000000
#000000 0 1;
#X obj 250 602 sig~;
#X obj 286 575 *~ 360;
#X msg 115 292 open girl_laughing_50sec.wav;
#X obj 586 801 pan4_with_center_and_distance_polar~;
#X obj 752 749 sig~;
#X obj 667 749 *~ 360;
#X obj 836 841 throw~ speaker3;
#X obj 753 868 throw~ speaker2;
#X obj 670 895 throw~ speaker1;
#X obj 587 922 throw~ speaker0;
#X obj 667 718 phasor~ 10;
#X msg 752 718 5;
#X obj 1616 867 dac~ 1 2 3 4;
#X obj 286 545 phasor~ 1;
#X msg 251 525 3;
#X obj 486 744 throw~ to_reverb;
#X obj 952 772 throw~ to_reverb;
#X obj 86 455 *~ 0.5;
#X obj 584 347 delay_threshold;
#X obj 635 275 delay 5000;
#X obj 638 322 bng 15 250 50 0 empty empty empty 17 7 0 10 #fcfcfc
#000000 #000000;
#X obj 584 389 bng 15 250 50 0 empty empty empty 17 7 0 10 #fcfcfc
#000000 #000000;
#X obj 1447 369 loadbang;
#X obj 1623 821 *~ 0.1;
#X obj 567 566 t b b;
#X msg 553 600 1;
#X msg 612 599 open hello_kid.wav;
#X msg 1013 592 0;
#X obj 589 81 adc~ 3;
#X obj 895 166 delay 3000;
#X obj 962 237 bng 15 250 50 0 empty empty empty 17 7 0 10 #fcfcfc
#000000 #000000;
#X obj 899 192 t b b;
#X obj 1300 231 t b b;
#X obj 1346 261 bng 15 250 50 0 empty empty empty 17 7 0 10 #fcfcfc
#000000 #000000;
#X obj 85 528 *~ 0.5;
#X obj 583 662 *~ 0.4;
#X obj 911 732 *~ 0.3;
#X obj 1171 719 *~ 4;
#X obj 1169 758 *~ 0.5;
#X obj 586 478 metro 10000;
#X obj 1270 205 delay 15000;
#X text 1588 704 Remove this if end object works;
#X obj 1437 548 end;
#X obj 1435 614 dac~ 1 2 3 4;
#X connect 0 0 1 0;
#X connect 1 0 3 0;
#X connect 1 0 15 0;
#X connect 1 0 37 0;
#X connect 1 0 57 0;
#X connect 1 0 82 0;
#X connect 1 0 79 0;
#X connect 1 0 4 0;
#X connect 1 0 87 0;
#X connect 2 0 6 0;
#X connect 2 0 23 0;
#X connect 2 0 86 0;
#X connect 2 0 16 0;
#X connect 3 0 86 2;
#X connect 4 0 5 0;
#X connect 7 0 103 0;
#X connect 8 0 107 0;
#X connect 9 0 92 0;
#X connect 10 0 13 0;
#X connect 11 0 10 1;
#X connect 12 0 11 0;
#X connect 13 0 14 0;
#X connect 13 0 16 1;
#X connect 14 0 11 0;
#X connect 15 0 16 2;
#X connect 16 0 19 0;
#X connect 17 0 104 0;
#X connect 18 0 17 0;
#X connect 19 0 14 0;
#X connect 19 0 44 0;
#X connect 19 0 52 0;
#X connect 19 0 108 0;
#X connect 20 0 17 0;
#X connect 21 0 85 1;
#X connect 22 0 8 0;
#X connect 23 0 24 0;
#X connect 24 0 51 0;
#X connect 24 0 110 0;
#X connect 25 0 27 0;
#X connect 25 1 33 0;
#X connect 26 0 91 0;
#X connect 27 0 26 0;
#X connect 28 0 31 0;
#X connect 29 0 28 1;
#X connect 30 0 29 0;
#X connect 31 0 32 0;
#X connect 31 0 23 1;
#X connect 32 0 29 0;
#X connect 32 0 40 0;
#X connect 33 0 26 0;
#X connect 34 0 35 0;
#X connect 35 0 102 0;
#X connect 37 0 34 0;
#X connect 38 0 23 2;
#X connect 40 0 43 0;
#X connect 41 0 45 0;
#X connect 41 0 95 0;
#X connect 42 0 40 0;
#X connect 43 0 41 0;
#X connect 44 0 42 0;
#X connect 44 0 45 0;
#X connect 45 0 21 0;
#X connect 45 1 18 0;
#X connect 45 2 20 0;
#X connect 46 0 49 0;
#X connect 47 0 48 0;
#X connect 47 1 46 0;
#X connect 48 0 49 0;
#X connect 49 0 105 0;
#X connect 50 0 47 0;
#X connect 51 0 49 0;
#X connect 52 0 50 0;
#X connect 53 0 85 1;
#X connect 54 0 85 0;
#X connect 54 1 58 0;
#X connect 55 0 54 0;
#X connect 56 0 55 0;
#X connect 56 1 70 0;
#X connect 57 0 56 0;
#X connect 58 0 66 0;
#X connect 64 0 62 0;
#X connect 64 1 61 0;
#X connect 64 2 60 0;
#X connect 64 3 59 0;
#X connect 66 0 57 0;
#X connect 67 0 66 1;
#X connect 68 0 64 2;
#X connect 69 0 64 1;
#X connect 70 0 54 0;
#X connect 71 0 77 0;
#X connect 71 1 76 0;
#X connect 71 2 75 0;
#X connect 71 3 74 0;
#X connect 72 0 71 2;
#X connect 73 0 71 1;
#X connect 78 0 73 0;
#X connect 79 0 72 0;
#X connect 81 0 69 0;
#X connect 82 0 68 0;
#X connect 85 0 102 0;
#X connect 86 0 89 0;
#X connect 87 0 88 0;
#X connect 88 0 86 1;
#X connect 89 0 22 0;
#X connect 89 0 97 0;
#X connect 90 0 38 0;
#X connect 90 0 28 0;
#X connect 91 0 80 0;
#X connect 91 0 80 1;
#X connect 91 0 80 2;
#X connect 91 0 80 3;
#X connect 92 0 93 0;
#X connect 92 1 94 0;
#X connect 93 0 7 0;
#X connect 94 0 7 0;
#X connect 95 0 8 0;
#X connect 95 0 7 0;
#X connect 96 0 2 0;
#X connect 97 0 99 0;
#X connect 98 0 10 0;
#X connect 99 0 98 0;
#X connect 99 1 12 0;
#X connect 100 0 101 0;
#X connect 100 1 30 0;
#X connect 101 0 28 0;
#X connect 102 0 64 0;
#X connect 102 0 63 0;
#X connect 103 0 71 0;
#X connect 103 0 83 0;
#X connect 104 0 71 0;
#X connect 104 0 84 0;
#X connect 105 0 106 0;
#X connect 106 0 71 0;
#X connect 107 0 9 0;
#X connect 108 0 100 0;
#X connect 110 0 111 0;
#X connect 110 0 111 1;
#X connect 110 0 111 2;
#X connect 110 0 111 3;
