#N canvas 0 25 1920 976 12;
#X obj 158 95 inlet;
#X obj 159 130 bng 15 250 50 0 empty empty empty 17 7 0 10 #fcfcfc
#000000 #000000;
#X obj 91 165 t b b;
#X obj 99 298 readsf~;
#X msg 93 201 1;
#X msg 166 231 open girl_laughing_50sec.wav;
#X obj 427 73 env~;
#X msg 733 335 70;
#X obj 597 379 One_time_threshold;
#X obj 995 57 time;
#X floatatom 995 87 5 0 0 0 - - - 0;
#X floatatom 587 298 5 0 0 0 - - - 0;
#X obj 587 330 sel 1;
#X obj 593 413 bng 15 250 50 0 empty empty empty 17 7 0 10 #fcfcfc
#000000 #000000;
#X obj 685 262 spigot;
#X obj 759 294 tgl 15 0 empty empty empty 17 7 0 10 #fcfcfc #000000
#000000 0 1;
#X msg 755 260 1;
#X obj 659 339 bng 15 250 50 0 empty empty empty 17 7 0 10 #fcfcfc
#000000 #000000;
#X msg 686 299 0;
#X obj 584 266 > 5;
#X floatatom 523 70 5 0 0 0 - - - 0;
#X obj 610 546 t b b;
#X obj 613 619 readsf~;
#X msg 580 580 1;
#X obj 715 481 tgl 15 0 empty empty empty 17 7 0 10 #fcfcfc #000000
#000000 0 1;
#X obj 719 532 bng 15 250 50 0 empty empty empty 17 7 0 10 #fcfcfc
#000000 #000000;
#X floatatom 888 299 5 0 0 0 - - - 0;
#X obj 888 331 sel 1;
#X obj 962 274 spigot;
#X obj 1032 313 tgl 15 0 empty empty empty 17 7 0 10 #fcfcfc #000000
#000000 0 1;
#X msg 1042 282 1;
#X obj 949 332 bng 15 250 50 0 empty empty empty 17 7 0 10 #fcfcfc
#000000 #000000;
#X msg 1069 349 0;
#X msg 1009 342 70;
#X obj 901 375 One_time_threshold;
#X obj 912 702 readsf~;
#X msg 910 605 1;
#X obj 906 422 bng 15 250 50 0 empty empty empty 17 7 0 10 #fcfcfc
#000000 #000000;
#X msg 948 656 open who_are_you.wav;
#X msg 318 454 0;
#X msg 714 454 1;
#X msg 639 579 open hello_kid.wav;
#X obj 1564 439 One_time_threshold;
#X floatatom 1576 240 5 0 0 0 - - - 0;
#X obj 1576 272 sel 1;
#X obj 1548 473 bng 15 250 50 0 empty empty empty 17 7 0 10 #fcfcfc
#000000 #000000;
#X obj 1551 559 t b b;
#X obj 1555 692 readsf~;
#X msg 1553 595 1;
#X obj 1659 250 spigot;
#X obj 1769 334 tgl 15 0 empty empty empty 17 7 0 10 #fcfcfc #000000
#000000 0 1;
#X msg 1776 297 1;
#X obj 1641 288 bng 15 250 50 0 empty empty empty 17 7 0 10 #fcfcfc
#000000 #000000;
#X msg 1689 315 0;
#X msg 1591 647 open scream3.wav;
#X obj 716 509 metro 10000;
#X obj 560 662 *~ 0.06;
#X obj 897 735 *~ 0.06;
#X obj 1555 716 *~ 0.08;
#X obj 103 525 *~ 0.2;
#X obj 196 330 line;
#X floatatom 196 354 5 0 0 0 - - - 0;
#X text 240 334 Fade in of girl laughing;
#X obj 218 906 dac~ 1 2 2 1;
#X obj 427 39 adc~ 1 2;
#X msg 196 306 0 \, 0.1 3000;
#X msg 1667 393 70;
#X text 310 526 Now hello plays every 10sec \, think about if we want
this;
#X text 1430 125 A spigot is opened after the previous threshold was
reached;
#X obj 596 443 delay 1000;
#X obj 888 268 > 15;
#X obj 1579 203 > 25;
#X obj 1021 512 tgl 15 0 empty empty empty 17 7 0 10 #fcfcfc #000000
#000000 0 1;
#X obj 1002 560 bng 15 250 50 0 empty empty empty 17 7 0 10 #fcfcfc
#000000 #000000;
#X msg 941 498 1;
#X obj 1020 537 metro 10000;
#X text 510 493 comment;
#X obj 905 449 delay 2000;
#X obj 908 569 t b b b;
#X msg 1258 622 open whispering.aiff;
#X obj 1222 572 t b b;
#X msg 1217 607 1;
#X obj 1226 696 readsf~;
#X obj 1222 533 bng 15 250 50 0 empty empty empty 17 7 0 10 #fcfcfc
#000000 #000000;
#X obj 1163 712 *~ 3;
#X msg 1631 750 0;
#X text 1663 758 Stop the whispering after we reach the end;
#X obj 1126 517 delay 3000;
#X connect 0 0 1 0;
#X connect 1 0 7 0;
#X connect 1 0 9 0;
#X connect 1 0 16 0;
#X connect 1 0 33 0;
#X connect 1 0 65 0;
#X connect 1 0 2 0;
#X connect 2 0 4 0;
#X connect 2 1 5 0;
#X connect 3 0 59 0;
#X connect 4 0 3 0;
#X connect 5 0 3 0;
#X connect 6 0 8 0;
#X connect 6 0 20 0;
#X connect 6 0 34 0;
#X connect 6 0 42 0;
#X connect 7 0 8 2;
#X connect 8 0 13 0;
#X connect 9 0 10 0;
#X connect 10 0 19 0;
#X connect 10 0 70 0;
#X connect 10 0 71 0;
#X connect 11 0 12 0;
#X connect 12 0 14 0;
#X connect 13 0 30 0;
#X connect 13 0 69 0;
#X connect 14 0 17 0;
#X connect 15 0 14 1;
#X connect 16 0 15 0;
#X connect 17 0 18 0;
#X connect 17 0 8 1;
#X connect 18 0 15 0;
#X connect 19 0 11 0;
#X connect 21 0 23 0;
#X connect 21 1 41 0;
#X connect 22 0 56 0;
#X connect 23 0 22 0;
#X connect 24 0 55 0;
#X connect 25 0 21 0;
#X connect 26 0 27 0;
#X connect 27 0 28 0;
#X connect 28 0 31 0;
#X connect 29 0 28 1;
#X connect 30 0 29 0;
#X connect 31 0 32 0;
#X connect 31 0 34 1;
#X connect 32 0 29 0;
#X connect 32 0 24 0;
#X connect 33 0 34 2;
#X connect 34 0 37 0;
#X connect 35 0 57 0;
#X connect 36 0 35 0;
#X connect 37 0 32 0;
#X connect 37 0 66 0;
#X connect 37 0 51 0;
#X connect 37 0 77 0;
#X connect 37 0 87 0;
#X connect 38 0 35 0;
#X connect 39 0 59 1;
#X connect 40 0 24 0;
#X connect 41 0 22 0;
#X connect 42 0 45 0;
#X connect 43 0 44 0;
#X connect 44 0 49 0;
#X connect 45 0 85 0;
#X connect 45 0 46 0;
#X connect 46 0 48 0;
#X connect 46 1 54 0;
#X connect 47 0 58 0;
#X connect 48 0 47 0;
#X connect 49 0 52 0;
#X connect 50 0 49 1;
#X connect 51 0 50 0;
#X connect 52 0 53 0;
#X connect 52 0 42 1;
#X connect 53 0 50 0;
#X connect 53 0 72 0;
#X connect 54 0 47 0;
#X connect 55 0 25 0;
#X connect 56 0 63 0;
#X connect 56 0 63 1;
#X connect 56 0 63 2;
#X connect 56 0 63 3;
#X connect 57 0 63 0;
#X connect 57 0 63 1;
#X connect 57 0 63 2;
#X connect 57 0 63 3;
#X connect 58 0 63 0;
#X connect 58 0 63 1;
#X connect 58 0 63 2;
#X connect 58 0 63 3;
#X connect 59 0 63 0;
#X connect 59 0 63 1;
#X connect 59 0 63 2;
#X connect 59 0 63 3;
#X connect 60 0 61 0;
#X connect 61 0 59 1;
#X connect 64 0 6 0;
#X connect 65 0 60 0;
#X connect 66 0 42 2;
#X connect 69 0 21 0;
#X connect 69 0 40 0;
#X connect 70 0 26 0;
#X connect 71 0 43 0;
#X connect 72 0 75 0;
#X connect 73 0 78 0;
#X connect 74 0 72 0;
#X connect 75 0 73 0;
#X connect 77 0 74 0;
#X connect 77 0 78 0;
#X connect 78 0 39 0;
#X connect 78 1 36 0;
#X connect 78 2 38 0;
#X connect 79 0 82 0;
#X connect 80 0 81 0;
#X connect 80 1 79 0;
#X connect 81 0 82 0;
#X connect 82 0 84 0;
#X connect 83 0 80 0;
#X connect 84 0 63 0;
#X connect 84 0 63 1;
#X connect 84 0 63 2;
#X connect 84 0 63 3;
#X connect 85 0 82 0;
#X connect 87 0 83 0;
