#N canvas 0 25 1440 847 12;
#X obj 86 19 inlet;
#X obj 87 54 bng 15 250 50 0 empty empty empty 17 7 0 10 #fcfcfc #000000
#000000;
#X obj 593 135 env~;
#X msg 733 335 70;
#X obj 597 379 One_time_threshold;
#X obj 995 57 time;
#X floatatom 995 87 5 0 0 0 - - - 0;
#X floatatom 587 298 5 0 0 0 - - - 0;
#X obj 587 330 sel 1;
#X obj 593 415 bng 15 250 50 0 empty empty empty 17 7 0 10 #fcfcfc
#000000 #000000;
#X obj 685 262 spigot;
#X obj 759 294 tgl 15 0 empty empty empty 17 7 0 10 #fcfcfc #000000
#000000 0 1;
#X msg 755 260 1;
#X obj 659 339 bng 15 250 50 0 empty empty empty 17 7 0 10 #fcfcfc
#000000 #000000;
#X msg 686 299 0;
#X obj 584 266 > 5;
#X floatatom 689 132 5 0 0 0 - - - 0;
#X obj 594 546 t b b;
#X obj 582 630 readsf~;
#X msg 580 580 1;
#X obj 715 481 tgl 15 0 empty empty empty 17 7 0 10 #fcfcfc #000000
#000000 0 1;
#X obj 719 532 bng 15 250 50 0 empty empty empty 17 7 0 10 #fcfcfc
#000000 #000000;
#X floatatom 888 299 5 0 0 0 - - - 0;
#X obj 888 331 sel 1;
#X obj 962 274 spigot;
#X obj 1032 313 tgl 15 0 empty empty empty 17 7 0 10 #fcfcfc #000000
#000000 0 1;
#X msg 1042 282 1;
#X obj 949 332 bng 15 250 50 0 empty empty empty 17 7 0 10 #fcfcfc
#000000 #000000;
#X msg 1069 349 0;
#X msg 1009 342 70;
#X obj 901 375 One_time_threshold;
#X obj 926 699 readsf~;
#X msg 924 602 1;
#X obj 906 422 bng 15 250 50 0 empty empty empty 17 7 0 10 #fcfcfc
#000000 #000000;
#X msg 957 638 open who_are_you.wav;
#X msg 164 415 0;
#X msg 714 454 1;
#X msg 639 579 open hello_kid.wav;
#X obj 1442 466 One_time_threshold;
#X floatatom 1426 216 5 0 0 0 - - - 0;
#X obj 1426 241 sel 1, f 6;
#X obj 1426 500 bng 15 250 50 0 empty empty empty 17 7 0 10 #fcfcfc
#000000 #000000;
#X obj 1429 586 t b b;
#X obj 1433 719 readsf~;
#X msg 1431 622 1;
#X obj 1519 282 spigot;
#X obj 1647 361 tgl 15 0 empty empty empty 17 7 0 10 #fcfcfc #000000
#000000 0 1;
#X msg 1654 324 1;
#X obj 1519 315 bng 15 250 50 0 empty empty empty 17 7 0 10 #fcfcfc
#000000 #000000;
#X msg 1567 342 0;
#X msg 1469 674 open scream3.wav;
#X obj 716 509 metro 10000;
#X obj 219 207 line;
#X floatatom 219 231 5 0 0 0 - - - 0;
#X text 263 211 Fade in of girl laughing;
#X msg 231 168 0 \, 0.1 3000;
#X msg 1545 420 70;
#X text 341 426 Now hello plays every 10sec \, think about if we want
this;
#X text 1210 105 A spigot is opened after the previous threshold was
reached;
#X obj 594 448 delay 1000;
#X obj 888 268 > 15;
#X obj 1426 184 > 25;
#X obj 1021 512 tgl 15 0 empty empty empty 17 7 0 10 #fcfcfc #000000
#000000 0 1;
#X obj 1002 560 bng 15 250 50 0 empty empty empty 17 7 0 10 #fcfcfc
#000000 #000000;
#X msg 941 498 1;
#X obj 1002 536 metro 10000;
#X text 510 493 comment;
#X obj 907 469 delay 2000;
#X obj 908 569 t b b b;
#X msg 1258 622 open whispering.aiff;
#X obj 1222 572 t b b;
#X msg 1218 613 1;
#X obj 1217 682 readsf~;
#X obj 1222 546 bng 15 250 50 0 empty empty empty 17 7 0 10 #fcfcfc
#000000 #000000;
#X msg 1509 777 0;
#X text 1495 816 Stop the whispering after we reach the end;
#X obj 1222 514 delay 3000;
#X obj 152 444 hsl 128 15 0 1 0 0 empty empty empty -2 -8 0 10 #fcfcfc
#000000 #000000 0 1;
#X obj 83 318 readsf~;
#X msg 83 292 1;
#X obj 83 267 t b b;
#X obj 83 247 bng 15 250 50 0 empty empty empty 17 7 0 10 #fcfcfc #000000
#000000;
#X obj 138 342 bng 15 250 50 0 empty empty empty 17 7 0 10 #fcfcfc
#000000 #000000;
#X obj 334 655 throw~ speaker3;
#X obj 251 682 throw~ speaker2;
#X obj 168 709 throw~ speaker1;
#X obj 85 736 throw~ speaker0;
#X obj 97 572 throw~ to_reverb;
#X obj 85 629 pan4_with_center_and_distance_polar~;
#X text 104 245 play;
#X obj 138 364 spigot;
#X obj 177 340 tgl 15 0 empty empty empty 17 7 0 10 #fcfcfc #000000
#000000 0 1;
#X obj 250 602 sig~;
#X obj 286 575 *~ 360;
#X msg 115 292 open girl_laughing_50sec.wav;
#X obj 586 801 pan4_with_center_and_distance_polar~;
#X obj 752 749 sig~;
#X obj 667 749 *~ 360;
#X obj 836 841 throw~ speaker3;
#X obj 753 868 throw~ speaker2;
#X obj 670 895 throw~ speaker1;
#X obj 587 922 throw~ speaker0;
#X obj 690 639 spigot;
#X obj 690 614 bng 15 250 50 0 empty empty empty 17 7 0 10 #fcfcfc
#000000 #000000;
#X obj 729 613 tgl 15 0 empty empty empty 17 7 0 10 #fcfcfc #000000
#000000 0 1;
#X text 718 667 Add this for testing;
#X obj 667 718 phasor~ 10;
#X msg 752 718 5;
#X obj 1204 762 throw~ to_reverb;
#X obj 1426 878 dac~ 1 2 3 4;
#X obj 286 545 phasor~ 1;
#X msg 251 525 3;
#X obj 545 744 throw~ to_reverb;
#X obj 952 772 throw~ to_reverb;
#X obj 1168 721 *~ 2;
#X obj 1058 869 pan4_with_center_and_distance_polar~;
#X obj 1308 909 throw~ speaker3;
#X obj 1225 936 throw~ speaker2;
#X obj 1142 963 throw~ speaker1;
#X obj 1059 990 throw~ speaker0;
#X obj 1433 743 *~ 0.2;
#X obj 593 101 adc~ 3;
#X obj 86 455 *~ 0.5;
#X obj 85 528 *~ 0.3;
#X obj 583 662 *~ 0.2;
#X obj 911 732 *~ 0.1;
#X obj 1171 819 *~ 0.06;
#X connect 0 0 1 0;
#X connect 1 0 3 0;
#X connect 1 0 5 0;
#X connect 1 0 12 0;
#X connect 1 0 29 0;
#X connect 1 0 55 0;
#X connect 1 0 81 0;
#X connect 1 0 111 0;
#X connect 1 0 107 0;
#X connect 2 0 4 0;
#X connect 2 0 16 0;
#X connect 2 0 30 0;
#X connect 2 0 38 0;
#X connect 3 0 4 2;
#X connect 4 0 9 0;
#X connect 5 0 6 0;
#X connect 6 0 15 0;
#X connect 6 0 60 0;
#X connect 6 0 61 0;
#X connect 7 0 8 0;
#X connect 8 0 10 0;
#X connect 9 0 26 0;
#X connect 9 0 59 0;
#X connect 10 0 13 0;
#X connect 11 0 10 1;
#X connect 12 0 11 0;
#X connect 13 0 14 0;
#X connect 13 0 4 1;
#X connect 14 0 11 0;
#X connect 15 0 7 0;
#X connect 17 0 19 0;
#X connect 17 1 37 0;
#X connect 18 0 124 0;
#X connect 18 1 103 0;
#X connect 19 0 18 0;
#X connect 20 0 51 0;
#X connect 21 0 17 0;
#X connect 22 0 23 0;
#X connect 23 0 24 0;
#X connect 24 0 27 0;
#X connect 25 0 24 1;
#X connect 26 0 25 0;
#X connect 27 0 28 0;
#X connect 27 0 30 1;
#X connect 28 0 25 0;
#X connect 28 0 20 0;
#X connect 29 0 30 2;
#X connect 30 0 33 0;
#X connect 31 0 125 0;
#X connect 32 0 31 0;
#X connect 33 0 28 0;
#X connect 33 0 56 0;
#X connect 33 0 47 0;
#X connect 33 0 67 0;
#X connect 33 0 76 0;
#X connect 34 0 31 0;
#X connect 35 0 122 1;
#X connect 36 0 20 0;
#X connect 37 0 18 0;
#X connect 38 0 41 0;
#X connect 39 0 40 0;
#X connect 40 0 45 0;
#X connect 41 0 74 0;
#X connect 41 0 42 0;
#X connect 42 0 44 0;
#X connect 42 1 50 0;
#X connect 43 0 120 0;
#X connect 44 0 43 0;
#X connect 45 0 48 0;
#X connect 46 0 45 1;
#X connect 47 0 46 0;
#X connect 48 0 49 0;
#X connect 48 0 38 1;
#X connect 49 0 46 0;
#X connect 49 0 62 0;
#X connect 50 0 43 0;
#X connect 51 0 21 0;
#X connect 52 0 53 0;
#X connect 53 0 123 0;
#X connect 55 0 52 0;
#X connect 56 0 38 2;
#X connect 59 0 17 0;
#X connect 59 0 36 0;
#X connect 60 0 22 0;
#X connect 61 0 39 0;
#X connect 62 0 65 0;
#X connect 63 0 68 0;
#X connect 64 0 62 0;
#X connect 65 0 63 0;
#X connect 67 0 64 0;
#X connect 67 0 68 0;
#X connect 68 0 35 0;
#X connect 68 1 32 0;
#X connect 68 2 34 0;
#X connect 69 0 72 0;
#X connect 70 0 71 0;
#X connect 70 1 69 0;
#X connect 71 0 72 0;
#X connect 72 0 114 0;
#X connect 73 0 70 0;
#X connect 74 0 72 0;
#X connect 76 0 73 0;
#X connect 77 0 122 1;
#X connect 78 0 122 0;
#X connect 78 1 82 0;
#X connect 79 0 78 0;
#X connect 80 0 79 0;
#X connect 80 1 94 0;
#X connect 81 0 80 0;
#X connect 82 0 90 0;
#X connect 88 0 86 0;
#X connect 88 1 85 0;
#X connect 88 2 84 0;
#X connect 88 3 83 0;
#X connect 90 0 81 0;
#X connect 91 0 90 1;
#X connect 92 0 88 2;
#X connect 93 0 88 1;
#X connect 94 0 78 0;
#X connect 95 0 101 0;
#X connect 95 1 100 0;
#X connect 95 2 99 0;
#X connect 95 3 98 0;
#X connect 96 0 95 2;
#X connect 97 0 95 1;
#X connect 102 0 21 0;
#X connect 103 0 102 0;
#X connect 104 0 102 1;
#X connect 106 0 97 0;
#X connect 107 0 96 0;
#X connect 110 0 93 0;
#X connect 111 0 92 0;
#X connect 114 0 108 0;
#X connect 114 0 126 0;
#X connect 115 0 119 0;
#X connect 115 1 118 0;
#X connect 115 2 117 0;
#X connect 115 3 116 0;
#X connect 120 0 109 0;
#X connect 120 0 109 1;
#X connect 120 0 109 2;
#X connect 120 0 109 3;
#X connect 121 0 2 0;
#X connect 122 0 123 0;
#X connect 123 0 88 0;
#X connect 123 0 87 0;
#X connect 124 0 95 0;
#X connect 124 0 112 0;
#X connect 125 0 95 0;
#X connect 125 0 113 0;
#X connect 126 0 115 0;
