#N canvas -109 103 1920 976 12;
#X obj 758 150 inlet;
#X obj 766 186 bng 15 250 50 0 empty empty empty 17 7 0 10 #fcfcfc
#000000 #000000;
#X obj 726 224 t b b;
#X obj 702 358 readsf~;
#X msg 700 261 1;
#X obj 702 804 dac~ 1 2;
#X obj 710 585 *~;
#X msg 807 468 0.2;
#X obj 898 441 bng 15 250 50 0 empty empty empty 17 7 0 10 #fcfcfc
#000000 #000000;
#X msg 773 291 open girl_laughing_50sec.wav;
#X msg 758 468 1.2;
#X connect 0 0 1 0;
#X connect 1 0 2 0;
#X connect 1 0 10 0;
#X connect 2 0 4 0;
#X connect 2 1 9 0;
#X connect 3 0 6 0;
#X connect 4 0 3 0;
#X connect 6 0 5 0;
#X connect 6 0 5 1;
#X connect 7 0 6 1;
#X connect 8 0 7 0;
#X connect 9 0 3 0;
#X connect 10 0 6 1;
