#N canvas 0 25 1440 847 12;
#X obj 158 95 inlet;
#X obj 159 130 bng 15 250 50 0 empty empty empty 17 7 0 10 #fcfcfc
#000000 #000000;
#X obj 91 165 t b b;
#X obj 99 298 readsf~;
#X msg 93 201 1;
#X msg 166 231 open girl_laughing_50sec.wav;
#X msg 151 408 1.2;
#X obj 1013 254 env~;
#X msg 1110 265 70;
#X obj 1010 321 One_time_threshold;
#X obj 1328 67 time;
#X floatatom 1328 97 5 0 0 0 - - - 0;
#X floatatom 1151 216 5 0 0 0 - - - 0;
#X obj 1151 248 sel 1;
#X obj 1020 368 bng 15 250 50 0 empty empty empty 17 7 0 10 #fcfcfc
#000000 #000000;
#X obj 1156 308 spigot;
#X obj 1232 343 tgl 15 0 empty empty empty 17 7 0 10 #fcfcfc #000000
#000000 0 1;
#X msg 1239 306 1;
#X obj 1138 356 bng 15 250 50 0 empty empty empty 17 7 0 10 #fcfcfc
#000000 #000000;
#X msg 1186 373 0;
#X obj 1144 180 > 5;
#X floatatom 884 229 5 0 0 0 - - - 0;
#X obj 975 481 t b b;
#X obj 995 636 readsf~;
#X msg 993 539 1;
#X obj 1292 487 tgl 15 0 empty empty empty 17 7 0 10 #fcfcfc #000000
#000000 0 1;
#X obj 1030 472 bng 15 250 50 0 empty empty empty 17 7 0 10 #fcfcfc
#000000 #000000;
#X floatatom 1417 174 5 0 0 0 - - - 0;
#X obj 1417 206 sel 1;
#X obj 1466 249 spigot;
#X obj 1576 333 tgl 15 0 empty empty empty 17 7 0 10 #fcfcfc #000000
#000000 0 1;
#X msg 1583 296 1;
#X obj 1448 287 bng 15 250 50 0 empty empty empty 17 7 0 10 #fcfcfc
#000000 #000000;
#X msg 1496 314 0;
#X msg 1481 384 70;
#X obj 1380 441 One_time_threshold;
#X text 671 365 Reset time to 0 after first threshold is reached;
#X obj 1284 571 t b b;
#X obj 1288 704 readsf~;
#X msg 1286 607 1;
#X obj 1406 534 bng 15 250 50 0 empty empty empty 17 7 0 10 #fcfcfc
#000000 #000000;
#X msg 1324 658 open who_are_you.wav;
#X msg 318 454 0;
#X msg 1190 461 1;
#X msg 1066 569 open hello_kid.wav;
#X obj 1417 143 > 10;
#X msg 200 408 0.5;
#X obj 1564 439 One_time_threshold;
#X msg 1667 393 90;
#X floatatom 1597 177 5 0 0 0 - - - 0;
#X obj 1597 209 sel 1;
#X obj 1600 140 > 15;
#X obj 1558 525 bng 15 250 50 0 empty empty empty 17 7 0 10 #fcfcfc
#000000 #000000;
#X obj 1551 559 t b b;
#X obj 1555 692 readsf~;
#X msg 1553 595 1;
#X obj 1659 250 spigot;
#X obj 1769 334 tgl 15 0 empty empty empty 17 7 0 10 #fcfcfc #000000
#000000 0 1;
#X msg 1776 297 1;
#X obj 1641 288 bng 15 250 50 0 empty empty empty 17 7 0 10 #fcfcfc
#000000 #000000;
#X msg 1689 315 0;
#X msg 1591 647 open scream3.wav;
#X obj 1118 514 metro 10000;
#X obj 1008 204 adc~ 3;
#X obj 966 875 dac~ 1 2 3 4;
#X obj 977 700 *~ 0.06;
#X obj 1273 737 *~ 0.06;
#X obj 1555 716 *~ 0.08;
#X obj 103 525 *~ 0.2;
#X connect 0 0 1 0;
#X connect 0 0 2 0;
#X connect 1 0 6 0;
#X connect 1 0 8 0;
#X connect 1 0 10 0;
#X connect 1 0 17 0;
#X connect 1 0 34 0;
#X connect 1 0 31 0;
#X connect 1 0 58 0;
#X connect 2 0 4 0;
#X connect 2 1 5 0;
#X connect 3 0 68 0;
#X connect 4 0 3 0;
#X connect 5 0 3 0;
#X connect 6 0 68 1;
#X connect 7 0 9 0;
#X connect 7 0 21 0;
#X connect 7 0 35 0;
#X connect 7 0 47 0;
#X connect 8 0 9 2;
#X connect 9 0 14 0;
#X connect 10 0 11 0;
#X connect 11 0 20 0;
#X connect 11 0 45 0;
#X connect 11 0 51 0;
#X connect 12 0 13 0;
#X connect 13 0 15 0;
#X connect 14 0 46 0;
#X connect 14 0 43 0;
#X connect 14 0 22 0;
#X connect 15 0 18 0;
#X connect 16 0 15 1;
#X connect 17 0 16 0;
#X connect 18 0 19 0;
#X connect 18 0 9 1;
#X connect 19 0 16 0;
#X connect 20 0 12 0;
#X connect 22 0 24 0;
#X connect 22 1 44 0;
#X connect 23 0 65 0;
#X connect 24 0 23 0;
#X connect 25 0 62 0;
#X connect 26 0 22 0;
#X connect 27 0 28 0;
#X connect 28 0 29 0;
#X connect 29 0 32 0;
#X connect 30 0 29 1;
#X connect 31 0 30 0;
#X connect 32 0 33 0;
#X connect 32 0 35 1;
#X connect 33 0 30 0;
#X connect 33 0 25 0;
#X connect 34 0 35 2;
#X connect 35 0 40 0;
#X connect 37 0 39 0;
#X connect 37 1 41 0;
#X connect 38 0 66 0;
#X connect 39 0 38 0;
#X connect 40 0 37 0;
#X connect 40 0 33 0;
#X connect 40 0 48 0;
#X connect 41 0 38 0;
#X connect 42 0 68 1;
#X connect 43 0 25 0;
#X connect 44 0 23 0;
#X connect 45 0 27 0;
#X connect 46 0 68 1;
#X connect 47 0 52 0;
#X connect 48 0 47 2;
#X connect 49 0 50 0;
#X connect 50 0 56 0;
#X connect 51 0 49 0;
#X connect 52 0 53 0;
#X connect 52 0 42 0;
#X connect 53 0 55 0;
#X connect 53 1 61 0;
#X connect 54 0 67 0;
#X connect 55 0 54 0;
#X connect 56 0 59 0;
#X connect 57 0 56 1;
#X connect 58 0 57 0;
#X connect 59 0 60 0;
#X connect 59 0 47 1;
#X connect 60 0 57 0;
#X connect 61 0 54 0;
#X connect 62 0 26 0;
#X connect 63 0 7 0;
#X connect 65 0 64 0;
#X connect 65 0 64 1;
#X connect 65 0 64 2;
#X connect 65 0 64 3;
#X connect 66 0 64 0;
#X connect 66 0 64 1;
#X connect 66 0 64 2;
#X connect 66 0 64 3;
#X connect 67 0 64 0;
#X connect 67 0 64 1;
#X connect 67 0 64 2;
#X connect 67 0 64 3;
#X connect 68 0 64 0;
#X connect 68 0 64 1;
#X connect 68 0 64 2;
#X connect 68 0 64 3;
