#N canvas -109 103 1920 976 12;
#X obj 158 95 inlet;
#X obj 159 130 bng 15 250 50 0 empty empty empty 17 7 0 10 #fcfcfc
#000000 #000000;
#X obj 91 165 t b b;
#X obj 99 298 readsf~;
#X msg 93 201 1;
#X obj 967 809 dac~ 1 2;
#X obj 103 525 *~;
#X msg 200 408 0.2;
#X msg 166 231 open girl_laughing_50sec.wav;
#X msg 151 408 1.2;
#X obj 1008 204 adc~ 1 2;
#X obj 1008 245 env~;
#X msg 1110 265 70;
#X obj 1010 321 One_time_threshold;
#X obj 1102 122 time;
#X floatatom 1102 152 5 0 0 0 - - - 0;
#X floatatom 1151 216 5 0 0 0 - - - 0;
#X obj 1151 248 sel 1;
#X obj 1020 368 bng 15 250 50 0 empty empty empty 17 7 0 10 #fcfcfc
#000000 #000000;
#X obj 1156 308 spigot;
#X obj 1232 343 tgl 15 0 empty empty empty 17 7 0 10 #fcfcfc #000000
#000000 0 1;
#X msg 1239 306 1;
#X obj 1138 356 bng 15 250 50 0 empty empty empty 17 7 0 10 #fcfcfc
#000000 #000000;
#X msg 1186 373 0;
#X obj 1151 185 > 5;
#X floatatom 884 229 5 0 0 0 - - - 0;
#X obj 975 481 t b b;
#X obj 995 636 readsf~;
#X msg 993 539 1;
#X obj 1292 487 tgl 15 0 empty empty empty 17 7 0 10 #fcfcfc #000000
#000000 0 1;
#X obj 1030 472 bng 15 250 50 0 empty empty empty 17 7 0 10 #fcfcfc
#000000 #000000;
#X obj 1158 510 metro 3000;
#X obj 977 700 *~ 0.8;
#X floatatom 1628 88 5 0 0 0 - - - 0;
#X obj 1628 120 sel 1;
#X obj 1677 163 spigot;
#X obj 1753 198 tgl 15 0 empty empty empty 17 7 0 10 #fcfcfc #000000
#000000 0 1;
#X msg 1760 161 1;
#X obj 1659 201 bng 15 250 50 0 empty empty empty 17 7 0 10 #fcfcfc
#000000 #000000;
#X msg 1707 228 0;
#X obj 1527 237 adc~ 1 2;
#X obj 1527 278 env~;
#X msg 1692 298 70;
#X obj 1592 354 One_time_threshold;
#X text 671 365 Reset time to 0 after first threshold is reached;
#X obj 1578 479 t b b;
#X obj 1582 612 readsf~;
#X msg 1580 515 1;
#X obj 1617 448 bng 15 250 50 0 empty empty empty 17 7 0 10 #fcfcfc
#000000 #000000;
#X msg 1618 566 open who_are_you.wav;
#X msg 247 404 0;
#X msg 1190 461 1;
#X obj 1067 69 bng 15 250 50 0 empty empty empty 17 7 0 10 #fcfcfc
#000000 #000000;
#X obj 1097 69 bng 15 250 50 0 empty empty empty 17 7 0 10 #fcfcfc
#000000 #000000;
#X obj 1582 636 *~ 0.8;
#X msg 1066 569 open hello_kid.wav;
#X obj 1628 57 > 7;
#X connect 0 0 1 0;
#X connect 1 0 2 0;
#X connect 1 0 9 0;
#X connect 1 0 12 0;
#X connect 1 0 14 0;
#X connect 1 0 21 0;
#X connect 1 0 42 0;
#X connect 1 0 37 0;
#X connect 2 0 4 0;
#X connect 2 1 8 0;
#X connect 3 0 6 0;
#X connect 4 0 3 0;
#X connect 6 0 5 0;
#X connect 6 0 5 1;
#X connect 7 0 6 1;
#X connect 8 0 3 0;
#X connect 9 0 6 1;
#X connect 10 0 11 0;
#X connect 11 0 13 0;
#X connect 11 0 25 0;
#X connect 12 0 13 2;
#X connect 13 0 18 0;
#X connect 14 0 15 0;
#X connect 15 0 24 0;
#X connect 15 0 56 0;
#X connect 16 0 17 0;
#X connect 17 0 19 0;
#X connect 18 0 7 0;
#X connect 18 0 51 0;
#X connect 18 0 26 0;
#X connect 18 0 52 0;
#X connect 19 0 22 0;
#X connect 20 0 19 1;
#X connect 21 0 20 0;
#X connect 22 0 23 0;
#X connect 22 0 13 1;
#X connect 23 0 20 0;
#X connect 24 0 16 0;
#X connect 26 0 28 0;
#X connect 26 1 55 0;
#X connect 27 0 32 0;
#X connect 28 0 27 0;
#X connect 29 0 31 0;
#X connect 30 0 26 0;
#X connect 31 0 30 0;
#X connect 32 0 5 0;
#X connect 32 0 5 1;
#X connect 33 0 34 0;
#X connect 34 0 35 0;
#X connect 35 0 38 0;
#X connect 36 0 35 1;
#X connect 37 0 36 0;
#X connect 38 0 39 0;
#X connect 38 0 43 1;
#X connect 39 0 36 0;
#X connect 39 0 29 0;
#X connect 40 0 41 0;
#X connect 41 0 43 0;
#X connect 42 0 43 2;
#X connect 43 0 48 0;
#X connect 45 0 47 0;
#X connect 45 1 49 0;
#X connect 46 0 54 0;
#X connect 47 0 46 0;
#X connect 48 0 45 0;
#X connect 48 0 39 0;
#X connect 48 0 50 0;
#X connect 49 0 46 0;
#X connect 50 0 6 1;
#X connect 51 0 29 0;
#X connect 52 0 14 0;
#X connect 52 0 53 0;
#X connect 53 0 14 0;
#X connect 54 0 5 0;
#X connect 54 0 5 1;
#X connect 55 0 27 0;
#X connect 56 0 33 0;
