#N canvas 0 25 1920 976 12;
#X obj 431 329 noise~;
#X obj 437 562 bob~;
#X floatatom 465 536 5 0 0 0 - - - 0;
#X obj 445 297 tgl 15 0 empty empty empty 0 -6 0 8 #dcdcdc #000000
#000000 0 1;
#X obj 434 195 loadbang;
#X obj 448 421 line;
#X floatatom 448 445 5 0 0 0 - - - 0;
#X obj 448 373 metro 10000;
#X obj 131 412 t b b;
#X obj 117 513 readsf~;
#X msg 114 455 1;
#X msg 466 510 1;
#X msg 443 399 400 \, 600 10000;
#X msg 153 449 open Rustling.wav;
#X obj 562 506 line;
#X floatatom 409 711 5 0 0 0 - - - 0;
#X text 567 446 Gradual start;
#X obj 363 731 *~;
#X msg 563 476 0 \, 10 30000;
#X obj 896 432 env~;
#X msg 996 350 70;
#X floatatom 838 324 5 0 0 0 - - - 0;
#X obj 902 557 Noise_transition;
#X obj 147 183 line;
#X floatatom 147 207 4 0 0 0 - - - 0;
#X obj 1334 660 4ch_output_section;
#X obj 1195 714 rev3~ 100 90 3000 20;
#X obj 1332 750 throw~ speaker3;
#X obj 1286 777 throw~ speaker2;
#X obj 1240 804 throw~ speaker1;
#X obj 1195 831 throw~ speaker0;
#X obj 1195 580 catch~ to_reverb;
#X obj 1195 678 *~ 0.3;
#X msg 1241 168 open birds.wav;
#X obj 1193 129 t b b;
#X msg 1192 166 1;
#X obj 1192 204 readsf~, f 8;
#X floatatom 1358 280 5 0 0 0 - - - 0;
#X obj 1442 453 throw~ speaker3;
#X obj 1359 480 throw~ speaker2;
#X obj 1276 507 throw~ speaker1;
#X obj 1193 534 throw~ speaker0;
#X obj 1205 370 throw~ to_reverb;
#X obj 1193 427 pan4_with_center_and_distance_polar~;
#X obj 1358 307 sig~;
#X obj 1394 373 *~ 360;
#X obj 1394 343 phasor~ 1;
#X floatatom 1414 308 5 0 0 0 - - - 0;
#X msg 1492 236 2;
#X obj 1193 274 *~ 1;
#X text 1428 268 Speed of circle;
#X text 1344 201 Distance from center;
#X obj 324 798 dac~ 1 2 3 4;
#X msg 1358 233 4;
#X obj 1193 326 *~ 0.3;
#X obj 434 610 *~ 0.03;
#X obj 129 600 *~ 0.02;
#X msg 145 125 0.02 \, 0 3000;
#X obj 899 515 bng 15 250 50 0 empty empty empty 17 7 0 10 #fcfcfc
#000000 #000000;
#X obj 898 477 delay_threshold;
#X obj 954 447 delay 20000;
#X obj 130 375 loadbang;
#X obj 1190 87 loadbang;
#X obj 984 296 loadbang;
#X obj 499 449 loadbang;
#X text 806 272 20 seconds until threshold is activated;
#X obj 894 324 adc~ 1 2;
#X text 370 102 This patch is meant to be used with 4 speakers. Furthermore
\, adc was on 3 \, because of the external microphone. We changed this
to 1/2 after our demonstration;
#X connect 0 0 1 0;
#X connect 1 0 55 0;
#X connect 2 0 1 2;
#X connect 3 0 7 0;
#X connect 4 0 3 0;
#X connect 5 0 6 0;
#X connect 6 0 1 1;
#X connect 7 0 12 0;
#X connect 8 0 10 0;
#X connect 8 1 13 0;
#X connect 9 0 56 0;
#X connect 10 0 9 0;
#X connect 11 0 2 0;
#X connect 12 0 5 0;
#X connect 13 0 9 0;
#X connect 14 0 15 0;
#X connect 15 0 17 1;
#X connect 17 0 52 0;
#X connect 17 0 52 1;
#X connect 17 0 52 2;
#X connect 17 0 52 3;
#X connect 18 0 14 0;
#X connect 19 0 21 0;
#X connect 19 0 59 0;
#X connect 20 0 59 2;
#X connect 23 0 24 0;
#X connect 24 0 49 1;
#X connect 24 0 55 1;
#X connect 24 0 56 1;
#X connect 26 0 30 0;
#X connect 26 1 29 0;
#X connect 26 2 28 0;
#X connect 26 3 27 0;
#X connect 31 0 32 0;
#X connect 32 0 26 0;
#X connect 33 0 36 0;
#X connect 34 0 35 0;
#X connect 34 1 33 0;
#X connect 35 0 36 0;
#X connect 36 0 49 0;
#X connect 37 0 44 0;
#X connect 43 0 41 0;
#X connect 43 1 40 0;
#X connect 43 2 39 0;
#X connect 43 3 38 0;
#X connect 44 0 43 2;
#X connect 45 0 43 1;
#X connect 46 0 45 0;
#X connect 47 0 46 0;
#X connect 48 0 47 0;
#X connect 49 0 54 0;
#X connect 53 0 37 0;
#X connect 54 0 42 0;
#X connect 54 0 43 0;
#X connect 55 0 17 0;
#X connect 56 0 17 0;
#X connect 57 0 23 0;
#X connect 58 0 22 0;
#X connect 58 0 57 0;
#X connect 59 0 58 0;
#X connect 60 0 59 1;
#X connect 61 0 8 0;
#X connect 62 0 34 0;
#X connect 62 0 53 0;
#X connect 62 0 48 0;
#X connect 63 0 20 0;
#X connect 63 0 60 0;
#X connect 64 0 18 0;
#X connect 64 0 11 0;
#X connect 66 0 19 0;
#X connect 66 1 19 0;
