#N canvas 27 46 1187 664 12;
#X obj 389 168 adc~ 1 2;
#X obj 389 209 env~;
#X obj 454 468 readsf~;
#X msg 391 423 1;
#X obj 449 554 dac~ 1 2;
#X obj 452 397 bng 15 250 50 0 empty empty empty 17 7 0 10 #fcfcfc
#000000 #000000;
#X obj 391 340 trigger b b;
#X msg 491 229 70;
#X msg 453 423 open crow_caw.wav;
#X obj 391 285 One_time_threshold;
#X obj 464 64 time;
#X obj 464 38 bng 15 250 50 0 empty empty empty 17 7 0 10 #fcfcfc #000000
#000000;
#X floatatom 464 94 5 0 0 0 - - - 0;
#X floatatom 532 180 5 0 0 0 - - - 0;
#X floatatom 566 104 5 0 0 0 - - - 0;
#X obj 532 212 sel 1;
#X obj 532 242 bng 15 250 50 0 empty empty empty 17 7 0 10 #fcfcfc
#000000 #000000;
#X obj 532 149 >;
#X obj 568 61 inlet;
#X obj 690 53 adc~ 3;
#X obj 689 92 env~;
#X floatatom 689 125 5 0 0 0 - - - 0;
#X obj 741 240 high_threshold;
#X obj 770 126 time;
#X obj 769 79 bng 15 250 50 0 empty empty empty 17 7 0 10 #fcfcfc #000000
#000000;
#X msg 835 204 15, f 4;
#X msg 805 169 70;
#X floatatom 744 173 5 0 0 0 - - - 0;
#X obj 739 294 bng 15 250 50 0 empty empty empty 17 7 0 10 #fcfcfc
#000000 #000000;
#X obj 37 37;
#X obj 905 134 loadbang;
#X obj 96 248 delay_threshold;
#X obj 87 125 adc~ 3;
#X obj 86 164 env~;
#X floatatom 86 197 5 0 0 0 - - - 0;
#X msg 247 220 70;
#X obj 104 314 bng 15 250 50 0 empty empty empty 17 7 0 10 #fcfcfc
#000000 #000000;
#X obj 170 113 bng 15 250 50 0 empty empty empty 17 7 0 10 #fcfcfc
#000000 #000000;
#X obj 146 202 delay 6000;
#X obj 245 165 bng 15 250 50 0 empty empty empty 17 7 0 10 #fcfcfc
#000000 #000000;
#X connect 0 0 1 0;
#X connect 1 0 9 0;
#X connect 2 0 4 0;
#X connect 2 0 4 1;
#X connect 3 0 2 0;
#X connect 5 0 8 0;
#X connect 6 0 3 0;
#X connect 6 1 5 0;
#X connect 7 0 9 1;
#X connect 8 0 2 0;
#X connect 9 0 6 0;
#X connect 10 0 12 0;
#X connect 11 0 10 0;
#X connect 12 0 17 0;
#X connect 13 0 15 0;
#X connect 14 0 17 1;
#X connect 15 0 16 0;
#X connect 16 0 9 2;
#X connect 17 0 13 0;
#X connect 18 0 14 0;
#X connect 19 0 20 0;
#X connect 20 0 21 0;
#X connect 21 0 22 0;
#X connect 22 0 28 0;
#X connect 23 0 22 1;
#X connect 23 0 27 0;
#X connect 24 0 23 0;
#X connect 25 0 22 3;
#X connect 26 0 22 2;
#X connect 30 0 24 0;
#X connect 30 0 26 0;
#X connect 30 0 25 0;
#X connect 31 0 36 0;
#X connect 32 0 33 0;
#X connect 33 0 34 0;
#X connect 34 0 31 0;
#X connect 35 0 31 2;
#X connect 37 0 38 0;
#X connect 38 0 31 1;
#X connect 39 0 35 0;
