#N canvas 0 25 1440 847 12;
#X obj 747 313 noise~;
#X obj 750 507 bob~;
#X obj 763 435 line;
#X floatatom 763 459 5 0 0 0 - - - 0;
#X obj 759 367 bng 15 250 50 0 empty empty empty 17 7 0 10 #fcfcfc
#000000 #000000;
#X msg 758 413 400 \, 1200 10000;
#X obj 399 455 t b b;
#X obj 365 573 readsf~;
#X msg 348 511 1;
#X obj 401 403 bng 15 250 50 0 empty empty empty 17 7 0 10 #fcfcfc
#000000 #000000;
#X msg 423 509 open Rustling.wav;
#X obj 903 448 line;
#X floatatom 903 472 5 0 0 0 - - - 0;
#X obj 937 373 bng 15 250 50 0 empty empty empty 17 7 0 10 #fcfcfc
#000000 #000000;
#X obj 556 690 *~ 1;
#X text 850 550 Sound of wind gets a bit louder over time;
#X text 206 452 Rustling sound just stays;
#X text 32 29 My idea for the transition would be to go from the lowness
of the nice forest wind to the highness of the scary forest wind (from
400 to 1200). The rustling leaves stay the same \, although they are
louder in the dark ambience one --> line for making it louder is an
option. The birds stop whistling after a certain amount of time (now
7MS). After this patch time (now 10000 MS but we can edit it) we can
go to the regular forest which would mean crows are added to the environment.
;
#X obj 1391 412 env~;
#X msg 1493 432 70;
#X obj 1393 488 One_time_threshold;
#X obj 1520 215 time;
#X floatatom 1520 245 5 0 0 0 - - - 0;
#X floatatom 1569 309 5 0 0 0 - - - 0;
#X obj 1569 341 sel 1;
#X obj 1569 278 > 10;
#X obj 1403 535 bng 15 250 50 0 empty empty empty 17 7 0 10 #fcfcfc
#000000 #000000;
#X floatatom 1278 409 5 0 0 0 - - - 0;
#X obj 1597 570 spigot;
#X obj 1646 528 tgl 15 0 empty empty empty 17 7 0 10 #fcfcfc #000000
#000000 0 1;
#X msg 1639 473 1;
#X obj 1580 607 bng 15 250 50 0 empty empty empty 17 7 0 10 #fcfcfc
#000000 #000000;
#X msg 1690 597 0;
#X obj 827 130 bng 15 250 50 0 empty empty empty 17 7 0 10 #fcfcfc
#000000 #000000;
#X text 736 46 INLET. Gets banged from ambience;
#X obj 817 77 inlet;
#X obj 1400 577 DarkAmbience;
#X obj 1067 477 line;
#X floatatom 1067 501 5 0 0 0 - - - 0;
#X msg 1067 453 0.1 \, 0 3000;
#X msg 895 426 0 \, 0.1 3000;
#X text 964 403 Fade in;
#X text 1081 423 Fade out;
#X obj 529 785 dac~ 1 2 3 4;
#X obj 757 788 else/pan2~;
#X obj 869 821 hsl 128 15 -1 1 0 0 empty empty empty -2 -8 0 10 #dcdcdc
#000000 #000000 0 1;
#X floatatom 866 854 0 0 0 0 - - - 0;
#X obj 866 875 else/float2sig~ 100;
#X obj 866 790 line, f 11;
#X msg 989 752 1 \, -1 6000;
#X obj 1600 381 delay 10000;
#X obj 1616 427 bng 15 250 50 0 empty empty empty 17 7 0 10 #fcfcfc
#000000 #000000;
#X msg 865 751 -1 \, 1 6000;
#X obj 1018 589 bng 15 250 50 0 empty empty empty 17 7 0 10 #fcfcfc
#000000 #000000;
#X obj 1018 666 f;
#X obj 1069 667 + 1;
#X floatatom 1019 695 5 0 0 0 - - - 0;
#X obj 1018 717 sel 0 1;
#X obj 1103 667 mod 2;
#X obj 1018 621 metro 6000;
#X obj 367 617 *~ 0.07;
#X obj 757 887 dac~ 2 4;
#X obj 755 739 *~ 0.09;
#X obj 1391 371 adc~ 3;
#X connect 0 0 1 0;
#X connect 1 0 62 0;
#X connect 2 0 3 0;
#X connect 3 0 1 1;
#X connect 4 0 5 0;
#X connect 5 0 2 0;
#X connect 6 0 8 0;
#X connect 6 1 10 0;
#X connect 7 0 60 0;
#X connect 8 0 7 0;
#X connect 9 0 6 0;
#X connect 10 0 7 0;
#X connect 11 0 12 0;
#X connect 12 0 14 1;
#X connect 12 0 62 1;
#X connect 13 0 40 0;
#X connect 14 0 43 0;
#X connect 14 0 43 1;
#X connect 14 0 43 2;
#X connect 14 0 43 3;
#X connect 18 0 20 0;
#X connect 18 0 27 0;
#X connect 19 0 20 2;
#X connect 20 0 26 0;
#X connect 21 0 22 0;
#X connect 22 0 25 0;
#X connect 23 0 24 0;
#X connect 25 0 23 0;
#X connect 26 0 39 0;
#X connect 26 0 36 0;
#X connect 28 0 31 0;
#X connect 29 0 28 1;
#X connect 30 0 29 0;
#X connect 31 0 32 0;
#X connect 31 0 20 1;
#X connect 32 0 29 0;
#X connect 33 0 4 0;
#X connect 33 0 13 0;
#X connect 33 0 9 0;
#X connect 33 0 19 0;
#X connect 33 0 50 0;
#X connect 33 0 30 0;
#X connect 33 0 53 0;
#X connect 35 0 33 0;
#X connect 37 0 38 0;
#X connect 38 0 14 1;
#X connect 38 0 62 1;
#X connect 39 0 37 0;
#X connect 40 0 11 0;
#X connect 44 0 61 0;
#X connect 44 1 61 1;
#X connect 45 0 46 0;
#X connect 46 0 47 0;
#X connect 47 0 44 1;
#X connect 48 0 45 0;
#X connect 49 0 48 0;
#X connect 50 0 51 0;
#X connect 51 0 28 0;
#X connect 52 0 48 0;
#X connect 53 0 59 0;
#X connect 54 0 55 0;
#X connect 54 0 56 0;
#X connect 55 0 58 0;
#X connect 56 0 57 0;
#X connect 57 0 52 0;
#X connect 57 1 49 0;
#X connect 58 0 54 1;
#X connect 59 0 54 0;
#X connect 60 0 14 0;
#X connect 62 0 44 0;
#X connect 63 0 18 0;
