#N canvas 0 0 1920 976 12;
#X obj 209 594 bob~;
#X obj 222 522 line;
#X floatatom 222 546 5 0 0 0 - - - 0;
#X msg 217 500 400 \, 1200 10000;
#X obj 211 103 t b b;
#X obj 210 169 readsf~;
#X msg 210 140 1;
#X msg 251 141 open Rustling.wav;
#X obj 212 250 *~ 1;
#X obj 752 602 env~;
#X msg 895 625 70;
#X obj 765 694 bng 15 250 50 0 empty empty empty 17 7 0 10 #fcfcfc
#000000 #000000;
#X floatatom 704 563 5 0 0 0 - - - 0;
#X obj 798 104 bng 15 250 50 0 empty empty empty 17 7 0 10 #fcfcfc
#000000 #000000;
#X obj 788 51 inlet;
#X obj 766 739 DarkAmbience;
#X obj 460 432 line;
#X floatatom 460 456 5 0 0 0 - - - 0;
#X msg 460 408 0.1 \, 0 3000;
#X text 460 388 Fade out;
#X obj 172 308 dac~ 1 2 3 4;
#X obj 212 678 else/pan2~;
#X obj 324 711 hsl 128 15 -1 1 0 0 empty empty empty -2 -8 0 10 #dcdcdc
#000000 #000000 0 1;
#X floatatom 321 744 0 0 0 0 - - - 0;
#X obj 321 765 else/float2sig~ 100;
#X obj 321 680 line, f 11;
#X msg 444 642 1 \, -1 6000;
#X msg 320 641 -1 \, 1 6000;
#X obj 473 557 f;
#X obj 524 558 + 1;
#X floatatom 474 585 5 0 0 0 - - - 0;
#X obj 473 607 sel 0 1;
#X obj 568 557 mod 2;
#X obj 473 512 metro 6000;
#X obj 212 777 dac~ 2 4;
#X obj 763 649 delay_threshold;
#X obj 796 603 delay 10000;
#X obj 212 213 *~ 0.08;
#X obj 162 547 noise~;
#X obj 839 300 readsf~;
#X msg 837 267 1;
#X obj 837 217 t b b;
#X msg 873 265 open owl.wav;
#X obj 210 629 *~ 0.05;
#X obj 842 356 *~ 0.3;
#X obj 1119 307 readsf~;
#X msg 1118 272 1;
#X obj 1117 225 t b b;
#X msg 1213 244 open wolf_howl.wav;
#X obj 1118 192 delay 8000;
#X obj 1414 267 readsf~;
#X msg 1412 234 1;
#X obj 1410 187 t b b;
#X msg 1507 206 open crickets.wav;
#X obj 1108 604 *~ 1;
#X obj 1154 421 fadeIn;
#X obj 1501 253 delay 6000;
#X obj 1090 662 dac~ 1 2 3 4;
#X obj 1415 310 *~ 0.3;
#X obj 1121 531 *~ 0.9;
#X obj 1666 405 throw~ speaker3;
#X obj 1583 432 throw~ speaker2;
#X obj 1500 459 throw~ speaker1;
#X obj 1417 486 throw~ speaker0;
#X obj 1417 379 pan4_with_center_and_distance_polar~;
#X floatatom 1769 211 5 0 0 0 - - - 0;
#X obj 1769 255 sig~;
#X obj 1682 263 *~ 360;
#X obj 1682 233 phasor~ 1;
#X floatatom 1682 212 5 0 0 0 - - - 0;
#X msg 1682 183 2;
#X msg 1769 186 2;
#X obj 648 134 FadeIn;
#X obj 1500 305 line;
#X floatatom 1500 329 5 0 0 0 - - - 0;
#X msg 1500 281 0.1 \, 0 3000;
#X obj 895 600 loadbang;
#X text 801 487 Threshold activated after 10 seconds;
#X text 160 818 Wind moves from speaker 2 to 4;
#X text 1224 129 Shortly after crickets fade the wolf howls;
#X obj 1682 151 loadbang;
#X obj 1769 156 loadbang;
#X text 1422 514 Crickets circle;
#X obj 751 563 adc~ 1 2;
#X connect 0 0 43 0;
#X connect 1 0 2 0;
#X connect 2 0 0 1;
#X connect 3 0 1 0;
#X connect 4 0 6 0;
#X connect 4 1 7 0;
#X connect 5 0 37 0;
#X connect 6 0 5 0;
#X connect 7 0 5 0;
#X connect 8 0 20 0;
#X connect 8 0 20 1;
#X connect 8 0 20 2;
#X connect 8 0 20 3;
#X connect 9 0 35 0;
#X connect 9 0 12 0;
#X connect 10 0 35 2;
#X connect 11 0 18 0;
#X connect 11 0 15 0;
#X connect 13 0 36 0;
#X connect 13 0 55 0;
#X connect 13 0 49 0;
#X connect 13 0 41 0;
#X connect 13 0 52 0;
#X connect 13 0 56 0;
#X connect 13 0 72 0;
#X connect 13 0 4 0;
#X connect 13 0 3 0;
#X connect 13 0 33 0;
#X connect 14 0 13 0;
#X connect 16 0 17 0;
#X connect 17 0 8 1;
#X connect 17 0 43 1;
#X connect 17 0 44 1;
#X connect 18 0 16 0;
#X connect 21 0 34 0;
#X connect 21 1 34 1;
#X connect 22 0 23 0;
#X connect 23 0 24 0;
#X connect 24 0 21 1;
#X connect 25 0 22 0;
#X connect 26 0 25 0;
#X connect 27 0 25 0;
#X connect 28 0 29 0;
#X connect 28 0 30 0;
#X connect 29 0 32 0;
#X connect 30 0 31 0;
#X connect 31 0 27 0;
#X connect 31 1 26 0;
#X connect 32 0 28 1;
#X connect 33 0 28 0;
#X connect 35 0 11 0;
#X connect 36 0 35 1;
#X connect 37 0 8 0;
#X connect 38 0 0 0;
#X connect 39 0 44 0;
#X connect 40 0 39 0;
#X connect 41 0 40 0;
#X connect 41 1 42 0;
#X connect 42 0 39 0;
#X connect 43 0 21 0;
#X connect 44 0 54 0;
#X connect 45 0 59 0;
#X connect 46 0 45 0;
#X connect 47 0 46 0;
#X connect 47 1 48 0;
#X connect 48 0 45 0;
#X connect 49 0 47 0;
#X connect 50 0 58 0;
#X connect 51 0 50 0;
#X connect 52 0 51 0;
#X connect 52 1 53 0;
#X connect 53 0 50 0;
#X connect 54 0 57 0;
#X connect 54 0 57 1;
#X connect 54 0 57 2;
#X connect 54 0 57 3;
#X connect 55 0 58 1;
#X connect 55 0 59 1;
#X connect 56 0 75 0;
#X connect 58 0 64 0;
#X connect 59 0 54 0;
#X connect 64 0 63 0;
#X connect 64 1 62 0;
#X connect 64 2 61 0;
#X connect 64 3 60 0;
#X connect 65 0 66 0;
#X connect 66 0 64 2;
#X connect 67 0 64 1;
#X connect 68 0 67 0;
#X connect 69 0 68 0;
#X connect 70 0 69 0;
#X connect 71 0 65 0;
#X connect 72 0 8 1;
#X connect 72 0 43 1;
#X connect 72 0 44 1;
#X connect 73 0 74 0;
#X connect 74 0 58 1;
#X connect 75 0 73 0;
#X connect 76 0 10 0;
#X connect 80 0 70 0;
#X connect 81 0 71 0;
#X connect 83 0 9 0;
#X connect 83 1 9 0;
