#N canvas -274 33 1920 976 12;
#X obj 713 307 noise~;
#X obj 863 372 bob~;
#X obj 877 70 loadbang;
#X obj 876 241 line;
#X floatatom 876 265 5 0 0 0 - - - 0;
#X obj 872 173 bng 15 250 50 0 empty empty empty 17 7 0 10 #fcfcfc
#000000 #000000;
#X obj 867 673 dac~ 1 2;
#X msg 871 219 400 \, 1200 10000;
#X text 78 156 My idea for the transition would be to go from the lowness
of the nice forest wind to the highness of the scare forest wind (from
400 to 1200). The rustling leaves stay the same \, although they are
louder in the dark ambience one --> line for making it louder is an
option. After this time (now 10000 MS but we can edit it) we can go
to the regular forest which would mean crows are added to the environment.
;
#X obj 463 423 t b b;
#X obj 589 567 readsf~;
#X msg 412 479 1;
#X obj 465 371 bng 15 250 50 0 empty empty empty 17 7 0 10 #fcfcfc
#000000 #000000;
#X msg 487 477 open Rustling.wav;
#X obj 934 392 line;
#X floatatom 934 416 5 0 0 0 - - - 0;
#X obj 847 436 *~ 0.2;
#X msg 929 370 0.2 \, 0.5 10000;
#X text 1124 401 comment;
#X obj 1050 179 bng 15 250 50 0 empty empty empty 17 7 0 10 #fcfcfc
#000000 #000000;
#X obj 664 625 *~ 1;
#X connect 0 0 1 0;
#X connect 1 0 16 0;
#X connect 2 0 5 0;
#X connect 2 0 12 0;
#X connect 2 0 19 0;
#X connect 3 0 4 0;
#X connect 4 0 1 1;
#X connect 5 0 7 0;
#X connect 7 0 3 0;
#X connect 9 0 11 0;
#X connect 9 1 13 0;
#X connect 10 0 20 0;
#X connect 11 0 10 0;
#X connect 12 0 9 0;
#X connect 13 0 10 0;
#X connect 14 0 15 0;
#X connect 15 0 16 1;
#X connect 16 0 6 0;
#X connect 16 0 6 1;
#X connect 17 0 14 0;
#X connect 19 0 17 0;
#X connect 20 0 6 0;
#X connect 20 0 6 1;
