#N canvas 0 0 1440 847 12;
#X obj 385 450 bob~;
#X obj 398 378 line;
#X floatatom 398 402 5 0 0 0 - - - 0;
#X obj 394 310 bng 15 250 50 0 empty empty empty 17 7 0 10 #fcfcfc
#000000 #000000;
#X msg 393 356 400 \, 1200 10000;
#X obj 130 341 t b b;
#X obj 146 430 readsf~;
#X msg 129 391 1;
#X obj 129 306 bng 15 250 50 0 empty empty empty 17 7 0 10 #fcfcfc
#000000 #000000;
#X msg 195 389 open Rustling.wav;
#X obj 571 308 line;
#X floatatom 571 332 5 0 0 0 - - - 0;
#X obj 605 233 bng 15 250 50 0 empty empty empty 17 7 0 10 #fcfcfc
#000000 #000000;
#X obj 260 636 *~ 1;
#X text 192 212 Rustling sound just stays;
#X text 32 29 My idea for the transition would be to go from the lowness
of the nice forest wind to the highness of the scary forest wind (from
400 to 1200). The rustling leaves stay the same \, although they are
louder in the dark ambience one --> line for making it louder is an
option. The birds stop whistling after a certain amount of time (now
7MS). After this patch time (now 10000 MS but we can edit it) we can
go to the regular forest which would mean crows are added to the environment.
;
#X obj 866 458 env~;
#X msg 967 486 70;
#X obj 873 67 time;
#X floatatom 873 97 5 0 0 0 - - - 0;
#X obj 868 562 bng 15 250 50 0 empty empty empty 17 7 0 10 #fcfcfc
#000000 #000000;
#X floatatom 794 487 5 0 0 0 - - - 0;
#X obj 798 104 bng 15 250 50 0 empty empty empty 17 7 0 10 #fcfcfc
#000000 #000000;
#X text 707 20 INLET. Gets banged from ambience;
#X obj 788 51 inlet;
#X obj 869 607 DarkAmbience;
#X obj 751 266 line;
#X floatatom 751 290 5 0 0 0 - - - 0;
#X msg 751 242 0.1 \, 0 3000;
#X msg 563 286 0 \, 0.1 3000;
#X text 632 263 Fade in;
#X text 765 212 Fade out;
#X obj 259 718 dac~ 1 2 3 4;
#X obj 377 706 else/pan2~;
#X obj 489 739 hsl 128 15 -1 1 0 0 empty empty empty -2 -8 0 10 #dcdcdc
#000000 #000000 0 1;
#X floatatom 486 772 0 0 0 0 - - - 0;
#X obj 486 793 else/float2sig~ 100;
#X obj 486 708 line, f 11;
#X msg 609 670 1 \, -1 6000;
#X msg 485 669 -1 \, 1 6000;
#X obj 638 508 bng 15 250 50 0 empty empty empty 17 7 0 10 #fcfcfc
#000000 #000000;
#X obj 638 585 f;
#X obj 689 586 + 1;
#X floatatom 639 613 5 0 0 0 - - - 0;
#X obj 638 635 sel 0 1;
#X obj 753 648 mod 2;
#X obj 638 540 metro 6000;
#X obj 377 805 dac~ 2 4;
#X obj 864 358 adc~ 3;
#X obj 866 517 delay_threshold;
#X obj 914 420 delay 10000;
#X obj 148 474 *~ 0.08;
#X obj 382 256 noise~;
#X obj 906 292 readsf~;
#X msg 904 259 1;
#X obj 902 212 t b b;
#X obj 972 283 bng 15 250 50 0 empty empty empty 17 7 0 10 #fcfcfc
#000000 #000000;
#X obj 984 305 spigot;
#X obj 1034 280 tgl 15 0 empty empty empty 17 7 0 10 #fcfcfc #000000
#000000 0 1;
#X msg 999 231 open owl.wav;
#X obj 375 657 *~ 0.05;
#X obj 950 346 *~ 0.3;
#X obj 1119 307 readsf~;
#X msg 1118 272 1;
#X obj 1117 225 t b b;
#X msg 1213 244 open wolf_howl.wav;
#X obj 1118 192 delay 8000;
#X obj 1414 267 readsf~;
#X msg 1412 234 1;
#X obj 1410 187 t b b;
#X msg 1507 206 open crickets.wav;
#X obj 1108 604 *~ 1;
#X obj 1154 421 fadeIn;
#X obj 1498 249 delay 6000;
#X text 1468 545 After crickets fade the wolf howls and slowly after
that we are basically going into crow ghost osc environment;
#X obj 1090 662 dac~ 1 2 3 4;
#X obj 1415 310 *~ 0.3;
#X obj 1499 281 bng 15 250 50 0 empty empty empty 17 7 0 10 #fcfcfc
#000000 #000000;
#X obj 1121 531 *~ 0.9;
#X obj 1499 305 fadeOut;
#X obj 1666 405 throw~ speaker3;
#X obj 1583 432 throw~ speaker2;
#X obj 1500 459 throw~ speaker1;
#X obj 1417 486 throw~ speaker0;
#X obj 1417 379 pan4_with_center_and_distance_polar~;
#X floatatom 1772 241 5 0 0 0 - - - 0;
#X obj 1772 268 sig~;
#X obj 1682 263 *~ 360;
#X obj 1682 233 phasor~ 1;
#X floatatom 1682 198 5 0 0 0 - - - 0;
#X msg 1682 169 2;
#X msg 1772 194 2;
#X connect 0 0 60 0;
#X connect 1 0 2 0;
#X connect 2 0 0 1;
#X connect 3 0 4 0;
#X connect 4 0 1 0;
#X connect 5 0 7 0;
#X connect 5 1 9 0;
#X connect 6 0 51 0;
#X connect 7 0 6 0;
#X connect 8 0 5 0;
#X connect 9 0 6 0;
#X connect 10 0 11 0;
#X connect 11 0 13 1;
#X connect 11 0 60 1;
#X connect 11 0 61 1;
#X connect 12 0 29 0;
#X connect 13 0 32 0;
#X connect 13 0 32 1;
#X connect 13 0 32 2;
#X connect 13 0 32 3;
#X connect 16 0 49 0;
#X connect 16 0 21 0;
#X connect 17 0 49 2;
#X connect 18 0 19 0;
#X connect 20 0 28 0;
#X connect 20 0 25 0;
#X connect 22 0 3 0;
#X connect 22 0 12 0;
#X connect 22 0 8 0;
#X connect 22 0 17 0;
#X connect 22 0 40 0;
#X connect 22 0 50 0;
#X connect 22 0 18 0;
#X connect 22 0 72 0;
#X connect 22 0 66 0;
#X connect 22 0 55 0;
#X connect 22 0 69 0;
#X connect 22 0 73 0;
#X connect 22 0 90 0;
#X connect 22 0 91 0;
#X connect 24 0 22 0;
#X connect 26 0 27 0;
#X connect 27 0 13 1;
#X connect 27 0 60 1;
#X connect 27 0 61 1;
#X connect 28 0 26 0;
#X connect 29 0 10 0;
#X connect 33 0 47 0;
#X connect 33 1 47 1;
#X connect 34 0 35 0;
#X connect 35 0 36 0;
#X connect 36 0 33 1;
#X connect 37 0 34 0;
#X connect 38 0 37 0;
#X connect 39 0 37 0;
#X connect 40 0 46 0;
#X connect 41 0 42 0;
#X connect 41 0 43 0;
#X connect 42 0 45 0;
#X connect 43 0 44 0;
#X connect 44 0 39 0;
#X connect 44 1 38 0;
#X connect 45 0 41 1;
#X connect 46 0 41 0;
#X connect 48 0 16 0;
#X connect 49 0 20 0;
#X connect 50 0 49 1;
#X connect 51 0 13 0;
#X connect 52 0 0 0;
#X connect 53 0 61 0;
#X connect 53 1 56 0;
#X connect 54 0 53 0;
#X connect 55 0 54 0;
#X connect 55 1 59 0;
#X connect 56 0 57 0;
#X connect 58 0 57 1;
#X connect 59 0 53 0;
#X connect 60 0 33 0;
#X connect 61 0 71 0;
#X connect 62 0 78 0;
#X connect 63 0 62 0;
#X connect 64 0 63 0;
#X connect 64 1 65 0;
#X connect 65 0 62 0;
#X connect 66 0 64 0;
#X connect 67 0 76 0;
#X connect 68 0 67 0;
#X connect 69 0 68 0;
#X connect 69 1 70 0;
#X connect 70 0 67 0;
#X connect 71 0 75 0;
#X connect 71 0 75 1;
#X connect 71 0 75 2;
#X connect 71 0 75 3;
#X connect 72 0 76 1;
#X connect 72 0 78 1;
#X connect 73 0 77 0;
#X connect 76 0 84 0;
#X connect 77 0 79 0;
#X connect 78 0 71 0;
#X connect 79 0 76 1;
#X connect 84 0 83 0;
#X connect 84 1 82 0;
#X connect 84 2 81 0;
#X connect 84 3 80 0;
#X connect 85 0 86 0;
#X connect 86 0 84 2;
#X connect 87 0 84 1;
#X connect 88 0 87 0;
#X connect 89 0 88 0;
#X connect 90 0 89 0;
#X connect 91 0 85 0;
