#N canvas 243 105 897 730 12;
#X obj 240 46 inlet;
#X obj 364 218 inlet;
#X floatatom 240 81 5 0 0 0 - - - 0;
#X obj 319 413 outlet;
#X obj 243 232 spigot;
#X obj 283 208 tgl 15 0 empty empty empty 17 7 0 10 #fcfcfc #000000
#000000 0 1;
#X msg 361 164 1;
#X floatatom 364 246 5 0 0 0 - - - 0;
#X msg 293 163 0;
#X obj 320 269 >;
#X obj 320 316 sel 1;
#X obj 320 352 trigger b b;
#X obj 241 116 trigger f;
#X obj 320 383 bng 15 250 50 0 empty empty empty 17 7 0 10 #fcfcfc
#000000 #000000;
#X text 35 320 This threshold only works once.;
#X obj 362 102 inlet;
#X text 62 47 this inlet takes the volume of the sound;
#X text 407 91 this inlet triggers the threshold based on the timer
;
#X obj 362 133 bng 15 250 50 0 empty empty empty 17 7 0 10 #fcfcfc
#000000 #000000;
#X connect 0 0 2 0;
#X connect 1 0 7 0;
#X connect 2 0 12 0;
#X connect 4 0 9 0;
#X connect 5 0 4 1;
#X connect 6 0 5 0;
#X connect 7 0 9 1;
#X connect 8 0 5 0;
#X connect 9 0 10 0;
#X connect 10 0 11 0;
#X connect 11 0 13 0;
#X connect 11 1 8 0;
#X connect 12 0 4 0;
#X connect 13 0 3 0;
#X connect 15 0 18 0;
#X connect 18 0 6 0;
