#N canvas -127 73 1920 976 12;
#X floatatom 643 484 5 0 0 0 - - - 0;
#X obj 729 573 ramp2;
#X obj 637 168 tgl 15 0 empty empty empty 17 7 0 10 #fcfcfc #000000
#000000 0 1;
#X obj 706 493 bng 15 250 50 0 empty empty empty 17 7 0 10 #fcfcfc
#000000 #000000;
#X obj 660 525 osc~;
#X msg 545 412 150;
#X msg 600 413 180;
#X msg 639 410 160;
#X obj 637 237 bng 15 250 50 0 empty empty empty 17 7 0 10 #fcfcfc
#000000 #000000;
#X msg 744 520 1200 400 0.8 400;
#X obj 841 93 inlet;
#X obj 842 132 bng 15 250 50 0 empty empty empty 17 7 0 10 #fcfcfc
#000000 #000000;
#X obj 686 704 outlet~;
#X obj 1033 102 inlet;
#X obj 1039 140 bng 15 250 50 0 empty empty empty 17 7 0 10 #fcfcfc
#000000 #000000;
#X obj 1027 276 line;
#X msg 1036 207 0.1 \, 0 3000;
#X msg 1016 168 0;
#X msg 701 135 1;
#X obj 842 152 delay 3000;
#X obj 697 603 *~;
#X obj 634 202 metro 18000;
#X text 1058 363 We can play with frequencies by changing the delays
and stuff;
#X obj 455 304 delay 2500;
#X obj 537 302 delay 5000;
#X obj 634 303 delay 7500;
#X obj 731 307 delay 10000;
#X obj 834 307 delay 13000, f 12;
#X connect 0 0 3 0;
#X connect 0 0 4 0;
#X connect 1 0 20 1;
#X connect 2 0 21 0;
#X connect 3 0 9 0;
#X connect 4 0 20 0;
#X connect 5 0 0 0;
#X connect 6 0 0 0;
#X connect 7 0 0 0;
#X connect 8 0 5 0;
#X connect 8 0 23 0;
#X connect 8 0 24 0;
#X connect 8 0 25 0;
#X connect 8 0 26 0;
#X connect 8 0 27 0;
#X connect 9 0 1 0;
#X connect 10 0 11 0;
#X connect 11 0 19 0;
#X connect 13 0 14 0;
#X connect 14 0 16 0;
#X connect 14 0 17 0;
#X connect 15 0 20 1;
#X connect 16 0 15 0;
#X connect 17 0 2 0;
#X connect 18 0 2 0;
#X connect 19 0 18 0;
#X connect 20 0 12 0;
#X connect 21 0 8 0;
#X connect 23 0 6 0;
#X connect 24 0 7 0;
#X connect 25 0 6 0;
#X connect 26 0 7 0;
#X connect 27 0 5 0;
