#N canvas 0 25 1352 929 12;
#X obj 491 583 tgl 15 0 empty empty empty 17 7 0 10 -262144 -1 -1 0
1;
#X text 535 324 distance;
#X text 372 324 angle in degrees;
#X obj 263 297 inlet~;
#X obj 263 635 outlet~;
#X obj 339 635 outlet~;
#X obj 415 635 outlet~;
#X obj 491 635 outlet~;
#X text 496 540 Y coordinate;
#X text 371 539 X coordinate;
#X obj 716 295 inlet;
#X obj 263 607 pan4_with_center_and_distance_xy~;
#X obj 340 463 cyclone/poltocar~;
#X obj 456 434 /~ 57.2958;
#X obj 363 297 inlet~;
#X obj 527 297 inlet~;
#X obj 493 516 cyclone/number~;
#A saved 0 0 100 -inf inf #2a3434 #ffffff #b6fefd;
#X obj 370 516 cyclone/number~;
#A saved 0 0 100 -inf inf #2a3434 #ffffff #b6fefd;
#X obj 527 354 cyclone/number~;
#A saved 0 0 100 -inf inf #2a3434 #ffffff #b6fefd;
#X obj 363 355 cyclone/number~;
#A saved 0 0 100 -inf inf #2a3434 #ffffff #b6fefd;
#X connect 0 0 11 3;
#X connect 3 0 11 0;
#X connect 10 0 0 0;
#X connect 11 0 4 0;
#X connect 11 1 5 0;
#X connect 11 2 6 0;
#X connect 11 3 7 0;
#X connect 12 0 11 1;
#X connect 12 0 17 0;
#X connect 12 1 11 2;
#X connect 12 1 16 0;
#X connect 13 0 12 1;
#X connect 14 0 13 0;
#X connect 14 0 19 0;
#X connect 15 0 12 0;
#X connect 15 0 18 0;
#X coords 0 0 1 1 85 60 0;
