#N canvas 32 32 1920 976 12;
#X obj 715 625 vline~;
#X obj 726 297 unpack 0 0 0 0;
#X floatatom 697 335 5 0 0 0 - - - 0;
#X floatatom 749 336 5 0 0 0 - - - 0;
#X floatatom 842 336 5 0 0 0 - - - 0;
#X floatatom 795 336 5 0 0 0 - - - 0;
#X msg 618 534 1 \$1;
#X msg 714 534 \$2 \$1;
#X obj 720 474 pack 0 0;
#X obj 710 432 float;
#X obj 702 402 delay;
#X obj 730 204 inlet;
#X obj 719 679 outlet~;
#X msg 840 540 0 \$1;
#X obj 817 407 t b f;
#X obj 817 444 delay;
#X obj 852 479 float;
#X obj 702 369 t b f;
#X connect 0 0 12 0;
#X connect 1 0 2 0;
#X connect 1 1 3 0;
#X connect 1 2 5 0;
#X connect 1 3 4 0;
#X connect 2 0 6 0;
#X connect 2 0 17 0;
#X connect 3 0 9 1;
#X connect 4 0 16 1;
#X connect 5 0 8 1;
#X connect 6 0 0 0;
#X connect 7 0 0 0;
#X connect 8 0 7 0;
#X connect 9 0 8 0;
#X connect 9 0 14 0;
#X connect 10 0 9 0;
#X connect 11 0 1 0;
#X connect 13 0 0 0;
#X connect 14 0 15 0;
#X connect 14 1 15 1;
#X connect 15 0 16 0;
#X connect 16 0 13 0;
#X connect 17 0 10 0;
#X connect 17 1 10 1;
