#N canvas -926 7 676 712 12;
#X obj 133 491 vline~;
#X obj 150 118 unpack 0 0 0 0, f 26;
#X floatatom 128 162 5 0 0 0 - - -;
#X floatatom 242 163 5 0 0 0 - - -;
#X floatatom 265 204 5 0 0 0 - - -;
#X floatatom 428 173 5 0 0 0 - - -;
#X msg 131 376 1 \$1;
#X msg 211 378 \$2 \$1;
#X obj 211 310 float;
#X obj 211 341 pack 0 0;
#X obj 144 206 t b f;
#X obj 144 241 delay;
#X obj 301 244 t b f;
#X obj 301 275 delay;
#X obj 397 296 float;
#X obj 150 65 inlet;
#X obj 133 540 outlet~;
#X msg 398 380 0 \$1;
#X connect 0 0 16 0;
#X connect 1 0 2 0;
#X connect 1 1 3 0;
#X connect 1 2 4 0;
#X connect 1 3 5 0;
#X connect 2 0 6 0;
#X connect 2 0 10 0;
#X connect 3 0 8 1;
#X connect 4 0 9 1;
#X connect 5 0 14 1;
#X connect 6 0 0 0;
#X connect 7 0 0 0;
#X connect 8 0 9 0;
#X connect 8 0 12 0;
#X connect 9 0 7 0;
#X connect 10 0 11 0;
#X connect 10 1 11 1;
#X connect 11 0 8 0;
#X connect 12 0 13 0;
#X connect 12 1 13 1;
#X connect 13 0 14 0;
#X connect 14 0 17 0;
#X connect 15 0 1 0;
#X connect 17 0 0 0;
