#N canvas 200 208 1149 593 12;
#X msg 256 31 open breathing.wav;
#X obj 91 173 readsf~;
#X msg 91 147 1;
#X obj 91 122 t b b;
#X obj 91 36 bng 15 250 50 0 empty empty empty 17 7 0 10 #fcfcfc #000000
#000000;
#X obj 146 197 bng 15 250 50 0 empty empty empty 17 7 0 10 #fcfcfc
#000000 #000000;
#X text 112 100 play;
#X obj 158 219 spigot;
#X obj 185 195 tgl 15 0 empty empty empty 17 7 0 10 #fcfcfc #000000
#000000 0 1;
#X msg 162 136 open drums_war.wav;
#X obj 89 341 *~ 0.05;
#X msg 424 254 open gun.wav;
#X obj 358 309 readsf~;
#X msg 360 244 1;
#X obj 360 219 t b b;
#X obj 360 185 bng 15 250 50 0 empty empty empty 17 7 0 10 #fcfcfc
#000000 #000000;
#X text 381 197 play;
#X obj 380 345 *~ 0.03;
#X obj 482 373 readsf~;
#X msg 482 347 1;
#X obj 482 322 t b b;
#X obj 537 397 bng 15 250 50 0 empty empty empty 17 7 0 10 #fcfcfc
#000000 #000000;
#X obj 549 419 spigot;
#X obj 576 395 tgl 15 0 empty empty empty 17 7 0 10 #fcfcfc #000000
#000000 0 1;
#X obj 482 138 bng 15 250 50 0 empty empty empty 17 7 0 10 #fcfcfc
#000000 #000000;
#X msg 564 345 open Scary_animal.wav;
#X obj 489 449 *~ 0.02;
#X obj 478 106 delay 9000;
#X obj 632 224 readsf~;
#X msg 632 197 1;
#X obj 632 172 t b b;
#X obj 689 255 bng 15 250 50 0 empty empty empty 17 7 0 10 #fcfcfc
#000000 #000000;
#X obj 700 279 spigot;
#X obj 727 255 tgl 15 0 empty empty empty 17 7 0 10 #fcfcfc #000000
#000000 0 1;
#X obj 630 139 bng 15 250 50 0 empty empty empty 17 7 0 10 #fcfcfc
#000000 #000000;
#X msg 713 197 open Scary_animal.wav;
#X obj 634 304 *~ 0.009;
#X obj 629 92 delay 10000;
#X obj 884 226 readsf~;
#X msg 884 199 1;
#X obj 884 174 t b b;
#X obj 941 257 bng 15 250 50 0 empty empty empty 17 7 0 10 #fcfcfc
#000000 #000000;
#X obj 952 281 spigot;
#X obj 979 257 tgl 15 0 empty empty empty 17 7 0 10 #fcfcfc #000000
#000000 0 1;
#X obj 882 141 bng 15 250 50 0 empty empty empty 17 7 0 10 #fcfcfc
#000000 #000000;
#X msg 965 199 open Scary_animal.wav;
#X obj 881 94 delay 11000;
#X obj 886 306 *~ 0.005;
#X obj 360 118 delay 4000;
#X obj 186 264 FadeIn;
#X obj 229 334 adc~ 3;
#X obj 241 386 env~;
#X floatatom 218 434 5 0 0 0 - - - 0;
#X obj 182 533 dac~ 4;
#X connect 1 0 10 0;
#X connect 1 1 5 0;
#X connect 2 0 1 0;
#X connect 3 0 2 0;
#X connect 3 1 9 0;
#X connect 4 0 3 0;
#X connect 4 0 49 0;
#X connect 5 0 7 0;
#X connect 7 0 4 0;
#X connect 8 0 7 1;
#X connect 9 0 1 0;
#X connect 10 0 53 0;
#X connect 11 0 12 0;
#X connect 12 0 17 0;
#X connect 13 0 12 0;
#X connect 14 0 13 0;
#X connect 14 1 11 0;
#X connect 15 0 14 0;
#X connect 17 0 53 0;
#X connect 18 0 26 0;
#X connect 18 1 21 0;
#X connect 19 0 18 0;
#X connect 20 0 19 0;
#X connect 20 1 25 0;
#X connect 21 0 22 0;
#X connect 23 0 22 1;
#X connect 24 0 20 0;
#X connect 25 0 18 0;
#X connect 26 0 53 0;
#X connect 27 0 24 0;
#X connect 28 0 36 0;
#X connect 28 1 31 0;
#X connect 29 0 28 0;
#X connect 30 0 29 0;
#X connect 30 1 35 0;
#X connect 31 0 32 0;
#X connect 33 0 32 1;
#X connect 34 0 30 0;
#X connect 35 0 28 0;
#X connect 36 0 53 0;
#X connect 37 0 34 0;
#X connect 38 0 47 0;
#X connect 38 1 41 0;
#X connect 39 0 38 0;
#X connect 40 0 39 0;
#X connect 40 1 45 0;
#X connect 41 0 42 0;
#X connect 43 0 42 1;
#X connect 44 0 40 0;
#X connect 45 0 38 0;
#X connect 46 0 44 0;
#X connect 47 0 53 0;
#X connect 48 0 15 0;
#X connect 49 0 10 1;
#X connect 50 0 51 0;
#X connect 51 0 52 0;
