#N canvas 591 28 836 726 12;
#X msg 884 51 tempo 1 sec;
#X obj 874 114 metro 1;
#X obj 872 158 bng 15 250 50 0 empty empty empty 17 7 0 10 #fcfcfc
#000000 #000000;
#X obj 838 64 bng 15 250 50 0 empty empty empty 17 7 0 10 #fcfcfc #000000
#000000;
#X msg 894 61 tempo 1 sec;
#X obj 884 124 metro 1;
#X obj 882 168 bng 15 250 50 0 empty empty empty 17 7 0 10 #fcfcfc
#000000 #000000;
#X obj 848 74 bng 15 250 50 0 empty empty empty 17 7 0 10 #fcfcfc #000000
#000000;
#X obj 261 427 outlet;
#X obj 259 262 sel 1;
#X obj 362 306 bng 15 250 50 0 empty empty empty 17 7 0 10 #fcfcfc
#000000 #000000;
#X obj 260 304 bng 15 250 50 0 empty empty empty 17 7 0 10 #fcfcfc
#000000 #000000;
#X obj 260 333 timer 60 permin;
#X floatatom 260 378 5 0 0 0 - - - 0;
#X obj 226 142 tgl 15 0 empty empty empty 17 7 0 10 #fcfcfc #000000
#000000 0 1;
#X msg 361 228 tempo 1 sec;
#X obj 227 179 t f f;
#X obj 375 179 loadbang;
#X obj 335 179 bng 15 250 50 0 empty empty empty 17 7 0 10 #fcfcfc
#000000 #000000;
#X obj 362 274 metro 1;
#X obj 225 96 inlet;
#X text 156 525 if the timer is banged again after being banged for
the first time then it restarts from zero;
#X connect 0 0 1 0;
#X connect 1 0 2 0;
#X connect 3 0 1 0;
#X connect 4 0 5 0;
#X connect 5 0 6 0;
#X connect 7 0 5 0;
#X connect 9 0 11 0;
#X connect 10 0 12 1;
#X connect 11 0 12 0;
#X connect 12 0 13 0;
#X connect 13 0 8 0;
#X connect 14 0 16 0;
#X connect 15 0 19 0;
#X connect 16 0 9 0;
#X connect 16 1 19 0;
#X connect 17 0 15 0;
#X connect 18 0 15 0;
#X connect 19 0 10 0;
#X connect 20 0 14 0;
