#N canvas -406 79 1920 976 12;
#X obj 385 450 bob~;
#X obj 398 378 line;
#X floatatom 398 402 5 0 0 0 - - - 0;
#X obj 394 310 bng 15 250 50 0 empty empty empty 17 7 0 10 #fcfcfc
#000000 #000000;
#X msg 393 356 400 \, 1200 10000;
#X obj 130 341 t b b;
#X obj 146 430 readsf~;
#X msg 129 391 1;
#X obj 129 306 bng 15 250 50 0 empty empty empty 17 7 0 10 #fcfcfc
#000000 #000000;
#X msg 195 389 open Rustling.wav;
#X obj 260 636 *~ 1;
#X text 192 212 Rustling sound just stays;
#X obj 866 458 env~;
#X msg 967 486 70;
#X obj 839 77 time;
#X floatatom 839 107 5 0 0 0 - - - 0;
#X obj 868 562 bng 15 250 50 0 empty empty empty 17 7 0 10 #fcfcfc
#000000 #000000;
#X floatatom 735 478 5 0 0 0 - - - 0;
#X obj 798 104 bng 15 250 50 0 empty empty empty 17 7 0 10 #fcfcfc
#000000 #000000;
#X text 707 20 INLET. Gets banged from ambience;
#X obj 788 51 inlet;
#X obj 869 607 DarkAmbience;
#X obj 751 266 line;
#X floatatom 751 290 5 0 0 0 - - - 0;
#X msg 751 242 0.1 \, 0 3000;
#X text 765 212 Fade out;
#X obj 377 706 else/pan2~;
#X obj 489 739 hsl 128 15 -1 1 0 0 empty empty empty -2 -8 0 10 #dcdcdc
#000000 #000000 0 1;
#X floatatom 486 772 0 0 0 0 - - - 0;
#X obj 486 793 else/float2sig~ 100;
#X obj 486 708 line, f 11;
#X msg 609 670 1 \, -1 6000;
#X msg 485 669 -1 \, 1 6000;
#X obj 638 508 bng 15 250 50 0 empty empty empty 17 7 0 10 #fcfcfc
#000000 #000000;
#X obj 638 585 f;
#X obj 689 586 + 1;
#X floatatom 639 613 5 0 0 0 - - - 0;
#X obj 638 635 sel 0 1;
#X obj 753 648 mod 2;
#X obj 638 540 metro 6000;
#X obj 864 358 adc~ 3;
#X obj 866 517 delay_threshold;
#X obj 914 420 delay 10000;
#X obj 382 256 noise~;
#X obj 906 292 readsf~;
#X msg 904 259 1;
#X obj 902 212 t b b;
#X obj 972 283 bng 15 250 50 0 empty empty empty 17 7 0 10 #fcfcfc
#000000 #000000;
#X obj 984 305 spigot;
#X obj 1034 280 tgl 15 0 empty empty empty 17 7 0 10 #fcfcfc #000000
#000000 0 1;
#X msg 999 231 open owl.wav;
#X obj 377 805 dac~ 1 2;
#X obj 206 739 dac~ 1 2 3 4;
#X text 352 837 Changed to 1-2 for PC testing;
#X obj 1120 305 readsf~;
#X msg 1118 272 1;
#X obj 1116 225 t b b;
#X obj 1186 296 bng 15 250 50 0 empty empty empty 17 7 0 10 #fcfcfc
#000000 #000000;
#X obj 1198 318 spigot;
#X obj 1248 293 tgl 15 0 empty empty empty 17 7 0 10 #fcfcfc #000000
#000000 0 1;
#X msg 1213 244 open wolf_howl.wav;
#X obj 1085 194 delay 8000;
#X obj 1341 426 readsf~;
#X msg 1339 393 1;
#X obj 1337 346 t b b;
#X obj 1407 417 bng 15 250 50 0 empty empty empty 17 7 0 10 #fcfcfc
#000000 #000000;
#X obj 1419 439 spigot;
#X obj 1469 414 tgl 15 0 empty empty empty 17 7 0 10 #fcfcfc #000000
#000000 0 1;
#X msg 1434 365 open crickets.wav;
#X text 1073 531 0.2;
#X obj 1113 531 *~ 1;
#X text 1243 540 Like 0.05?;
#X obj 1174 580 *~ 1;
#X obj 1153 631 dac~ 1 2;
#X obj 1193 538 *~ 0.4;
#X obj 268 563 fadeIn;
#X obj 1163 425 fadeIn;
#X text 446 656 0.05;
#X obj 375 657 *~ 0.1;
#X text 215 473 0.08;
#X obj 148 474 *~ 0.3;
#X obj 701 76 loadbang;
#X obj 1383 552 delay 6000;
#X obj 1387 612 line;
#X floatatom 1387 636 5 0 0 0 - - - 0;
#X msg 1387 588 0.1 \, 0 3000;
#X text 1468 545 After crickets fade the wolf howls and slowly after
that we are basically going into crow ghost osc environment;
#X text 117 110 I tried to change everything to fade in \, but the
object doesn't work for me \, I just see an empty patch just like with
ramp;
#X connect 0 0 78 0;
#X connect 1 0 2 0;
#X connect 2 0 0 1;
#X connect 3 0 4 0;
#X connect 4 0 1 0;
#X connect 5 0 7 0;
#X connect 5 1 9 0;
#X connect 6 0 80 0;
#X connect 7 0 6 0;
#X connect 8 0 5 0;
#X connect 9 0 6 0;
#X connect 10 0 52 0;
#X connect 10 0 52 1;
#X connect 10 0 52 2;
#X connect 10 0 52 3;
#X connect 12 0 41 0;
#X connect 12 0 17 0;
#X connect 13 0 41 2;
#X connect 14 0 15 0;
#X connect 16 0 24 0;
#X connect 16 0 21 0;
#X connect 18 0 3 0;
#X connect 18 0 8 0;
#X connect 18 0 13 0;
#X connect 18 0 33 0;
#X connect 18 0 42 0;
#X connect 18 0 14 0;
#X connect 18 0 46 0;
#X connect 18 0 61 0;
#X connect 18 0 64 0;
#X connect 18 0 82 0;
#X connect 20 0 18 0;
#X connect 22 0 23 0;
#X connect 23 0 10 1;
#X connect 23 0 70 1;
#X connect 23 0 74 1;
#X connect 23 0 78 1;
#X connect 24 0 22 0;
#X connect 26 0 51 0;
#X connect 26 1 51 1;
#X connect 27 0 28 0;
#X connect 28 0 29 0;
#X connect 29 0 26 1;
#X connect 30 0 27 0;
#X connect 31 0 30 0;
#X connect 32 0 30 0;
#X connect 33 0 39 0;
#X connect 34 0 35 0;
#X connect 34 0 36 0;
#X connect 35 0 38 0;
#X connect 36 0 37 0;
#X connect 37 0 32 0;
#X connect 37 1 31 0;
#X connect 38 0 34 1;
#X connect 39 0 34 0;
#X connect 40 0 12 0;
#X connect 41 0 16 0;
#X connect 42 0 41 1;
#X connect 43 0 0 0;
#X connect 44 0 70 0;
#X connect 44 1 47 0;
#X connect 45 0 44 0;
#X connect 46 0 45 0;
#X connect 46 1 50 0;
#X connect 47 0 48 0;
#X connect 49 0 48 1;
#X connect 50 0 44 0;
#X connect 54 0 70 0;
#X connect 54 1 57 0;
#X connect 55 0 54 0;
#X connect 56 0 55 0;
#X connect 56 1 60 0;
#X connect 57 0 58 0;
#X connect 59 0 58 1;
#X connect 60 0 54 0;
#X connect 61 0 56 0;
#X connect 62 0 74 0;
#X connect 62 1 65 0;
#X connect 63 0 62 0;
#X connect 64 0 63 0;
#X connect 64 1 68 0;
#X connect 65 0 66 0;
#X connect 67 0 66 1;
#X connect 68 0 62 0;
#X connect 70 0 72 0;
#X connect 72 0 73 0;
#X connect 72 0 73 1;
#X connect 74 0 72 0;
#X connect 75 0 10 1;
#X connect 75 0 78 1;
#X connect 76 0 70 1;
#X connect 76 0 74 1;
#X connect 78 0 26 0;
#X connect 80 0 10 0;
#X connect 81 0 18 0;
#X connect 82 0 85 0;
#X connect 83 0 84 0;
#X connect 84 0 74 1;
#X connect 85 0 83 0;
